<?xml version="1.0" encoding="UTF-8"?>
<!-- Created with Inkscape (http://www.inkscape.org/) -->
<svg width="1400" height="3600" version="1.1" viewBox="0 0 370.42 952.5" xmlns="http://www.w3.org/2000/svg">
 <g transform="translate(125.86 396.98)">
  <g fill="none" stroke="#000">
   <path d="m186.18-258.64a1.1713 1.1713 0 0 1-1.1713 1.1713 1.1713 1.1713 0 0 1-1.1713-1.1713 1.1713 1.1713 0 0 1 1.1713-1.1713 1.1713 1.1713 0 0 1 1.1713 1.1713zm-0.0771-4.0106a1.1713 1.1713 0 0 1-1.1713 1.1713 1.1713 1.1713 0 0 1-1.1713-1.1713 1.1713 1.1713 0 0 1 1.1713-1.1713 1.1713 1.1713 0 0 1 1.1713 1.1713zm0.11566-4.3192a1.1713 1.1713 0 0 1-1.1713 1.1713 1.1713 1.1713 0 0 1-1.1713-1.1713 1.1713 1.1713 0 0 1 1.1713-1.1713 1.1713 1.1713 0 0 1 1.1713 1.1713zm-40.452 8.4957a1.1713 1.1713 0 0 1-1.1713 1.1713 1.1713 1.1713 0 0 1-1.1713-1.1713 1.1713 1.1713 0 0 1 1.1713-1.1713 1.1713 1.1713 0 0 1 1.1713 1.1713zm-0.0891-4.2739a1.1713 1.1713 0 0 1-1.1713 1.1713 1.1713 1.1713 0 0 1-1.1713-1.1713 1.1713 1.1713 0 0 1 1.1713-1.1713 1.1713 1.1713 0 0 1 1.1713 1.1713zm6.6823 4.2194a1.1713 1.1713 0 0 1-1.1713 1.1713 1.1713 1.1713 0 0 1-1.1713-1.1713 1.1713 1.1713 0 0 1 1.1713-1.1713 1.1713 1.1713 0 0 1 1.1713 1.1713zm-0.0771-4.1649a1.1713 1.1713 0 0 1-1.1713 1.1713 1.1713 1.1713 0 0 1-1.1713-1.1713 1.1713 1.1713 0 0 1 1.1713-1.1713 1.1713 1.1713 0 0 1 1.1713 1.1713zm0-4.3577a1.1713 1.1713 0 0 1-1.1713 1.1713 1.1713 1.1713 0 0 1-1.1713-1.1713 1.1713 1.1713 0 0 1 1.1713-1.1713 1.1713 1.1713 0 0 1 1.1713 1.1713zm-6.4452 0.0817a1.1713 1.1713 0 0 1-1.1713 1.1713 1.1713 1.1713 0 0 1-1.1713-1.1713 1.1713 1.1713 0 0 1 1.1713-1.1713 1.1713 1.1713 0 0 1 1.1713 1.1713zm-85.12 23.399a1.1713 1.1713 0 0 0 1.1713 1.1713 1.1713 1.1713 0 0 0 1.1713-1.1713 1.1713 1.1713 0 0 0-1.1713-1.1713 1.1713 1.1713 0 0 0-1.1713 1.1713zm0.0771-4.0106a1.1713 1.1713 0 0 0 1.1713 1.1713 1.1713 1.1713 0 0 0 1.1713-1.1713 1.1713 1.1713 0 0 0-1.1713-1.1713 1.1713 1.1713 0 0 0-1.1713 1.1713zm-0.11567-4.3192a1.1713 1.1713 0 0 0 1.1713 1.1713 1.1713 1.1713 0 0 0 1.1713-1.1713 1.1713 1.1713 0 0 0-1.1713-1.1713 1.1713 1.1713 0 0 0-1.1713 1.1713zm40.452 8.4957a1.1713 1.1713 0 0 0 1.1713 1.1713 1.1713 1.1713 0 0 0 1.1713-1.1713 1.1713 1.1713 0 0 0-1.1713-1.1713 1.1713 1.1713 0 0 0-1.1713 1.1713zm0.089-4.2739a1.1713 1.1713 0 0 0 1.1713 1.1713 1.1713 1.1713 0 0 0 1.1713-1.1713 1.1713 1.1713 0 0 0-1.1713-1.1713 1.1713 1.1713 0 0 0-1.1713 1.1713zm-6.6823 4.2193a1.1713 1.1713 0 0 0 1.1713 1.1713 1.1713 1.1713 0 0 0 1.1713-1.1713 1.1713 1.1713 0 0 0-1.1713-1.1713 1.1713 1.1713 0 0 0-1.1713 1.1713zm0.077-4.1649a1.1713 1.1713 0 0 0 1.1713 1.1713 1.1713 1.1713 0 0 0 1.1713-1.1713 1.1713 1.1713 0 0 0-1.1713-1.1713 1.1713 1.1713 0 0 0-1.1713 1.1713zm0-4.3577a1.1713 1.1713 0 0 0 1.1713 1.1713 1.1713 1.1713 0 0 0 1.1713-1.1713 1.1713 1.1713 0 0 0-1.1713-1.1713 1.1713 1.1713 0 0 0-1.1713 1.1713zm6.4453 0.0817a1.1713 1.1713 0 0 0 1.1713 1.1713 1.1713 1.1713 0 0 0 1.1713-1.1713 1.1713 1.1713 0 0 0-1.1713-1.1713 1.1713 1.1713 0 0 0-1.1713 1.1713zm82.7 8.1597a1.1713 1.1713 0 0 0 1.1713 1.1713 1.1713 1.1713 0 0 0 1.1713-1.1713 1.1713 1.1713 0 0 0-1.1713-1.1713 1.1713 1.1713 0 0 0-1.1713 1.1713zm0-4.0958a1.1713 1.1713 0 0 0 1.1713 1.1713 1.1713 1.1713 0 0 0 1.1713-1.1713 1.1713 1.1713 0 0 0-1.1713-1.1713 1.1713 1.1713 0 0 0-1.1713 1.1713zm0.089-4.2739a1.1713 1.1713 0 0 0 1.1713 1.1713 1.1713 1.1713 0 0 0 1.1713-1.1713 1.1713 1.1713 0 0 0-1.1713-1.1713 1.1713 1.1713 0 0 0-1.1713 1.1713zm-0.59132 8.5984h-79.096m79.083-2.062h-79.398m-9.5577 2.1717h-31.12m31.44-2.0935h-31.189m30.969-2.0894h-31.184m31.464-2.1842h-31.454m31.224-2.0935h-31.207m119.97 4.1955h-79.193m79.133-2.0894h-79.341m79.52-2.1842h-79.185m-41-6.8691a1.1713 1.1713 0 0 1-1.1713 1.1713 1.1713 1.1713 0 0 1-1.1713-1.1713 1.1713 1.1713 0 0 1 1.1713-1.1713 1.1713 1.1713 0 0 1 1.1713 1.1713zm0-4.0958a1.1713 1.1713 0 0 1-1.1713 1.1713 1.1713 1.1713 0 0 1-1.1713-1.1713 1.1713 1.1713 0 0 1 1.1713-1.1713 1.1713 1.1713 0 0 1 1.1713 1.1713zm-0.089-4.2739a1.1713 1.1713 0 0 1-1.1713 1.1713 1.1713 1.1713 0 0 1-1.1713-1.1713 1.1713 1.1713 0 0 1 1.1713-1.1713 1.1713 1.1713 0 0 1 1.1713 1.1713zm60.237-22.045-61.405-80.955m61.536 84.557-61.531-81.278m61.506 84.733-61.514-81.11m61.504 84.737-61.513-81.437m61.353 84.928-61.316-81.409m61.424 84.582-61.432-80.7m123.91-1.4505-62.262 82.053m62.212-85.109-62.378 81.796m62.484-85.2-62.492 81.954m62.351-85.511-62.258 81.971m62.279-86.129-62.345 82.575m62.453-85.748-62.461 82.106m-51.43-7.9631 0.17108-41.598m-2.265 46.71 0.27554-49.249m-2.2829 54.002 0.11622-56.9m-2.4902 61.606 0.47256-64.409m-2.4866 69.678 0.52087-72.347m-2.4218 77.334 0.32762-97.343m61.883 37.21-18.971 18.476m-8.3914 8.115-34.855 33.645m62.319-63.186-20.629 19.897m-8.0285 7.669-31.392 30.202m59.964-60.648-21.879 21.015m-7.8204 7.616-28.678 27.441m58.497-59.13-22.984 22.232m-8.1197 7.7813-24.884 23.963m55.888-57.132-24.137 23.757m-8.202 7.6995-21.516 21.04m53.801-55.046-25.6 24.712m-8.2034 7.9352-17.884 17.272m103.7-0.072-0.17108-42.044m2.265 47.156-0.27554-49.935m2.2829 54.688-0.11622-57.689m2.4902 62.395-0.47256-65.541m2.4866 70.81-0.42192-73.357m2.3229 78.345-0.32762-98.643m-122.19 112.51h79.096m-79.083-2.062h79.398m9.5577 2.1717h31.12m-31.44-2.0935h31.189m-30.969-2.0894h31.184m-31.464-2.1842h31.454m-31.224-2.0935h31.207m-119.97 4.1955h79.193m-79.133-2.0894h79.341m-79.52-2.1842h79.185m-18.93-65.513 18.653 17.889m7.7448 7.5922 35.941 34.694m-62.319-63.186 19.81 19.134m8.1067 7.7224 32.132 30.912m-59.964-60.647 21.133 20.295m7.8878 7.5802 29.357 28.197m-58.254-58.948 22.454 21.463m7.8303 7.5735 25.461 24.757m-55.888-57.132 23.874 23.094m7.9281 7.9724 22.053 21.429m-53.801-55.046 25.019 24.155m7.833 7.3722 18.836 18.392" stroke-linecap="round" stroke-linejoin="round" stroke-width=".87675"/>
   <g stroke-linejoin="round">
    <g stroke-width="1.0583">
     <path d="m-83.4-254.07 8.7381 8.7813h111.11l21.031 15.476 41.704-0.0546 1.2917 1.4068"/>
     <path d="m-80.489-254.07 6.9699 7.1899h111.11l21.031 15.476 41.704-0.0546 0.18103 0.17278"/>
     <path d="m-76.941-253.87 5.0091 5.406h111.11l21.031 15.476 41.704-0.0546 1.6207 1.448"/>
    </g>
    <g stroke-linecap="round">
     <g stroke-width="1.0583">
      <path d="m100.31-231.67 2.3825 2.162-0.39178 63.904"/>
      <path d="m103.24-231.86 1.4332 1.3902-0.0693 65.287"/>
      <path d="m106.85-231.11-0.32087 66.105"/>
      <path d="m109.2-231.09-6e-3 65.079 1.8183 2.3224"/>
     </g>
     <g stroke-width=".74136">
      <circle cx="-77.28" cy="-254.75" r=".99044"/>
      <circle cx="-80.667" cy="-254.76" r=".99044"/>
      <circle cx="-84.095" cy="-254.72" r=".99044"/>
     </g>
     <circle cx="86.364" cy="-94.558" r="1.1713" stroke-width=".87675"/>
    </g>
   </g>
   <g stroke-linecap="round">
    <g stroke-linejoin="bevel" stroke-width="1.0583">
     <path d="m-85.96-61.178 0.14154 6.3366 3.9393 3.9393v8.1103h-7.1834l-5.9233 3.4198-0.16119 7.7241m-0.53729 11.283-17.062 16.09 0.33811 35.894 14.102 13.467 14.805 0.25934 6.1497-5.7844 5.6902-0.0237 6.4726 5.761v11.551l13.553 13.553v6.839l-5.9684 5.9684v5.1542l5.5895 5.5895v18.046l5.3437 5.3437v6.2424l4.9891 4.9891h15.185l9.9096-9.9097v-8.9828l6.6313-6.6313v-15.151l6.5598-6.5598v-22.637l22.264-12.854v-17.369l-6.2982-0.30687m-0.68939-8.5172 13.066 0.11775 7.8786-7.8786v-11.586h-18.538l-4.1316-2.3854v-14.299h9.693v6.9517l4.171 4.171h11.586l5.0979 5.0979h8.8054v12.05l13.208 13.208v11.354h6.2565l6.67-11.553v-5.5946h4.4526l4.6344-4.6344v-8.342h10.196l5.3296 5.3296v8.1103l6.3724 6.3724v11.702l-7.9365 7.9365v4.5765l7.8185 4.514v7.0721l3.2452 3.2452h10.197l5.0974 5.0973h13.904l7.1831 7.1832h4.403l4.9822-4.9822h-8.6897l-5.7352-5.7352 2.5042-4.3373h6.0117l5.5651-5.5651v-6.0286l-8.1122-8.1122h-11.356l-8.6905 8.6905v4.5195h-3.8225l-4.4027-4.4027v-14.598l-6.6454-3.8367v-3.5784l1.1317-1.9601h7.1358l3.529 3.529h3.8861v-15.472l9.5006-9.5006h11.354l5.9089-5.9089v-10.08l-4.8082-4.8082h-6.662v-5.851l3.7076-3.7076h12.976m0.0749 0.0545 6.9865-3.6296v-5.2304l10.836-10.836h7.592l5.7046-5.7046v-6.1681l6.1634-3.5585v-6.6373l-13.614-3.6478v-6.548l4.5804-4.5804h20.801l4.4298-4.4298h10.4l4.7638-4.7638v-25.619l-5.8197-3.36h-6.8227l-4.9773-2.8736v-6.7428h-18.658l-3.335-5.7764h-5.9339l-3.2275 5.5901h-9.2855l-3.455-5.9843h-24.352l-14.757-14.757-13.519-13.986-3.2718-0.16733m-193.3 88.008v-10.29h-13.36v6.4882h7.4151v4.6345l-3.2441 3.2441h-6.0248l-3.7076 3.7076v9.2689h4.6344v-5.0979l3.4758-3.4758 7.0418 0.14154 4.1187-4.1187zm184.07-90.002h-10.659v6.0248l5.2282 3.0185h3.5773l4.0521 4.0521 2.3591 0.63211v7.1276l-4.9697 2.8692h-13.954l-2.8498 1.6454v6.608h-10.59l-4.8662 4.8662h-16.452l-4.982 4.982h-14.019l-8.9792 8.9792h-4.9241l-1.9088-3.3061 24.704-24.704h7.3288l3.7507-3.7507v-4.6776h-17.191l-17.147 17.147v7.4151l-5.5613 5.5614-1.2207 4.5557-3.3683 3.3683h-15.339l-8.5965-8.5964h-32.65l-4.7389 4.7389v7.0562l-20.571 20.571v5.3819l6.6302 6.6302v3.1021l-4.3317 4.3317h-8.0393l-7.6095 6.1198v4.8545m263.72 37.136-2.6277-5.6351 6.3456-0.16088 4.0092-4.0091v-5.4216l5.4216-5.4216h8.158l12.792-12.792v-13.344l5.0024-5.0024h4.7918l5.2882 3.0531v11.007l-22.593 22.593h-8.1103l-5.3296 5.3296v23.038h-6.2561l-3.6716-6.9846-3.2259-6.2743m-4.451 7.9903-4.3919 6.0269-4.1882-0.16088 0.11245-9.5551 5.2172-4.8116 3.2554 0.0536v8.345"/>
     <path d="m-37.326-101.31 0.16876 24.689-4.8662 4.8662h-8.5737l-3.1282-3.1282v-4.5186l7.1255-7.1254v-15.12c3.1389 0.41766 6.1231 0.0287 9.2739 0.33753z"/>
     <path d="m-95.725-20.473 5.749-0.12703 11.573 0.0537 6.7199-6.7199h5.3296v5.793h5.5613l6.4882 6.4882h31.514l11.354 11.354v6.7199l5.2138 5.2138v13.324l6.5461 6.5462h12.088"/>
     <path d="m11.806 19.628-3.7224-3.5623-7.0068-7.1834v-6.7199l-16.336-16.336v-9.6165h-6.1406l-2.6748-4.8891m-1.8822-3.4323-3.3216-6.0454h-7.8786l-2.9026 5.0275h-3.5856v-12.906l-5.0979-5.0979h-9.0977l2.6774 4.4027 5.1819 8.1103-9.34 8.0143-0.08092 0.32773-3.7076-3.7076 4.1377-7.1668-5.8868-9.4945-6.5951 6.7562-4.8856 4.8568-7.0319 7.408-11.474-0.0425"/>
     <path d="m11.041-50.206v22.245h6.0248l5.3296-5.3296v-9.0372l5.2138-5.2138v-6.8358h-13.324z"/>
     <path d="m6.3013 77.636h12.52v13.609l-7.13 4.1165v10.581h-6.4789v-28.306z"/>
     <path d="m133.68 94.511v17.964l8.0728 4.6608v10.581h15.334l4.0533-7.0206h6.2894l4.1287 7.1511h10.569l9.0926 15.749h6.1493l15.561-15.561v-28.081l-6.6916-6.6916h-6.1472l-4.5473-4.5473v-8.3578l-5.1169-2.9542h-25.174l-5.8319 5.8319h-9.41l-3.8497 6.6679h-8.6704z"/>
     <path d="m166.89 63.483h16.875l6.8044 6.8044h5.7157l7.757 7.757h4.7631l5.9198-5.9198v-7.5529h-11.363l-8.1653-8.1653h-16.331l-3.7812-6.5492h-6.5615l-6.1189 10.598v4.6606z"/>
     <path d="m106.52-165.09 25.815 25.815v19.128l5.2875 5.2875h43.078l3.2658 3.2658v22.239"/>
     <path d="m104.59-165.25 0.0697 1.3996 25.497 25.66v18.662l6.6094 6.6094h29.626l3.3047 3.3047h3.538"/>
     <path d="m104.54-164.02v2.5103l23.814 23.814v19.521l7.217 7.217h25.714l8.3152 8.3152h3.3112"/>
     <path d="m104.55-161.59v2.9281l22.034 22.034v20.424l38.834 38.834"/>
     <path d="m131.93-139.77 4.319 4.319v13.542l3.2575 3.2575h43.372l18.356 18.356v10.996"/>
     <path d="m134.12-137.43v16.544l4.1725 4.1725h43.702l10.212 10.212v16.946"/>
     <path d="m124.45-138.37v28.088l33.377 33.377v15.138"/>
     <path d="m122.81-140.2v31.735l8.481 8.481v31.462"/>
     <path d="m121.16-142.02v44.476"/>
     <path d="m120.98-135.45h-29.547"/>
     <path d="m91.253-135.27-18.786 18.786v16.962l-8.481 8.481"/>
     <path d="m120.98-133.63h-28.817l-17.6 17.6v17.236l-8.6178 8.6178v7.2499"/>
     <path d="m120.98-131.81h-27.723l-16.78 16.78v24.44l4.6509 4.6509h3.3742"/>
     <path d="m106.76-131.76v1.413h-12.767l-15.959 15.959v3.5566l2.143 2.143v16.46l2.5306 2.5306h1.8011"/>
     <path d="m108.57-131.63v3.0182h-13.654l-15.019 15.019v2.084l1.7965 1.7965v13.869l1.4013 1.4013h1.6887"/>
     <path d="m121.07-97.713-51.812 51.812 0.22781 32.738-10.799 8.0176"/>
     <path d="m131.27-69.12v66.912l-15.33 15.33-8.6393-8.6393"/>
     <path d="m131.27-42.017-40.655 40.655h-30.83"/>
     <path d="m131.1-44.049-40.655 40.655h-30.83"/>
     <path d="m120.93-108.08h-7.9617l-58.188 58.188h-15.001v16.023"/>
    </g>
    <circle cx="65.913" cy="-81.641" r="1.1713" stroke-linejoin="round" stroke-width=".87675"/>
    <path d="m78.414-122.35h-20.201l-11.053 11.053v55.647l-3.642 3.642h-8.4699v6.6321" stroke-linejoin="bevel" stroke-width="1.0583"/>
    <circle cx="35.075" cy="-43.866" r="1.1713" stroke-linejoin="round" stroke-width=".87675"/>
    <g stroke-linejoin="bevel" stroke-width="1.0583">
     <path d="m120.93-99.612-51.497 51.497h-17.49l-5.1108 4.13v22.087"/>
     <path d="m46.932-85.057h-2.0252l-14.851-14.851v-9.9572h-72.907"/>
     <path d="m46.932-83.37h-2.5315l-15.78-15.78v-8.6914h-49.364l-3.2909 3.2909"/>
     <path d="m47.269-81.682h-4.0504l-15.864-15.864h-46.034"/>
     <path d="m46.638-76.383h-7.3438l-5.92 5.92h-47.735l-19.371 19.371v5.8825"/>
     <path d="m46.868-74.501h-6.4353l-6.2566 6.2566h-35.394l-6.8822 6.8822"/>
     <path d="m46.689-72.541h-5.899l-6.0778 6.0778h-19.127l-11.887 11.887v46.924"/>
     <path d="m46.746-70.786h-4.9441l-6.4822 6.4822h-13.624v3.6256"/>
    </g>
   </g>
   <g stroke-linecap="round">
    <g stroke-linejoin="round">
     <g stroke-width=".87675">
      <circle cx="86.272" cy="-89.851" r="1.1713"/>
      <circle cx="86.272" cy="-85.91" r="1.1713"/>
      <circle cx="62.957" cy="-90.07" r="1.1713"/>
      <circle cx="-24.908" cy="-103.62" r="1.1713"/>
      <circle cx="-20.178" cy="-97.472" r="1.1713"/>
      <circle cx="-44.22" cy="-109.93" r="1.1713"/>
      <circle cx="-33.677" cy="-43.96" r="1.1713"/>
      <circle cx="-9.1545" cy="-60.23" r="1.1713"/>
      <circle cx="21.729" cy="-59.366" r="1.1713"/>
      <circle cx="174.55" cy="-109.68" r="1.1713"/>
      <circle cx="174.64" cy="-102.77" r="1.1713"/>
      <circle cx="3.6316" cy="-5.9995" r="1.1713"/>
     </g>
     <circle cx="55.557" cy="-2.2402" r="3.6614" stroke-width="1.0583"/>
     <circle cx="55.541" cy="-2.2599" r="1.8426" stroke-width="1.0583"/>
     <g stroke-width=".87675">
      <circle cx="39.808" cy="-32.107" r="1.1713"/>
      <circle cx="46.862" cy="-20.227" r="1.1713"/>
      <circle cx="157.91" cy="-59.987" r="1.1713"/>
      <circle cx="166.48" cy="-76.322" r="1.1713"/>
      <circle cx="183.9" cy="-87.738" r="1.1713"/>
      <circle cx="192.28" cy="-87.799" r="1.1713"/>
      <circle cx="201.15" cy="-87.799" r="1.1713"/>
     </g>
    </g>
    <rect transform="rotate(-45)" x="82.796" y="30.707" width="45.599" height="14.039" stroke-linejoin="bevel" stroke-width="1.0583"/>
    <path d="m117.15-64.54 14.008-14.008" stroke-linejoin="bevel" stroke-width="1.0583"/>
    <circle cx="106.27" cy="3.399" r="1.1713" stroke-linejoin="round" stroke-width=".87675"/>
    <path d="m131.29-25.274 8.3517-8.3517" stroke-linejoin="bevel" stroke-width="1.0583"/>
    <circle cx="141.01" cy="-35" r="1.1713" stroke-linejoin="round" stroke-width=".87675"/>
    <g stroke-linejoin="bevel" stroke-width="1.0583">
     <path d="m-25.882-32.164 6.5695-4.0052v-9.3099l3.1995-3.1995h12.278v8.1769l-20.248 11.809"/>
     <path d="m46.943-80.302h-5.3132l-15.408-15.408h-42.506l-4.1398 2.3901"/>
     <path d="m46.943-78.443h-6.6415l-15.143-15.143h-38.786v20.987h45.428v-11.158l-7.837-7.837h-35.731v16.604h39.583v-5.3132"/>
    </g>
    <circle cx="-29.036" cy="-43.905" r="1.1713" stroke-linejoin="round" stroke-width=".87675"/>
    <circle cx="-24.257" cy="-43.897" r="1.1713" stroke-linejoin="round" stroke-width=".87675"/>
    <g stroke-linejoin="bevel" stroke-width="1.0583">
     <path d="m-29.041-45.203v-4.6732l20.058-20.058"/>
     <path d="m-24.237-45.235v-3.2678l2.941-2.941h24.727"/>
     <path d="m12.726-68.037-13.217 13.217h-16.049"/>
    </g>
    <circle cx="-18.137" cy="-54.893" r="1.1713" stroke-linejoin="round" stroke-width=".87675"/>
    <g stroke-linejoin="bevel" stroke-width="1.0583">
     <path d="m-17.629-56.128 13.979-13.979"/>
     <path d="m-87.947-36.215h0.66139l4.4548-4.4548h-5.3772l-4.4868 2.5904v4.4696h6.4733l29.746-29.746h14.334v-5.3944h-16.8l-16.8 16.8v4.1614"/>
     <path d="m-78.978-43.936 21.578-21.578h13.563v-3.0825"/>
     <path d="m-77.591-46.094v-6.6274l17.724-17.724h45.159"/>
     <path d="m-74.046-48.955v-2.1578l15.721-15.721h13.871"/>
    </g>
    <circle cx="-82.119" cy="-58.75" r="1.1713" stroke-linejoin="round" stroke-width=".87675"/>
    <circle transform="scale(1,-1)" cx="-89.345" cy="36.289" r="1.1713" stroke-linejoin="round" stroke-width=".87675"/>
    <g stroke-linejoin="bevel">
     <g stroke-width="1.0583">
      <path d="m-79.44-41.47v-12.176l21.115-21.115"/>
      <path d="m-62.949-70.908-1.5412-1.5412-8.5539 8.5539h-8.8622"/>
      <path d="m-82.197-63.953v3.68"/>
      <path d="m-76.16 35.683 1.8762 1.8762h4.1103l6.7003 6.7003v12.24l1.7698 1.7698v-4.7025l1.8456-1.8456v8.1157l1.3779 1.3779v-11.39l1.9531-1.9531v15.606h1.5486v-15.675h1.6181v15.574h1.9215v-15.473h1.9215v15.372h1.7192v-15.372h1.6181v15.473h2.1237v-15.473h1.4158v15.574h1.5169v-15.675h2.0226v15.776h1.5169v-15.877h1.3147v15.877h1.9215v-15.675h1.8203v15.675h1.7192l-0.06847-14.93 1.6865 1.6865v11.423l1.6686-1.6686v-8.2421l1.7951 1.7951v4.475l2.9457-3.3116-8.3865-8.3865h-27.77l-0.77632 0.82456"/>
      <path d="m175.4-44.261-1.9088 1.9088v-4.475l-1.795-1.7951v8.2421l-1.6686 1.6686v-11.731l-1.6181-1.6181v15.169h-1.7192v-15.675h-1.8203v15.675h-1.9215v-15.877h-1.3147v15.877h-1.517v-15.776h-2.0226v15.675h-1.517v-15.574h-1.4158v15.473h-2.1237v-15.473h-1.6181v15.372h-1.7192v-15.372h-1.9215v15.473h-1.9215v-15.574h-1.6181v15.675h-1.5486v-15.606l-1.9531 1.9531v11.39l-1.3779-1.3779v-8.1157l-1.8456 1.8456v4.7025l-1.7698-1.7698v-26.838l-1.3546-1.135"/>
      <path d="m201.15 95.625-1.7698 1.7698h4.7025l1.8456 1.8456h-8.1157l-1.3779 1.3779h11.39l1.9531 1.9531h-15.606v1.5486h15.675v1.6181h-15.574v1.9215h15.473v1.9215h-15.372v1.7192h15.372v1.6181h-15.473v2.1237h15.473v1.4158h-15.574v1.517h15.675v2.0226h-15.776v1.517h15.877v1.3147h-15.877v1.9215h15.675v1.8203h-15.675v1.7192h15.169l-1.6181 1.6181h-11.731l1.6686 1.6686h8.2421l-1.7951 1.7951h-4.475l1.9088 1.9088"/>
      <path d="m152.7-73.901v1.5555h1.0061v8.7376h-1.1356v1.4833h-1.6919v-1.576h-0.92708v-8.5754h0.74166v-1.6224z"/>
      <path d="m93.914 464.21v1.5555h1.0061v8.7376h-1.1356v1.4833h-1.6919v-1.576h-0.92708v-8.5754h0.74166v-1.6224z"/>
      <path d="m105.53 401.97h1.5555v-1.0061h8.7376v1.1356h1.4833v1.6919h-1.576v0.92708h-8.5754v-0.74166h-1.6224z"/>
      <path d="m78.546 182.87h1.5555v-1.0061h8.7376v1.1356h1.4833v1.6919h-1.576v0.92708h-8.5754v-0.74166h-1.6224z"/>
      <path d="m91.335 305.08h1.5555v-1.0061h8.7376v1.1356h1.4833v1.6919h-1.576v0.92708h-8.5754v-0.74166h-1.6224z"/>
      <path d="m9.7543 344.32h1.5555v-1.0061h8.7376v1.1356h1.4833v1.6919h-1.576v0.92708h-8.5754v-0.74166h-1.6224z"/>
     </g>
     <g stroke-width="1.058">
      <path d="m48.685 222.08v-1.5555h-1.0061v-8.7376h1.1356v-1.4833h1.6919v1.576h0.92708v8.5754h-0.74166v1.6224z"/>
      <path d="m97.299 201.66h1.5555v-1.0061h8.7376v1.1356h1.4833v1.6919h-1.576v0.92708h-8.5754v-0.74166h-1.6224z"/>
      <path d="m34.545 294.52h1.5555v-1.0061h8.7376v1.1356h1.4833v1.6919h-1.576v0.92708h-8.5754v-0.74166h-1.6224z"/>
      <path d="m-69.572 247.8h1.5555v-1.0061h8.7376v1.1356h1.4833v1.6919h-1.576v0.92708h-8.5754v-0.74166h-1.6224z"/>
     </g>
     <g stroke-width="1.0583">
      <path d="m189.48 109.98-0.77777 1.3471 0.87128 0.50303-4.3688 7.567-0.9835-0.56782-0.74165 1.2846-1.4652-0.84595 0.788-1.3649-0.80287-0.46354 4.2877-7.4265 0.64229 0.37083 0.81118-1.405z"/>
      <path d="m-68.247-85.888-1.7375 1.7375 10.425 10.425 4.376-4.376v-2.2523l6.9179-6.9179v-14.833l7.7062-7.7062"/>
      <path d="m-60.413-83.37 1.0999-1.0999-0.71139-0.71139 6.1784-6.1784 0.80303 0.80303 1.0489-1.0488 1.1964 1.1964-1.1144 1.1144 0.65554 0.65554-6.0637 6.0637-0.52443-0.52443-1.1472 1.1472z"/>
      <path d="m-59.881-82.413-3.8612 3.8611"/>
      <path d="m-54.733-99.273 9.7172-9.7173"/>
      <path d="m178.4 200.61-8.3009 0.0477v-1.6697h8.7302v-1.6697h-8.6825v-1.7174h8.6825v-1.7174h-8.6825v-1.8128h8.6825v-1.622h-8.6825v-1.6697h8.6825v-1.7174h-8.6825v-1.7174h8.6825m-0.11927 28.838h-8.7302v-1.6697h8.7302v-1.6697h-8.6825v-1.7174h8.6825v-1.7174h-8.6825v-1.8128h8.6825v-1.622h-8.6825v-1.6697h8.6825v-1.7174h-8.6825v-1.7174h8.6825"/>
      <path d="m34.366 304.64-0.0477 8.3009h1.6697v-8.7302h1.6697v8.6825h1.7174v-8.6825h1.7174v8.6825h1.8128v-8.6825h1.622v8.6825h1.6697v-8.6825h1.7174v8.6825h1.7174v-8.6825m-28.838 0.11927v8.7302h1.6697v-8.7302h1.6697v8.6825h1.7174v-8.6825h1.7174v8.6825h1.8128v-8.6825h1.622v8.6825h1.6697v-8.6825h1.7174v8.6825h1.7174v-8.6825"/>
      <path d="m116.06-36.314-5.9033-5.8359 1.1807-1.1807 6.1732 6.1732 1.1807-1.1807-6.1395-6.1395 1.2144-1.2144 6.1395 6.1395 1.2144-1.2144-6.1395-6.1395 1.2819-1.2819 6.1395 6.1395 1.1469-1.1469-6.1395-6.1395 1.1807-1.1807 6.1395 6.1395 1.2144-1.2144-6.1395-6.1395 1.2144-1.2144 6.1395 6.1395 4.0467-4.0467m-13.695 13.526-6.1395-6.1395-1.2144 1.2144 6.1395 6.1395-1.2144 1.2144-6.1395-6.1395-1.1807 1.1807 6.1395 6.1395-1.1469 1.1469-6.1395-6.1395-1.2819 1.2819 6.1395 6.1395-1.2144 1.2144-6.1395-6.1395-1.2144 1.2144 6.1395 6.1395-1.1807 1.1807-6.1732-6.1732-1.1807 1.1807 6.1732 6.1732-10.182 10.182-26.994-26.994"/>
     </g>
    </g>
   </g>
  </g>
  <g transform="translate(157.34 66.107)" fill="none" stroke="#000" stroke-linecap="round">
   <g transform="translate(433.67 -63.856)" stroke-linejoin="bevel" stroke-width="1.0583">
    <path d="m-511.61 405.68v2.1824l0.83939 0.83939v4.197h1.343"/>
    <path d="m-514.29 405.76v1.9306l1.7627 1.7627v8.4779h3.2736"/>
    <path d="m-515.97 405.51v3.1897l1.6368 1.6368v10.954l1.7837 1.7837h3.1267"/>
    <path d="m-517.82 405.51v22.664l4.9944 4.9944h3.3156"/>
    <path d="m-509.59 428.17h-2.9379l-3.4415-3.4415v-13.682l-1.7208-1.7208"/>
    <path d="m-511.59 405.36h-6.1552"/>
   </g>
   <g stroke-linejoin="round" stroke-width=".87675">
    <circle transform="scale(1,-1)" cx="-74.472" cy="-369.28" r="1.1713"/>
    <circle transform="scale(1,-1)" cx="-74.472" cy="-359.52" r="1.1713"/>
    <circle transform="scale(1,-1)" cx="-74.729" cy="-364.14" r="1.1713"/>
    <circle transform="scale(1,-1)" cx="-74.472" cy="-354.13" r="1.1713"/>
    <circle transform="scale(1,-1)" cx="-74.472" cy="-349.25" r="1.1713"/>
   </g>
  </g>
  <g transform="rotate(-90 -76.029 253.59)" fill="none" stroke="#000" stroke-linecap="round">
   <g transform="translate(433.67 -63.856)" stroke-linejoin="bevel" stroke-width="1.0583">
    <path d="m-511.61 405.68v2.1824l0.83939 0.83939v4.445h1.467"/>
    <path d="m-514.29 405.76v1.9306l1.7627 1.7627v8.4779h14.063l2.9865-2.9865"/>
    <path d="m-515.97 405.51v3.1897l1.6368 1.6368v10.954l1.7837 1.7837h10.568"/>
    <path d="m-517.82 405.51v22.664l4.9944 4.9944h3.3156"/>
    <path d="m-501.9 428.17h-10.627l-3.4415-3.4415v-13.682l-1.7208-1.7208"/>
    <path d="m-511.59 405.36h-6.1552"/>
   </g>
   <g stroke-linejoin="round" stroke-width=".87675">
    <circle transform="scale(1,-1)" cx="-74.472" cy="-369.28" r="1.1713"/>
    <circle transform="scale(1,-1)" cx="-66.658" cy="-359.27" r="1.1713"/>
    <circle transform="scale(1,-1)" cx="-66.543" cy="-364.26" r="1.1713"/>
    <circle transform="scale(1,-1)" cx="-60.705" cy="-349.91" r="1.1713"/>
    <circle transform="scale(1,-1)" cx="-74.472" cy="-349.25" r="1.1713"/>
   </g>
  </g>
  <g transform="translate(.78621 -105.29)" fill="none" stroke="#000" stroke-linecap="round">
   <g transform="translate(433.67 -63.856)" stroke-linejoin="bevel" stroke-width="1.0583">
    <path d="m-511.61 405.68v2.1824l0.83939 0.83939v4.197h1.343"/>
    <path d="m-514.29 405.76v1.9306l1.7627 1.7627v8.4779h8.1907"/>
    <path d="m-515.97 405.51v3.1897l1.6368 1.6368v10.954l1.7837 1.7837h3.1267"/>
    <path d="m-517.82 405.51v22.664l4.9944 4.9944h3.3156"/>
    <path d="m-509.59 428.17h-2.9379l-3.4415-3.4415v-13.682l-1.7208-1.7208"/>
    <path d="m-511.59 405.36h-6.1552"/>
   </g>
   <g stroke-linejoin="round" stroke-width=".87675">
    <circle transform="scale(1,-1)" cx="-74.472" cy="-369.28" r="1.1713"/>
    <circle transform="scale(1,-1)" cx="-74.472" cy="-359.52" r="1.1713"/>
    <circle transform="scale(1,-1)" cx="-74.729" cy="-364.14" r="1.1713"/>
    <circle transform="scale(1,-1)" cx="-74.472" cy="-349.25" r="1.1713"/>
   </g>
  </g>
  <g transform="rotate(90 182.86 178.5)" fill="none" stroke="#000" stroke-linecap="round">
   <g transform="translate(433.67 -63.856)" stroke-linejoin="bevel" stroke-width="1.0583">
    <path d="m-511.61 405.68v2.1824l0.83939 0.83939v4.197h1.343"/>
    <path d="m-514.29 405.76v1.9306l1.7627 1.7627v8.4779h3.2736"/>
    <path d="m-515.97 405.51v3.1897l1.6368 1.6368v10.954l1.7837 1.7837h3.1267"/>
    <path d="m-517.82 405.51v22.664l4.9944 4.9944h3.3156"/>
    <path d="m-509.59 428.17h-2.9379l-3.4415-3.4415v-13.682l-1.7208-1.7208"/>
    <path d="m-511.59 405.36h-6.1552"/>
   </g>
   <g stroke-linejoin="round" stroke-width=".87675">
    <circle transform="scale(1,-1)" cx="-74.472" cy="-369.28" r="1.1713"/>
    <circle transform="scale(1,-1)" cx="-74.472" cy="-359.52" r="1.1713"/>
    <circle transform="scale(1,-1)" cx="-74.729" cy="-364.14" r="1.1713"/>
    <circle transform="scale(1,-1)" cx="-74.472" cy="-354.13" r="1.1713"/>
    <circle transform="scale(1,-1)" cx="-74.472" cy="-349.25" r="1.1713"/>
   </g>
  </g>
  <path d="m27.797-80.613-7.8086-7.8086" fill="none" stroke="#000" stroke-linecap="round" stroke-linejoin="bevel" stroke-width="1.0583"/>
  <g transform="rotate(225 -89.352 135.47)">
   <path d="m-79.205 347.39a1.1713 1.1713 0 0 0-1.6565 0 1.1713 1.1713 0 0 0-3e-6 1.6565 1.1713 1.1713 0 0 0 1.6565 0 1.1713 1.1713 0 0 0-4e-6 -1.6565zm3.4501 3.4501a1.1713 1.1713 0 0 0-1.6565 0 1.1713 1.1713 0 0 0-2e-6 1.6565 1.1713 1.1713 0 0 0 1.6565 0 1.1713 1.1713 0 0 0-4e-6 -1.6565zm6.9002 7.2634a1.1713 1.1713 0 0 0-1.6565 1e-5 1.1713 1.1713 0 0 0-3e-6 1.6565 1.1713 1.1713 0 0 0 1.6565 0 1.1713 1.1713 0 0 0 3e-6 -1.6565zm-3.0869-3.4501a1.1713 1.1713 0 0 0-1.6565-1e-5 1.1713 1.1713 0 0 0 5e-6 1.6565 1.1713 1.1713 0 0 0 1.6565 0 1.1713 1.1713 0 0 0 2e-6 -1.6565zm6.9002 6.9002a1.1713 1.1713 0 0 0-1.6565-1e-5 1.1713 1.1713 0 0 0 4e-6 1.6565 1.1713 1.1713 0 0 0 1.6565-1e-5 1.1713 1.1713 0 0 0 3e-6 -1.6565zm-22.896-16.375-4.3524 4.3524m21.889 10.368-2.0774 2.0774-4.867-2e-5 -9.6747-9.6747-2.4335 1e-5m-2.7896-2.6116 16.026 16.026h7.0631l2.3445-2.3445m-24.127-14.987 2.2554 2.2554 2.3148 2e-5 7.7457 7.7457 2.5225-1e-5 2.2109-2.2109m-15.684-8.7992 1.3652 1.3652 2.4928-1e-5 5.9948 5.9948 2.3148-2.3148m-10.328-7.0038 1.5432 1.5432h1.1871l2.9677 2.9677 0.94966-0.94965" fill="none" stroke="#000" stroke-linecap="round" stroke-linejoin="round" stroke-width=".87675"/>
  </g>
  <g transform="translate(-135.83 -504.02)">
   <path d="m190.41 432.32a1.1713 1.1713 0 0 0 0 1.6565 1.1713 1.1713 0 0 0 1.6565 0 1.1713 1.1713 0 0 0 1e-5 -1.6565 1.1713 1.1713 0 0 0-1.6565 0zm3.4501-3.4501a1.1713 1.1713 0 0 0 0 1.6565 1.1713 1.1713 0 0 0 1.6565 0 1.1713 1.1713 0 0 0 1e-5 -1.6565 1.1713 1.1713 0 0 0-1.6565 0zm7.2634-6.9002a1.1713 1.1713 0 0 0 0 1.6565 1.1713 1.1713 0 0 0 1.6565 0 1.1713 1.1713 0 0 0 0-1.6565 1.1713 1.1713 0 0 0-1.6565-1e-5zm-3.4501 3.0869a1.1713 1.1713 0 0 0 0 1.6565 1.1713 1.1713 0 0 0 1.6565-1e-5 1.1713 1.1713 0 0 0 0-1.6565 1.1713 1.1713 0 0 0-1.6565 0zm6.9002-6.9002a1.1713 1.1713 0 0 0-1e-5 1.6565 1.1713 1.1713 0 0 0 1.6565-1e-5 1.1713 1.1713 0 0 0 0-1.6565 1.1713 1.1713 0 0 0-1.6565-1e-5zm-16.375 22.896 4.3524 4.3524m10.368-21.889 2.0774 2.0774-2e-5 4.867-9.6747 9.6747 1e-5 2.4335m-2.6116 2.7896 16.026-16.026v-7.0631l-2.3445-2.3445m-14.987 24.127 2.2554-2.2554 3e-5 -2.3148 7.7457-7.7457-1e-5 -2.5225-2.2109-2.2109m-8.7992 15.684 1.3652-1.3652-1e-5 -2.4928 5.9948-5.9948-2.3148-2.3148m-7.0038 10.328 1.5432-1.5432v-1.1871l2.9677-2.9677-0.94966-0.94965" fill="none" stroke="#000" stroke-linecap="round" stroke-linejoin="round" stroke-width=".87675"/>
  </g>
  <g transform="translate(34.016 -253.18)" fill="none" stroke="#000" stroke-linecap="round">
   <g transform="translate(433.67 -63.856)" stroke-linejoin="bevel" stroke-width="1.0583">
    <path d="m-511.61 405.68v2.1824l0.83939 0.83939v4.197h1.343"/>
    <path d="m-514.29 405.76v1.9306l1.7627 1.7627v8.4779h3.2736"/>
    <path d="m-515.97 405.51v3.1897l1.6368 1.6368v10.954l1.7837 1.7837h3.1267"/>
    <path d="m-517.82 405.51v22.664l4.9944 4.9944h3.3156"/>
    <path d="m-509.59 428.17h-2.9379l-3.4415-3.4415v-13.682l-1.7208-1.7208"/>
    <path d="m-511.59 405.36h-6.1552"/>
   </g>
   <g stroke-linejoin="round" stroke-width=".87675">
    <circle transform="scale(1,-1)" cx="-74.472" cy="-369.28" r="1.1713"/>
    <circle transform="scale(1,-1)" cx="-74.472" cy="-359.52" r="1.1713"/>
    <circle transform="scale(1,-1)" cx="-74.729" cy="-364.14" r="1.1713"/>
    <circle transform="scale(1,-1)" cx="-74.472" cy="-354.13" r="1.1713"/>
    <circle transform="scale(1,-1)" cx="-74.472" cy="-349.25" r="1.1713"/>
    <circle transform="scale(1,-1)" cx="-77.055" cy="-335.98" r="1.1713"/>
   </g>
  </g>
  <g fill="none" stroke="#000" stroke-linecap="round">
   <g stroke-linejoin="bevel" stroke-width="1.058">
    <path d="m44.575-12.764h1.5555v-1.0061h8.7376v1.1356h1.4833v1.6919h-1.576v0.92708h-8.5754v-0.74166h-1.6224z"/>
    <path d="m56.481-11.721h10.746"/>
    <path d="m60.607-14.042v2.2352h1.5475v-2.0633"/>
   </g>
   <g stroke-linejoin="bevel" stroke-width="1.058">
    <path d="m-110.69 0.21711 0.0761 30.674 12.917 12.648m-9.1578-43.284-0.24096 29.431 9.3305 8.755h2.8857m-10.192-38.1-0.14457 28.718 7.36 6.8224h7.7505m-18.628-35.886-0.14456 30.316 11.253 10.85h8.0257"/>
    <path d="m-12.876-32.982-0.19275 17.56 5.9275 5.9275m-4.048-24.669-0.14456 18.164 5.2046 5.2046m-3.1806-24.448-0.24096 18.617 4.6263 4.7227m-2.6023-24.323-0.14458 18.974 3.9998 3.9998"/>
    <path d="m-7.2145-9.5549 10.89 10.814"/>
    <path d="m-6.2525-10.928 9.8019 9.5349"/>
    <path d="m-4.889-11.87 5.8915 5.8914"/>
    <path d="m1.2122-5.9591h1.1058"/>
    <path d="m-3.5807-13.168 6.3232 6.2928"/>
    <path d="m3.34-42.538-24.691 14.255 1.397 2.4197h3.7594v-1.0168"/>
   </g>
   <circle cx="-16.116" cy="-28.369" r="1.1713" stroke-linejoin="round" stroke-width=".87675"/>
   <g stroke-linejoin="bevel">
    <g stroke-width="1.058">
     <path d="m136.03 3.9493-10.859 10.859v13.448l-3.8967-3.8967h-8.3412l-4.1636 7.2115m14.089-19.367 18.197-18.69v-14.888l5.692-5.692h12.606l4.2509-2.4542v-2.2242m-45.303 51.041 19.448-19.571h3.4563"/>
     <path d="m-35.032-108.99v37.82m1.6843 0.31303v-38.133m1.6843 0.0991v37.828m1.7339-37.728v37.901"/>
     <path d="m74.612-38.395 56.508-56.862m-2.4396 0.12446-54.995 55.415m-1.1209-1.2611 53.596-54.226m-54.752 52.93 52.372-52.897"/>
     <path d="m123.85-95.384h7.0504"/>
    </g>
    <path d="m-12.54 41.746v-8.7302h1.6697v8.7302h1.6697v-8.6825h1.7174v8.6825h1.7174v-8.6825h1.8128v8.6825h1.622v-8.6825h1.6697v8.6825h1.7174v-8.6825h1.7174v8.6825m-1.7413-0.31009-0.0477-8.3009h1.6697v8.7302h1.6697v-8.6825h1.7174v8.6825h1.7174v-8.6825h1.8128v8.6825h1.622v-8.6825h1.6697v8.6825h1.7174v-8.6825h1.7174v11.91l-21.251 12.27v23.223l-6.3455 6.3455v14.934l-7.2571 7.2571v8.7461l-8.6833 8.6833h-13.574l-3.8229-3.8229v-2.328h2.5823" stroke-width="1.0583"/>
   </g>
   <circle transform="scale(1,-1)" cx="-40.55" cy="-120.54" r="1.1713" stroke-linejoin="round" stroke-width=".87675"/>
   <path d="m-17.634-6.3851v114.11m1.6843-1.3906-1e-5 -110.43m1.6844 1.5267v107.21m0.16824-17.988 1.5656-1.5656 1e-5 -77.843 4.1805 4.1805v11.382l7.4928 7.4928h17.121v4.5423" stroke-linejoin="bevel" stroke-width="1.058"/>
  </g>
  <g transform="translate(-19.053 -336.13)" fill="none" stroke="#000" stroke-linecap="round">
   <g transform="translate(433.67 -63.856)" stroke-linejoin="bevel" stroke-width="1.0583">
    <path d="m-512.66 402.71v4.0349l1.8891 1.9509v4.197h1.343"/>
    <path d="m-514.29 405.76v1.9306l1.7627 1.7627v8.4779h3.2736"/>
    <path d="m-515.97 405.51v3.1897l1.6368 1.6368v10.954l1.7837 1.7837h3.1267"/>
    <path d="m-517.82 405.51v22.664l4.9944 4.9944h3.3156"/>
    <path d="m-509.59 428.17h-2.9379l-3.4415-3.4415v-13.682l-1.7208-1.7208"/>
   </g>
   <g stroke-linejoin="round" stroke-width=".87675">
    <circle transform="scale(1,-1)" cx="-74.472" cy="-369.28" r="1.1713"/>
    <circle transform="scale(1,-1)" cx="-74.472" cy="-359.52" r="1.1713"/>
    <circle transform="scale(1,-1)" cx="-74.729" cy="-364.14" r="1.1713"/>
    <circle transform="scale(1,-1)" cx="-74.472" cy="-354.13" r="1.1713"/>
    <circle transform="scale(1,-1)" cx="-74.472" cy="-349.25" r="1.1713"/>
    <circle transform="scale(1,-1)" cx="-90.711" cy="-335.38" r="1.1713"/>
    <circle transform="scale(1,-1)" cx="-73.144" cy="-318.57" r="1.1713"/>
    <circle transform="scale(1,-1)" cx="-74.359" cy="-374.41" r="1.1713"/>
    <circle transform="scale(1,-1)" cx="-69.757" cy="-372.03" r="1.1713"/>
    <circle transform="scale(1,-1)" cx="-41.741" cy="-384.52" r="1.1713"/>
   </g>
  </g>
  <g fill="none" stroke="#000" stroke-linecap="round">
   <g stroke-linejoin="bevel" stroke-width="1.058">
    <path d="m-106.85 0.1291-1.789-1e-5"/>
    <path d="m-94.204-15.331 1.2639-1.1896"/>
    <path d="m-97.736 43.56 13.787 0.0878"/>
    <path d="m114 470.74-12.917-12.648-0.0761-20.314-3.7861-3.7861h-7.3422l-3.7655-3.7655h-2.0812m18.786 11.833 0.14456-5.7333-4.7561-4.7561h-7.5071l-3.8369-3.8369v-2.1957h-2.5227m35.028 45.028h6.8217l1.7428-1.7428v-3.2814l5.7446-5.7446v-5.3333l1.026-1.026"/>
    <path d="m13.462 316.25 30.674 0.0761 7.8305 7.719h2.5056m-15.396 44.595v-21.552l4.5533-4.5533h12.302l1.6935-1.6935-4e-3 -3.7075-15.316-15.41-31.102 0.14458-2.0187-2.0187h-3.1027m59.383 22.4-22.533-22.405-30.623 0.24096-5.2557-5.2557h-1.17m63.962 13.415-1.576-1.6557h-16.206l-8.5044-8.5273-30.316 0.14456-3.9632-3.9632v-3.0107l-1.4248-1.4248h-1.6234"/>
   </g>
   <circle transform="scale(1,-1)" cx="70.818" cy="-329.69" r="1.1713" stroke-linejoin="round" stroke-width=".87675"/>
   <path d="m172.29 80.585-0.14458 30.984 5.301 8.7441m-10.775-37.587 0.0761 30.674 7.0482 12.243h9.1594l9.3389 16.175h3.8066l5.9197-5.9197-0.72919-0.72919m-32.664-52.664-0.14456 30.316 6.6317 10.941h9.0028l8.9049 15.424h2.0763v-2.2855m-18.888-14.944-5.9447-9.7616 0.24097-31.602 1.7582-1.7582h17.335l4.1335 2.3865v16.175l-4.9455 4.9455v6.7971" stroke-linejoin="bevel" stroke-width="1.058"/>
   <circle cx="167.61" cy="79.841" r="1.1713" stroke-linejoin="round" stroke-width=".87675"/>
   <g stroke-linejoin="bevel">
    <path d="m-19.274 31.873-58.223-0.14456-10.85 11.253m-2.3764-0.0711 12.648-12.917 57.211-0.0761 1.6666-1.6666v-37.526l-2.37-2.37v7.9205l-1.486 1.7096-25.103 0.13413-1.8965 1.8951v24.241l-2.247 1.6978m-31.179 17.211 7.2351-7.7727 55.319 0.14458 3.2314 2.7524m-67.932 4.5541 8.755-9.3306 57.605 0.24096-8e-3 -1.8794" stroke-width="1.058"/>
    <path d="m-38.786-4.1537-0.0477-8.3009h1.6697v8.7302h1.6697v-8.6825h1.7174v8.6825h1.7174v-8.6825h1.8128v8.6825h1.622v-8.6825h1.6697v8.6825h1.7174v-8.6825h1.7174v10.113m-28.838 27.876v-38.156h1.6697v8.7302h1.6697v-8.6825h1.7174v8.6825h1.7174v-8.6825h1.8128v8.6825h1.622v-8.6825h1.6697v8.6825h1.7174v-8.6825h1.7174v8.6825" stroke-width="1.0583"/>
    <path d="m-21.838 72.811-20.891-0.14456-10.85 11.121m-9.0327-44.603 1.594-1.4643h38.742l2.15 2.15v28.954l-1.8993 1.8993-21.283 0.0761-12.742 13.011 2.5179-0.0704m5.0445-0.0891-2.3704-3e-3 8.755-9.3306 20.367 0.24096 1.8552 1.8552v30.35l-1.3074 1.3074m-27.111-24.514 6.8224-7.36 18.328 0.14458 1.5825 1.3599v35.825l-6.4408 6.4408" stroke-width="1.058"/>
   </g>
   <g stroke-linejoin="round" stroke-width=".87675">
    <circle transform="scale(1,-1)" cx="-29.156" cy="-120.49" r="1.1713"/>
    <circle transform="scale(1,-1)" cx="-20.504" cy="-72.659" r="1.1713"/>
    <circle transform="scale(1,-1)" cx="-13.889" cy="-289.46" r="1.1713"/>
    <circle transform="scale(1,-1)" cx="-44.716" cy="-252.85" r="1.1713"/>
    <circle transform="scale(1,-1)" cx="67.174" cy="-332.75" r="1.1713"/>
    <circle transform="scale(1,-1)" cx="21.319" cy="-294.07" r="1.1713"/>
    <circle transform="scale(1,-1)" cx="97.666" cy="-295.28" r="1.1713"/>
    <circle transform="scale(1,-1)" cx="99.291" cy="-180.29" r="1.1713"/>
    <circle transform="scale(1,-1)" cx="105.31" cy="-193.66" r="1.1713"/>
    <circle transform="scale(1,-1)" cx="27.19" cy="-201.65" r="1.1713"/>
    <circle transform="scale(1,-1)" cx="-89.739" cy="-285.33" r="1.1713"/>
    <circle transform="scale(1,-1)" cx="42.092" cy="-336.87" r="1.1713"/>
    <circle transform="scale(1,-1)" cx="11.457" cy="-354.24" r="1.1713"/>
    <circle transform="scale(1,-1)" cx="66.699" cy="-343.52" r="1.1713"/>
    <circle transform="scale(1,-1)" cx="39.156" cy="-369.98" r="1.1713"/>
    <circle transform="scale(1,-1)" cx="-32.576" cy="-269.46" r="1.1713"/>
    <circle transform="scale(1,-1)" cx="42.118" cy="-198.07" r="1.1713"/>
    <circle transform="scale(1,-1)" cx="-63.483" cy="-40.13" r="1.1713"/>
   </g>
   <path d="m-54.054 86.183 7.3831 0.10254 1.8458 1.6407" stroke-linejoin="bevel" stroke-width="1.058"/>
   <path d="m-64.356-20.011 8.4975 8.1669-0.30529 39.366-2.4445 2.268m-12.07-52.734-3.1527 2.7712h11.768l7.9416 7.7567-0.02464 40.555h31.946l1.2887-1.2887v-10.294l-1.9786-2.6629v-1.832m-44.055-32.07 9.3018 8.7855-0.33758 37.046-1.9804 1.8853h-25.9l-2.6927-2.7877v-1.3324m19.099-43.568 9.9308 9.3765-0.23886 34.921-1.7978 1.7978h-23.436v-19.368l21.437-0.0774 2.1322-1.9774v-14.346l-8.3271-8.3271h-3.8715l-6.6001 5.3405" stroke-linejoin="bevel" stroke-width="1.058"/>
   <circle cx="-69.39" cy="-24.233" r="1.1713" stroke-linejoin="round" stroke-width=".87675"/>
   <g stroke-linejoin="bevel">
    <g stroke-width="1.058">
     <path d="m-90.74-17.611h13.645l3.3538-2.5815"/>
     <path d="m-17.304-6.2694 4.4376 4.4376v6.1228l4.5668 4.5668v4.058"/>
     <path d="m-65.752 9.4952h-13.458m17.121 14.246a1.1713 1.1713 0 0 0-1.1713-1.1713 1.1713 1.1713 0 0 0-1.1713 1.1713 1.1713 1.1713 0 0 0 1.1713 1.1713 1.1713 1.1713 0 0 0 1.1713-1.1713zm0.05412-3.4485a1.1713 1.1713 0 0 0-1.1713-1.1713 1.1713 1.1713 0 0 0-1.1713 1.1713 1.1713 1.1713 0 0 0 1.1713 1.1713 1.1713 1.1713 0 0 0 1.1713-1.1713zm0.07651-3.5957a1.1713 1.1713 0 0 0-1.1713-1.1713 1.1713 1.1713 0 0 0-1.1713 1.1713 1.1713 1.1713 0 0 0 1.1713 1.1713 1.1713 1.1713 0 0 0 1.1713-1.1713zm0-3.5957a1.1713 1.1713 0 0 0-1.1713-1.1713 1.1713 1.1713 0 0 0-1.1713 1.1713 1.1713 1.1713 0 0 0 1.1713 1.1713 1.1713 1.1713 0 0 0 1.1713-1.1713zm-0.0922-3.6093a1.1713 1.1713 0 0 0-1.1713-1.1713 1.1713 1.1713 0 0 0-1.1713 1.1713 1.1713 1.1713 0 0 0 1.1713 1.1713 1.1713 1.1713 0 0 0 1.1713-1.1713zm-18.602 14.181a1.1713 1.1713 0 0 0-1.1713-1.1713 1.1713 1.1713 0 0 0-1.1713 1.1713 1.1713 1.1713 0 0 0 1.1713 1.1713 1.1713 1.1713 0 0 0 1.1713-1.1713zm0.05411-3.4485a1.1713 1.1713 0 0 0-1.1713-1.1713 1.1713 1.1713 0 0 0-1.1713 1.1713 1.1713 1.1713 0 0 0 1.1713 1.1713 1.1713 1.1713 0 0 0 1.1713-1.1713zm0.07651-3.5957a1.1713 1.1713 0 0 0-1.1713-1.1713 1.1713 1.1713 0 0 0-1.1713 1.1713 1.1713 1.1713 0 0 0 1.1713 1.1713 1.1713 1.1713 0 0 0 1.1713-1.1713zm0-3.5957a1.1713 1.1713 0 0 0-1.1713-1.1713 1.1713 1.1713 0 0 0-1.1713 1.1713 1.1713 1.1713 0 0 0 1.1713 1.1713 1.1713 1.1713 0 0 0 1.1713-1.1713zm-0.0922-3.6093a1.1713 1.1713 0 0 0-1.1713-1.1713 1.1713 1.1713 0 0 0-1.1713 1.1713 1.1713 1.1713 0 0 0 1.1713 1.1713 1.1713 1.1713 0 0 0 1.1713-1.1713zm14.846 0.1329v14.723l-13.489 0.11979v-14.696"/>
     <path d="m20.63 326.35h-13.458m17.121 14.246a1.1713 1.1713 0 0 0-1.1713-1.1713 1.1713 1.1713 0 0 0-1.1713 1.1713 1.1713 1.1713 0 0 0 1.1713 1.1713 1.1713 1.1713 0 0 0 1.1713-1.1713zm0.0541-3.4485a1.1713 1.1713 0 0 0-1.1713-1.1713 1.1713 1.1713 0 0 0-1.1713 1.1713 1.1713 1.1713 0 0 0 1.1713 1.1713 1.1713 1.1713 0 0 0 1.1713-1.1713zm0.0765-3.5957a1.1713 1.1713 0 0 0-1.1713-1.1713 1.1713 1.1713 0 0 0-1.1713 1.1713 1.1713 1.1713 0 0 0 1.1713 1.1713 1.1713 1.1713 0 0 0 1.1713-1.1713zm0-3.5957a1.1713 1.1713 0 0 0-1.1713-1.1713 1.1713 1.1713 0 0 0-1.1713 1.1713 1.1713 1.1713 0 0 0 1.1713 1.1713 1.1713 1.1713 0 0 0 1.1713-1.1713zm-0.0922-3.6093a1.1713 1.1713 0 0 0-1.1713-1.1713 1.1713 1.1713 0 0 0-1.1713 1.1713 1.1713 1.1713 0 0 0 1.1713 1.1713 1.1713 1.1713 0 0 0 1.1713-1.1713zm-18.602 14.181a1.1713 1.1713 0 0 0-1.1713-1.1713 1.1713 1.1713 0 0 0-1.1713 1.1713 1.1713 1.1713 0 0 0 1.1713 1.1713 1.1713 1.1713 0 0 0 1.1713-1.1713zm0.0541-3.4485a1.1713 1.1713 0 0 0-1.1713-1.1713 1.1713 1.1713 0 0 0-1.1713 1.1713 1.1713 1.1713 0 0 0 1.1713 1.1713 1.1713 1.1713 0 0 0 1.1713-1.1713zm0.0765-3.5957a1.1713 1.1713 0 0 0-1.1713-1.1713 1.1713 1.1713 0 0 0-1.1713 1.1713 1.1713 1.1713 0 0 0 1.1713 1.1713 1.1713 1.1713 0 0 0 1.1713-1.1713zm0-3.5957a1.1713 1.1713 0 0 0-1.1713-1.1713 1.1713 1.1713 0 0 0-1.1713 1.1713 1.1713 1.1713 0 0 0 1.1713 1.1713 1.1713 1.1713 0 0 0 1.1713-1.1713zm-0.0922-3.6093a1.1713 1.1713 0 0 0-1.1713-1.1713 1.1713 1.1713 0 0 0-1.1713 1.1713 1.1713 1.1713 0 0 0 1.1713 1.1713 1.1713 1.1713 0 0 0 1.1713-1.1713zm14.846 0.1329v14.723l-13.489 0.11979v-14.696"/>
     <path d="m177.38-71.768h-13.458m17.121 14.246a1.1713 1.1713 0 0 0-1.1713-1.1713 1.1713 1.1713 0 0 0-1.1713 1.1713 1.1713 1.1713 0 0 0 1.1713 1.1713 1.1713 1.1713 0 0 0 1.1713-1.1713zm0.0541-3.4485a1.1713 1.1713 0 0 0-1.1713-1.1713 1.1713 1.1713 0 0 0-1.1713 1.1713 1.1713 1.1713 0 0 0 1.1713 1.1713 1.1713 1.1713 0 0 0 1.1713-1.1713zm0.0765-3.5957a1.1713 1.1713 0 0 0-1.1713-1.1713 1.1713 1.1713 0 0 0-1.1713 1.1713 1.1713 1.1713 0 0 0 1.1713 1.1713 1.1713 1.1713 0 0 0 1.1713-1.1713zm0-3.5957a1.1713 1.1713 0 0 0-1.1713-1.1713 1.1713 1.1713 0 0 0-1.1713 1.1713 1.1713 1.1713 0 0 0 1.1713 1.1713 1.1713 1.1713 0 0 0 1.1713-1.1713zm-0.0922-3.6093a1.1713 1.1713 0 0 0-1.1713-1.1713 1.1713 1.1713 0 0 0-1.1713 1.1713 1.1713 1.1713 0 0 0 1.1713 1.1713 1.1713 1.1713 0 0 0 1.1713-1.1713zm-18.602 14.181a1.1713 1.1713 0 0 0-1.1713-1.1713 1.1713 1.1713 0 0 0-1.1713 1.1713 1.1713 1.1713 0 0 0 1.1713 1.1713 1.1713 1.1713 0 0 0 1.1713-1.1713zm0.0541-3.4485a1.1713 1.1713 0 0 0-1.1713-1.1713 1.1713 1.1713 0 0 0-1.1713 1.1713 1.1713 1.1713 0 0 0 1.1713 1.1713 1.1713 1.1713 0 0 0 1.1713-1.1713zm0.0765-3.5957a1.1713 1.1713 0 0 0-1.1713-1.1713 1.1713 1.1713 0 0 0-1.1713 1.1713 1.1713 1.1713 0 0 0 1.1713 1.1713 1.1713 1.1713 0 0 0 1.1713-1.1713zm0-3.5957a1.1713 1.1713 0 0 0-1.1713-1.1713 1.1713 1.1713 0 0 0-1.1713 1.1713 1.1713 1.1713 0 0 0 1.1713 1.1713 1.1713 1.1713 0 0 0 1.1713-1.1713zm-0.0922-3.6093a1.1713 1.1713 0 0 0-1.1713-1.1713 1.1713 1.1713 0 0 0-1.1713 1.1713 1.1713 1.1713 0 0 0 1.1713 1.1713 1.1713 1.1713 0 0 0 1.1713-1.1713zm14.846 0.1329v14.723l-13.489 0.11979v-14.696"/>
     <path d="m132.97 438.2h-13.458m17.121 14.246a1.1713 1.1713 0 0 0-1.1713-1.1713 1.1713 1.1713 0 0 0-1.1713 1.1713 1.1713 1.1713 0 0 0 1.1713 1.1713 1.1713 1.1713 0 0 0 1.1713-1.1713zm0.0541-3.4485a1.1713 1.1713 0 0 0-1.1713-1.1713 1.1713 1.1713 0 0 0-1.1713 1.1713 1.1713 1.1713 0 0 0 1.1713 1.1713 1.1713 1.1713 0 0 0 1.1713-1.1713zm0.0765-3.5957a1.1713 1.1713 0 0 0-1.1713-1.1713 1.1713 1.1713 0 0 0-1.1713 1.1713 1.1713 1.1713 0 0 0 1.1713 1.1713 1.1713 1.1713 0 0 0 1.1713-1.1713zm0-3.5957a1.1713 1.1713 0 0 0-1.1713-1.1713 1.1713 1.1713 0 0 0-1.1713 1.1713 1.1713 1.1713 0 0 0 1.1713 1.1713 1.1713 1.1713 0 0 0 1.1713-1.1713zm-0.0922-3.6093a1.1713 1.1713 0 0 0-1.1713-1.1713 1.1713 1.1713 0 0 0-1.1713 1.1713 1.1713 1.1713 0 0 0 1.1713 1.1713 1.1713 1.1713 0 0 0 1.1713-1.1713zm-18.602 14.181a1.1713 1.1713 0 0 0-1.1713-1.1713 1.1713 1.1713 0 0 0-1.1713 1.1713 1.1713 1.1713 0 0 0 1.1713 1.1713 1.1713 1.1713 0 0 0 1.1713-1.1713zm0.0541-3.4485a1.1713 1.1713 0 0 0-1.1713-1.1713 1.1713 1.1713 0 0 0-1.1713 1.1713 1.1713 1.1713 0 0 0 1.1713 1.1713 1.1713 1.1713 0 0 0 1.1713-1.1713zm0.0765-3.5957a1.1713 1.1713 0 0 0-1.1713-1.1713 1.1713 1.1713 0 0 0-1.1713 1.1713 1.1713 1.1713 0 0 0 1.1713 1.1713 1.1713 1.1713 0 0 0 1.1713-1.1713zm0-3.5957a1.1713 1.1713 0 0 0-1.1713-1.1713 1.1713 1.1713 0 0 0-1.1713 1.1713 1.1713 1.1713 0 0 0 1.1713 1.1713 1.1713 1.1713 0 0 0 1.1713-1.1713zm-0.0922-3.6093a1.1713 1.1713 0 0 0-1.1713-1.1713 1.1713 1.1713 0 0 0-1.1713 1.1713 1.1713 1.1713 0 0 0 1.1713 1.1713 1.1713 1.1713 0 0 0 1.1713-1.1713zm14.846 0.1329v14.723l-13.489 0.11979v-14.696"/>
     <path d="m99.241 395.93h-13.458m17.121 14.246a1.1713 1.1713 0 0 0-1.1713-1.1713 1.1713 1.1713 0 0 0-1.1713 1.1713 1.1713 1.1713 0 0 0 1.1713 1.1713 1.1713 1.1713 0 0 0 1.1713-1.1713zm0.0541-3.4485a1.1713 1.1713 0 0 0-1.1713-1.1713 1.1713 1.1713 0 0 0-1.1713 1.1713 1.1713 1.1713 0 0 0 1.1713 1.1713 1.1713 1.1713 0 0 0 1.1713-1.1713zm0.0765-3.5957a1.1713 1.1713 0 0 0-1.1713-1.1713 1.1713 1.1713 0 0 0-1.1713 1.1713 1.1713 1.1713 0 0 0 1.1713 1.1713 1.1713 1.1713 0 0 0 1.1713-1.1713zm0-3.5957a1.1713 1.1713 0 0 0-1.1713-1.1713 1.1713 1.1713 0 0 0-1.1713 1.1713 1.1713 1.1713 0 0 0 1.1713 1.1713 1.1713 1.1713 0 0 0 1.1713-1.1713zm-0.0922-3.6093a1.1713 1.1713 0 0 0-1.1713-1.1713 1.1713 1.1713 0 0 0-1.1713 1.1713 1.1713 1.1713 0 0 0 1.1713 1.1713 1.1713 1.1713 0 0 0 1.1713-1.1713zm-18.602 14.181a1.1713 1.1713 0 0 0-1.1713-1.1713 1.1713 1.1713 0 0 0-1.1713 1.1713 1.1713 1.1713 0 0 0 1.1713 1.1713 1.1713 1.1713 0 0 0 1.1713-1.1713zm0.0541-3.4485a1.1713 1.1713 0 0 0-1.1713-1.1713 1.1713 1.1713 0 0 0-1.1713 1.1713 1.1713 1.1713 0 0 0 1.1713 1.1713 1.1713 1.1713 0 0 0 1.1713-1.1713zm0.0765-3.5957a1.1713 1.1713 0 0 0-1.1713-1.1713 1.1713 1.1713 0 0 0-1.1713 1.1713 1.1713 1.1713 0 0 0 1.1713 1.1713 1.1713 1.1713 0 0 0 1.1713-1.1713zm0-3.5957a1.1713 1.1713 0 0 0-1.1713-1.1713 1.1713 1.1713 0 0 0-1.1713 1.1713 1.1713 1.1713 0 0 0 1.1713 1.1713 1.1713 1.1713 0 0 0 1.1713-1.1713zm-0.0922-3.6093a1.1713 1.1713 0 0 0-1.1713-1.1713 1.1713 1.1713 0 0 0-1.1713 1.1713 1.1713 1.1713 0 0 0 1.1713 1.1713 1.1713 1.1713 0 0 0 1.1713-1.1713zm14.846 0.1329v14.723l-13.489 0.11979v-14.696"/>
     <path d="m-30.172 1.1632h-13.458m17.121 14.246a1.1713 1.1713 0 0 0-1.1713-1.1713 1.1713 1.1713 0 0 0-1.1713 1.1713 1.1713 1.1713 0 0 0 1.1713 1.1713 1.1713 1.1713 0 0 0 1.1713-1.1713zm0.0541-3.4485a1.1713 1.1713 0 0 0-1.1713-1.1713 1.1713 1.1713 0 0 0-1.1713 1.1713 1.1713 1.1713 0 0 0 1.1713 1.1713 1.1713 1.1713 0 0 0 1.1713-1.1713zm0.0765-3.5957a1.1713 1.1713 0 0 0-1.1713-1.1713 1.1713 1.1713 0 0 0-1.1713 1.1713 1.1713 1.1713 0 0 0 1.1713 1.1713 1.1713 1.1713 0 0 0 1.1713-1.1713zm0-3.5957a1.1713 1.1713 0 0 0-1.1713-1.1713 1.1713 1.1713 0 0 0-1.1713 1.1713 1.1713 1.1713 0 0 0 1.1713 1.1713 1.1713 1.1713 0 0 0 1.1713-1.1713zm-0.0922-3.6093a1.1713 1.1713 0 0 0-1.1713-1.1713 1.1713 1.1713 0 0 0-1.1713 1.1713 1.1713 1.1713 0 0 0 1.1713 1.1713 1.1713 1.1713 0 0 0 1.1713-1.1713zm-18.602 14.181a1.1713 1.1713 0 0 0-1.1713-1.1713 1.1713 1.1713 0 0 0-1.1713 1.1713 1.1713 1.1713 0 0 0 1.1713 1.1713 1.1713 1.1713 0 0 0 1.1713-1.1713zm0.05411-3.4485a1.1713 1.1713 0 0 0-1.1713-1.1713 1.1713 1.1713 0 0 0-1.1713 1.1713 1.1713 1.1713 0 0 0 1.1713 1.1713 1.1713 1.1713 0 0 0 1.1713-1.1713zm0.07651-3.5957a1.1713 1.1713 0 0 0-1.1713-1.1713 1.1713 1.1713 0 0 0-1.1713 1.1713 1.1713 1.1713 0 0 0 1.1713 1.1713 1.1713 1.1713 0 0 0 1.1713-1.1713zm0-3.5957a1.1713 1.1713 0 0 0-1.1713-1.1713 1.1713 1.1713 0 0 0-1.1713 1.1713 1.1713 1.1713 0 0 0 1.1713 1.1713 1.1713 1.1713 0 0 0 1.1713-1.1713zm-0.0922-3.6093a1.1713 1.1713 0 0 0-1.1713-1.1713 1.1713 1.1713 0 0 0-1.1713 1.1713 1.1713 1.1713 0 0 0 1.1713 1.1713 1.1713 1.1713 0 0 0 1.1713-1.1713zm14.846 0.1329v14.723l-13.489 0.11979v-14.696"/>
     <path d="m39.085-25.001h-13.458m17.121 14.246a1.1713 1.1713 0 0 0-1.1713-1.1713 1.1713 1.1713 0 0 0-1.1713 1.1713 1.1713 1.1713 0 0 0 1.1713 1.1713 1.1713 1.1713 0 0 0 1.1713-1.1713zm0.0541-3.4485a1.1713 1.1713 0 0 0-1.1713-1.1713 1.1713 1.1713 0 0 0-1.1713 1.1713 1.1713 1.1713 0 0 0 1.1713 1.1713 1.1713 1.1713 0 0 0 1.1713-1.1713zm0.0765-3.5957a1.1713 1.1713 0 0 0-1.1713-1.1713 1.1713 1.1713 0 0 0-1.1713 1.1713 1.1713 1.1713 0 0 0 1.1713 1.1713 1.1713 1.1713 0 0 0 1.1713-1.1713zm0-3.5957a1.1713 1.1713 0 0 0-1.1713-1.1713 1.1713 1.1713 0 0 0-1.1713 1.1713 1.1713 1.1713 0 0 0 1.1713 1.1713 1.1713 1.1713 0 0 0 1.1713-1.1713zm-0.0922-3.6093a1.1713 1.1713 0 0 0-1.1713-1.1713 1.1713 1.1713 0 0 0-1.1713 1.1713 1.1713 1.1713 0 0 0 1.1713 1.1713 1.1713 1.1713 0 0 0 1.1713-1.1713zm-18.602 14.181a1.1713 1.1713 0 0 0-1.1713-1.1713 1.1713 1.1713 0 0 0-1.1713 1.1713 1.1713 1.1713 0 0 0 1.1713 1.1713 1.1713 1.1713 0 0 0 1.1713-1.1713zm0.0541-3.4485a1.1713 1.1713 0 0 0-1.1713-1.1713 1.1713 1.1713 0 0 0-1.1713 1.1713 1.1713 1.1713 0 0 0 1.1713 1.1713 1.1713 1.1713 0 0 0 1.1713-1.1713zm0.0765-3.5957a1.1713 1.1713 0 0 0-1.1713-1.1713 1.1713 1.1713 0 0 0-1.1713 1.1713 1.1713 1.1713 0 0 0 1.1713 1.1713 1.1713 1.1713 0 0 0 1.1713-1.1713zm0-3.5957a1.1713 1.1713 0 0 0-1.1713-1.1713 1.1713 1.1713 0 0 0-1.1713 1.1713 1.1713 1.1713 0 0 0 1.1713 1.1713 1.1713 1.1713 0 0 0 1.1713-1.1713zm-0.0922-3.6093a1.1713 1.1713 0 0 0-1.1713-1.1713 1.1713 1.1713 0 0 0-1.1713 1.1713 1.1713 1.1713 0 0 0 1.1713 1.1713 1.1713 1.1713 0 0 0 1.1713-1.1713zm14.846 0.1329v14.723l-13.489 0.11979v-14.696"/>
     <path d="m153.44 95.373h-13.458m17.121 14.246a1.1713 1.1713 0 0 0-1.1713-1.1713 1.1713 1.1713 0 0 0-1.1713 1.1713 1.1713 1.1713 0 0 0 1.1713 1.1713 1.1713 1.1713 0 0 0 1.1713-1.1713zm0.0541-3.4485a1.1713 1.1713 0 0 0-1.1713-1.1713 1.1713 1.1713 0 0 0-1.1713 1.1713 1.1713 1.1713 0 0 0 1.1713 1.1713 1.1713 1.1713 0 0 0 1.1713-1.1713zm0.0765-3.5957a1.1713 1.1713 0 0 0-1.1713-1.1713 1.1713 1.1713 0 0 0-1.1713 1.1713 1.1713 1.1713 0 0 0 1.1713 1.1713 1.1713 1.1713 0 0 0 1.1713-1.1713zm0-3.5957a1.1713 1.1713 0 0 0-1.1713-1.1713 1.1713 1.1713 0 0 0-1.1713 1.1713 1.1713 1.1713 0 0 0 1.1713 1.1713 1.1713 1.1713 0 0 0 1.1713-1.1713zm-0.0922-3.6093a1.1713 1.1713 0 0 0-1.1713-1.1713 1.1713 1.1713 0 0 0-1.1713 1.1713 1.1713 1.1713 0 0 0 1.1713 1.1713 1.1713 1.1713 0 0 0 1.1713-1.1713zm-18.602 14.181a1.1713 1.1713 0 0 0-1.1713-1.1713 1.1713 1.1713 0 0 0-1.1713 1.1713 1.1713 1.1713 0 0 0 1.1713 1.1713 1.1713 1.1713 0 0 0 1.1713-1.1713zm0.0541-3.4485a1.1713 1.1713 0 0 0-1.1713-1.1713 1.1713 1.1713 0 0 0-1.1713 1.1713 1.1713 1.1713 0 0 0 1.1713 1.1713 1.1713 1.1713 0 0 0 1.1713-1.1713zm0.0765-3.5957a1.1713 1.1713 0 0 0-1.1713-1.1713 1.1713 1.1713 0 0 0-1.1713 1.1713 1.1713 1.1713 0 0 0 1.1713 1.1713 1.1713 1.1713 0 0 0 1.1713-1.1713zm0-3.5957a1.1713 1.1713 0 0 0-1.1713-1.1713 1.1713 1.1713 0 0 0-1.1713 1.1713 1.1713 1.1713 0 0 0 1.1713 1.1713 1.1713 1.1713 0 0 0 1.1713-1.1713zm-0.0922-3.6093a1.1713 1.1713 0 0 0-1.1713-1.1713 1.1713 1.1713 0 0 0-1.1713 1.1713 1.1713 1.1713 0 0 0 1.1713 1.1713 1.1713 1.1713 0 0 0 1.1713-1.1713zm14.846 0.1329v14.723l-13.489 0.11979v-14.696"/>
     <path d="m98.129-121.48-9.5164 9.5164m22.18-2.0335a1.1713 1.1713 0 0 0-1.6565 0 1.1713 1.1713 0 0 0 1e-5 1.6565 1.1713 1.1713 0 0 0 1.6565 0 1.1713 1.1713 0 0 0 1e-5 -1.6565zm-2.4002-2.4767a1.1713 1.1713 0 0 0-1.6565 1e-5 1.1713 1.1713 0 0 0 0 1.6565 1.1713 1.1713 0 0 0 1.6565 0 1.1713 1.1713 0 0 0 1e-5 -1.6565zm-2.4885-2.5967a1.1713 1.1713 0 0 0-1.6565 0 1.1713 1.1713 0 0 0 1e-5 1.6565 1.1713 1.1713 0 0 0 1.6565 0 1.1713 1.1713 0 0 0 1e-5 -1.6565zm-2.5426-2.5426a1.1713 1.1713 0 0 0-1.6565 0 1.1713 1.1713 0 0 0 0 1.6565 1.1713 1.1713 0 0 0 1.6565 0 1.1713 1.1713 0 0 0 0-1.6565zm-2.6174-2.487a1.1713 1.1713 0 0 0-1.6565 0 1.1713 1.1713 0 0 0 0 1.6565 1.1713 1.1713 0 0 0 1.6565 0 1.1713 1.1713 0 0 0 0-1.6565zm-3.1263 23.181a1.1713 1.1713 0 0 0-1.6565 0 1.1713 1.1713 0 0 0 0 1.6565 1.1713 1.1713 0 0 0 1.6565 1e-5 1.1713 1.1713 0 0 0-1e-5 -1.6565zm-2.4002-2.4767a1.1713 1.1713 0 0 0-1.6565-1e-5 1.1713 1.1713 0 0 0 1e-5 1.6565 1.1713 1.1713 0 0 0 1.6565 0 1.1713 1.1713 0 0 0 0-1.6565zm-2.4885-2.5967a1.1713 1.1713 0 0 0-1.6565 0 1.1713 1.1713 0 0 0 0 1.6565 1.1713 1.1713 0 0 0 1.6565 1e-5 1.1713 1.1713 0 0 0-1e-5 -1.6565zm-2.5426-2.5426a1.1713 1.1713 0 0 0-1.6565-1e-5 1.1713 1.1713 0 0 0 1e-5 1.6565 1.1713 1.1713 0 0 0 1.6565 0 1.1713 1.1713 0 0 0 0-1.6565zm-2.6174-2.487a1.1713 1.1713 0 0 0-1.6565 0 1.1713 1.1713 0 0 0 0 1.6565 1.1713 1.1713 0 0 0 1.6565 1e-5 1.1713 1.1713 0 0 0-1e-5 -1.6565zm10.591-10.403 10.411 10.411-9.4531 9.6226-10.392-10.392"/>
     <path d="m221.08-110.56h-13.458m17.121 14.246a1.1713 1.1713 0 0 0-1.1713-1.1713 1.1713 1.1713 0 0 0-1.1713 1.1713 1.1713 1.1713 0 0 0 1.1713 1.1713 1.1713 1.1713 0 0 0 1.1713-1.1713zm0.0541-3.4485a1.1713 1.1713 0 0 0-1.1713-1.1713 1.1713 1.1713 0 0 0-1.1713 1.1713 1.1713 1.1713 0 0 0 1.1713 1.1713 1.1713 1.1713 0 0 0 1.1713-1.1713zm0.0765-3.5957a1.1713 1.1713 0 0 0-1.1713-1.1713 1.1713 1.1713 0 0 0-1.1713 1.1713 1.1713 1.1713 0 0 0 1.1713 1.1713 1.1713 1.1713 0 0 0 1.1713-1.1713zm0-3.5957a1.1713 1.1713 0 0 0-1.1713-1.1713 1.1713 1.1713 0 0 0-1.1713 1.1713 1.1713 1.1713 0 0 0 1.1713 1.1713 1.1713 1.1713 0 0 0 1.1713-1.1713zm-0.0922-3.6093a1.1713 1.1713 0 0 0-1.1713-1.1713 1.1713 1.1713 0 0 0-1.1713 1.1713 1.1713 1.1713 0 0 0 1.1713 1.1713 1.1713 1.1713 0 0 0 1.1713-1.1713zm-18.602 14.181a1.1713 1.1713 0 0 0-1.1713-1.1713 1.1713 1.1713 0 0 0-1.1713 1.1713 1.1713 1.1713 0 0 0 1.1713 1.1713 1.1713 1.1713 0 0 0 1.1713-1.1713zm0.0541-3.4485a1.1713 1.1713 0 0 0-1.1713-1.1713 1.1713 1.1713 0 0 0-1.1713 1.1713 1.1713 1.1713 0 0 0 1.1713 1.1713 1.1713 1.1713 0 0 0 1.1713-1.1713zm0.0765-3.5957a1.1713 1.1713 0 0 0-1.1713-1.1713 1.1713 1.1713 0 0 0-1.1713 1.1713 1.1713 1.1713 0 0 0 1.1713 1.1713 1.1713 1.1713 0 0 0 1.1713-1.1713zm0-3.5957a1.1713 1.1713 0 0 0-1.1713-1.1713 1.1713 1.1713 0 0 0-1.1713 1.1713 1.1713 1.1713 0 0 0 1.1713 1.1713 1.1713 1.1713 0 0 0 1.1713-1.1713zm-0.0922-3.6093a1.1713 1.1713 0 0 0-1.1713-1.1713 1.1713 1.1713 0 0 0-1.1713 1.1713 1.1713 1.1713 0 0 0 1.1713 1.1713 1.1713 1.1713 0 0 0 1.1713-1.1713zm14.846 0.1329v14.723l-13.489 0.11979v-14.696"/>
    </g>
    <path d="m-32.623 93.078 8.3009-0.0477v1.6697c-0.83901 0.10355-0.55948 0.26303-8.7303 0v1.6697h8.6825v1.7174h-8.6825v1.7174h8.6825v1.8128h-8.6825v1.622h8.6825v1.6697h-8.6825v1.7174h8.6825v1.7174h-8.6825m0.11927-13.525h8.6825v-1.7174h-8.6825v-1.7174h8.6825v-1.6697h-8.6825v-1.622h8.6825v-1.8128h-8.6825v-1.7174h8.6825v-1.7174h-8.6825v-1.6697h8.7303v-1.6697h-15.458l-2.4152 2.4152" stroke-width="1.0583"/>
    <path d="m-21.996-0.055008v1.5555h1.0061v8.7376h-1.1357v1.4833h-1.6919v-1.576h-0.92709v-8.5754h0.74167v-1.6224z" stroke-width="1.0583"/>
    <path d="m-80.433-12.506-10.166-0.0429-12.614 12.95v4.9889m1.8799-4.4665 11.317-11.739 16.138 0.065 1.946-1.8162m-27.707 14.311 10.254-10.778 19.276 0.16371 1.5657-1.4755m-29.483 12.852 9.273-9.6626 21.659 0.0692 1.9931 1.9931v8.7621h-20.7l-3.0493 3.0494v4.2172" stroke-width="1.058"/>
   </g>
   <g>
    <circle transform="scale(1,-1)" cx="-67.895" cy="11.125" r="1.1713" stroke-linejoin="round" stroke-width=".87675"/>
    <circle transform="scale(1,-1)" cx="-70.879" cy="13.72" r="1.1713" stroke-linejoin="round" stroke-width=".87675"/>
    <g stroke-linejoin="bevel" stroke-width="1.0583">
     <path d="m-87.639 11.542v1.5555h1.0061v8.7376h-1.1357v1.4833h-1.6919v-1.576h-0.92709v-8.5754h0.74167v-1.6224z"/>
     <path d="m-101.36 5.2919v-4.2932"/>
     <path d="m-99.679 5.5935v-3.6854"/>
    </g>
   </g>
   <path d="m74.678 12.954-9.5164-9.5164m2.0335 22.18a1.1713 1.1713 0 0 0 0-1.6565 1.1713 1.1713 0 0 0-1.6565 1e-5 1.1713 1.1713 0 0 0 0 1.6565 1.1713 1.1713 0 0 0 1.6565 1e-5zm2.4767-2.4002a1.1713 1.1713 0 0 0 0-1.6565 1.1713 1.1713 0 0 0-1.6565-1e-5 1.1713 1.1713 0 0 0 0 1.6565 1.1713 1.1713 0 0 0 1.6565 0zm2.5967-2.4885a1.1713 1.1713 0 0 0 1e-5 -1.6565 1.1713 1.1713 0 0 0-1.6565 0 1.1713 1.1713 0 0 0 0 1.6565 1.1713 1.1713 0 0 0 1.6565 1e-5zm2.5426-2.5426a1.1713 1.1713 0 0 0-1e-5 -1.6565 1.1713 1.1713 0 0 0-1.6565 0 1.1713 1.1713 0 0 0-1e-5 1.6565 1.1713 1.1713 0 0 0 1.6565 0zm2.487-2.6174a1.1713 1.1713 0 0 0 0-1.6565 1.1713 1.1713 0 0 0-1.6565 1e-5 1.1713 1.1713 0 0 0 0 1.6565 1.1713 1.1713 0 0 0 1.6565 0zm-23.181-3.1263a1.1713 1.1713 0 0 0 0-1.6565 1.1713 1.1713 0 0 0-1.6565 0 1.1713 1.1713 0 0 0-1e-5 1.6565 1.1713 1.1713 0 0 0 1.6565-1e-5zm2.4767-2.4002a1.1713 1.1713 0 0 0 0-1.6565 1.1713 1.1713 0 0 0-1.6565 1e-5 1.1713 1.1713 0 0 0 0 1.6565 1.1713 1.1713 0 0 0 1.6565 0zm2.5967-2.4885a1.1713 1.1713 0 0 0 0-1.6565 1.1713 1.1713 0 0 0-1.6565 0 1.1713 1.1713 0 0 0-1e-5 1.6565 1.1713 1.1713 0 0 0 1.6565-1e-5zm2.5426-2.5426a1.1713 1.1713 0 0 0 0-1.6565 1.1713 1.1713 0 0 0-1.6565 1e-5 1.1713 1.1713 0 0 0 0 1.6565 1.1713 1.1713 0 0 0 1.6565 0zm2.487-2.6174a1.1713 1.1713 0 0 0 0-1.6565 1.1713 1.1713 0 0 0-1.6565 0 1.1713 1.1713 0 0 0 0 1.6565 1.1713 1.1713 0 0 0 1.6565-1e-5zm10.403 10.591-10.411 10.411-9.6226-9.4531 10.392-10.392" stroke-linejoin="bevel" stroke-width="1.058"/>
   <g>
    <circle transform="scale(1,-1)" cx="-55.291" cy="-86.209" r="1.1713" stroke-linejoin="round" stroke-width=".87675"/>
    <path d="m-32.965 108.32v5.675l2.6654 1.5389" stroke-linejoin="bevel" stroke-width="1.0583"/>
    <circle transform="scale(1,-1)" cx="-29.202" cy="-116.17" r="1.1713" stroke-linejoin="round" stroke-width=".87675"/>
   </g>
   <path d="m-52.821-58.139 17.258 0.21729 11.868-12.417m-2.3576 0.0666-10.137 10.567-18.376-0.31369-4.318 4.2008m37.492-14.522-13.593 14.153-16.189 3e-3 9.2932 9.2932v11.932l3.182-5.5114v-9.3735m10.086-20.41-8.2042 8.6692-18.765-0.14458-6.4169 7.075 8.1782 13.431 1.25 2.1651-4.0243 4.0243h-1.5311" stroke-linejoin="bevel" stroke-width="1.058"/>
   <g>
    <g stroke-linejoin="round" stroke-width=".87675">
     <circle cx="-38.576" cy="-51.191" r="1.1713"/>
     <circle cx="-91.428" cy="-82.549" r="1.1713"/>
     <circle cx="-97.261" cy="-67.679" r="1.1713"/>
     <circle cx="-59.535" cy="-35.029" r="1.1713"/>
    </g>
    <g stroke-linejoin="bevel" stroke-width="1.0583">
     <path d="m-52.758-58.164-2.3734 2.3734h-3.4282"/>
     <path d="m96.202-6.7131"/>
     <path d="m96.668 5.5768v-12.755"/>
     <path d="m96.668 5.2975 5.4001 5.4001v8.1002l6.4708 6.4708v14.199l-7.8441 7.8442v2.2112h6.7734v-2.3277"/>
    </g>
    <circle cx="107.37" cy="45.985" r="1.1713" stroke-linejoin="round" stroke-width=".87675"/>
    <circle cx="130.22" cy="64.307" r="1.1713" stroke-linejoin="round" stroke-width=".87675"/>
    <path d="m65.548 26.073-1.2847 1.2847v7.3132h3.6566l6.0432-10.467v-5.2463" stroke-linejoin="bevel" stroke-width="1.0583"/>
    <path d="m-6.9886-110.52-9.065-9.065h-30.124l-3.626 3.626v2.7892h23.741" stroke-linejoin="bevel" stroke-width="1.0583"/>
    <circle cx="-24.758" cy="-113.19" r="1.1713" stroke-linejoin="round" stroke-width=".87675"/>
    <path d="m34.46-121.35h13.963l5.3154-5.3154h15.946l5.1964-5.1964h11.781" stroke-linejoin="bevel" stroke-width="1.0583"/>
    <path d="m48.264-121.35-9.6788 9.6788v7.9334" stroke-linejoin="bevel" stroke-width="1.0583"/>
    <circle cx="38.586" cy="-102.31" r="1.1713" stroke-linejoin="round" stroke-width=".87675"/>
    <circle cx="47.745" cy="-147.59" r="1.1713" stroke-linejoin="round" stroke-width=".87675"/>
    <g stroke-linejoin="bevel" stroke-width="1.0583">
     <path d="m34.302-121.35-10.71 10.71"/>
     <path d="m-7.7004 51.701-4.3112 4.3112m4.1465-5.9576-4.3112 4.3112m4.1794-5.8588-4.3112 4.3112m4.2782-6.0564-4.3112 4.3112m4.1465-5.8918-4.3112 4.3112m10.919 2.1956h-6.0969m5.988-1.7158h-6.0969m6.0424-1.6069h-6.0969m6.0969-1.7158h-6.0969m6.062-1.4949h-6.0969m6.8285-1.4632v9.5401l12.454-7.2404-0.0382-2.3439z"/>
     <path d="m100.91 49.43 7.3309 4.2325v7.1859l2.4375 2.4375h11.231l4.7201 4.7201h8.3794l16.569-16.569-6.2835-6.2836-1.4101 1.4101 2.3368 2.3368"/>
     <path d="m176.11 121.94h14.047l1.9903-1.9904v-18.416l5.9825-5.8452 2.7339-0.0457"/>
    </g>
   </g>
  </g>
  <g transform="translate(259.08 -261.16)" fill="none" stroke="#000" stroke-linecap="round">
   <g transform="translate(433.67 -63.856)" stroke-linejoin="bevel" stroke-width="1.0583">
    <path d="m-511.61 405.68v2.1824l0.83939 0.83939v4.197h1.343"/>
    <path d="m-514.29 405.76v1.9306l1.7627 1.7627v8.4779h3.2736"/>
    <path d="m-515.97 405.51v3.1897l1.6368 1.6368v10.954l1.7837 1.7837h3.1267"/>
    <path d="m-517.82 405.51v22.664l4.9944 4.9944h3.3156"/>
    <path d="m-509.59 428.17h-2.9379l-3.4415-3.4415v-13.682l-1.7208-1.7208"/>
    <path d="m-511.59 405.36h-6.1552"/>
   </g>
   <g stroke-linejoin="round" stroke-width=".87675">
    <circle transform="scale(1,-1)" cx="-74.472" cy="-369.28" r="1.1713"/>
    <circle transform="scale(1,-1)" cx="-74.472" cy="-359.52" r="1.1713"/>
    <circle transform="scale(1,-1)" cx="-74.729" cy="-364.14" r="1.1713"/>
    <circle transform="scale(1,-1)" cx="-74.472" cy="-354.13" r="1.1713"/>
    <circle transform="scale(1,-1)" cx="-74.472" cy="-349.25" r="1.1713"/>
   </g>
  </g>
  <g transform="matrix(-.99995 -.010045 -.010045 .99995 48.641 -368.03)" fill="none" stroke="#000" stroke-linecap="round">
   <g transform="translate(433.67 -63.856)" stroke-linejoin="bevel" stroke-width="1.0583">
    <path d="m-511.61 405.68v2.1824l0.83939 0.83939v4.197h1.343"/>
    <path d="m-514.29 405.76v1.9306l1.7627 1.7627v8.4779h3.2736"/>
    <path d="m-515.97 405.51v3.1897l1.6368 1.6368v10.954l1.7837 1.7837h3.1267"/>
    <path d="m-517.82 405.51v22.664l4.9944 4.9944h3.3156"/>
    <path d="m-509.59 428.17h-2.9379l-3.4415-3.4415v-13.682l-1.7208-1.7208"/>
    <path d="m-511.59 405.36h-6.1552"/>
   </g>
   <g stroke-linejoin="round" stroke-width=".87675">
    <circle transform="scale(1,-1)" cx="-74.472" cy="-369.28" r="1.1713"/>
    <circle transform="scale(1,-1)" cx="-74.472" cy="-359.52" r="1.1713"/>
    <circle transform="scale(1,-1)" cx="-74.729" cy="-364.14" r="1.1713"/>
    <circle transform="scale(1,-1)" cx="-74.472" cy="-354.13" r="1.1713"/>
    <circle transform="scale(1,-1)" cx="-74.472" cy="-349.25" r="1.1713"/>
   </g>
  </g>
  <g fill="none" stroke="#000" stroke-linecap="round">
   <g>
    <path d="m177.52 120.24h4.9119" stroke-linejoin="bevel" stroke-width="1.0583"/>
    <g stroke-linejoin="round" stroke-width=".87675">
     <circle cx="195.07" cy="135.25" r="1.1713"/>
     <circle cx="207.48" cy="72.811" r="1.1713"/>
     <circle cx="171.04" cy="56.378" r="1.1713"/>
    </g>
    <g stroke-linejoin="bevel">
     <g stroke-width="1.0583">
      <path d="m172.51 80.313h2.5484"/>
      <path d="m166.57 82.578-2.1709-2.1709-4.2001 4.2002h-9.3914l-3.9069 6.767h-8.5519l-0.98182 0.98182v1.5481"/>
      <path d="m137.21 110.8v1.9821l6.2378 3.5031-0.0944 7.8231 1.8835 1.9779h11.133l4.0608-7.0336h4.0563v-30.244l-1.9349-1.9349h-5.3328l-1.3922 1.3922v5.4508"/>
      <path d="m168.74 82.295-0.80182-1.3888"/>
      <path d="m132.32 62.084-1.1728 1.1728"/>
     </g>
     <path d="m150.23-11.089v1.5555h1.0061v8.7376h-1.1356v1.4833h-1.6919v-1.576h-0.92708v-8.5754h0.74166v-1.6224z" stroke-width="1.058"/>
     <path d="m136.39 3.8119h11.605l1.4198-1.4198v-1.6667" stroke-width="1.0583"/>
    </g>
    <circle cx="142.94" cy="-.13872" r="1.1713" stroke-linejoin="round" stroke-width=".87675"/>
    <path d="m116.02 13.071h5.926l1.8519-1.8519" stroke-linejoin="bevel" stroke-width="1.0583"/>
    <circle cx="117.26" cy="20.185" r="1.1713" stroke-linejoin="round" stroke-width=".87675"/>
    <circle cx="163.56" cy="-33.225" r="1.1713" stroke-linejoin="round" stroke-width=".87675"/>
    <path d="m175.34-44.377 1.4835-1.4835h7.4174l4.7357-4.7358v-9.7567l2.3113-1.3344" stroke-linejoin="bevel" stroke-width="1.0583"/>
    <g stroke-linejoin="round" stroke-width=".87675">
     <circle cx="192.57" cy="-62.635" r="1.1713"/>
     <circle cx="219.09" cy="-64.448" r="1.1713"/>
     <circle cx="183.8" cy="-19.668" r="1.1713"/>
     <circle cx="170.21" cy="-18.805" r="1.1713"/>
     <circle cx="167.19" cy="-11.144" r="1.1713"/>
    </g>
    <g stroke-linejoin="bevel">
     <path d="m223.51-95.023v6.0191l-1.8057 1.8057h-9.8311l-4.113 4.113h-43.772l-27.571-27.571" stroke-width="1.0583"/>
     <path d="m141.95-130.91h1.5555v-1.0061h8.7376v1.1356h1.4833v1.6919h-1.576v0.92708h-8.5754v-0.74166h-1.6224z" stroke-width="1.058"/>
     <g stroke-width="1.0583">
      <path d="m153.92-130h13.585l1.931 3.3446h39.277v5.9384l6.3593 3.6715h7.1125l1.4717 0.74359v4.0755"/>
      <path d="m175.62 172.96 6.0624 6.2887h24.268l-20.223 20.223v8.7635h11.46l-12.808 12.808v7.4152l-6.7411 6.7411h-8.0893l-32.02 32.02-8.0894-8.0894v-8.4264l-7.2467-7.2467v-15.673l-5.3086-5.3086v-10.196l-5.6878-5.6878-16.027-0.1121m-4.6523-10.65-7.4441-0.21343h-3.181l-3.2758 3.2758v7.9946l-6.5864 3.8027v4.9608l6.8338 3.9455v5.4921h15.837l14.493 14.493v10.449l-7.5838 7.5838v9.9432h7.2467v14.156h15.505l-11.797 11.797h-6.4041l-4.2132 4.2132v4.8873h8.932l-6.7411 6.7411-11.871 0.17592-0.18487 7.0796-12.731 7.3503v12.359l-7.4292 4.2893v19.305"/>
      <path d="m70.054 359.81-5.1319-3.1158 0.27492 0.0916-0.18328-9.5306-3.1616-3.1616h-17.274l-3.5052 3.5053v18.351l3.0814 3.0814h4.3644l3.007-3.007h3.4995v7.5317l2.6118 2.6118h5.1777l4.834 4.8341h36.496l8.9693 8.9693v6.9901h11.408l3.5347 3.5347v4.1585h5.1981l2.3911 2.3911 3.9505 3.9506h7.3813l7.953 7.9531v11.072l-5.536 5.536v12.138l-4.8472 4.8472h-5.5122l-3.432 3.432v4.7195l-6.0095 6.0095v5.3641h-7.7263l-2.8971 2.8971v5.4722l-7.7792 7.7792h-4.7748l-6.9476 6.9476v17.892l-4.0371 4.0371h-4.0371v5.6198l2.8971 2.8971h4.8284l-4.2383 4.2383h-8.2084l-7.5377-7.5377v-9.6837l4.8418-4.8418v-11.038l-4.5654-2.6358v-4.2313l4.5616-2.6337v-43.505l-12.599-12.599v-25.17l7.8639-7.8639v-10.162l-2.0768-2.0768h-18.386l-7.009-7.009v-6.3652h-21.747l-8.1294-8.1294v-5.8998h-10.01l-5.1265-5.1265v-6.5407l-6.4365-3.7161v-8.6582l-14.017-14.017v-20.277l-3.0607-5.3013h-4.5928l-6.5417-6.5417v-11.845l-3.2699-3.2699-4.5251-1.2125-3.1809-5.5095h-22.331l-3.6268 3.6268v3.2678l-8.1468 8.1468h-8.5058l-7.9506 7.9506-4.4323-4.4324 14.267-14.267v-5.4736h-14.183l4.8586-4.8586h3.5982v-8.6147h-5.3104l-2.3464-2.3464v-3.5814h4.8164l3.1492-3.1492v-6.1131h-7.2245v-2.8404l2.7169-2.7169h10.127l3.17-5.4906h9.5502l2.7585 4.7778h23.917l5.5432 5.5432h5.448l3.3415-3.3414h20.521l5.0114-5.0114v-5.0114h-13.898l5.0651-5.0651h6.3092l3.2435-3.2434v-5.1984h-4.843l-2.8006-4.8508h10.457l4.3927-4.3927h4.5583l7.3534 7.3535v6.1233l4.6266 4.6266h7.1894l4.3123-4.3123-12.308-12.308v-4.7155h15.069l4.7155-4.7155v-4.9205l4.5617-4.5617h13.48l6.9964-6.9964h36.049l2.4927 2.4927-10.282 10.282h-5.9686v7.7622m4.5402 10.594-0.0357-8.8358 6.421-0.1121v-5.8674l2.7314-2.7314h5.5639l3.3703-5.8375h18.278l5.9041-10.226h37.393"/>
     </g>
    </g>
   </g>
   <path d="m-8.2043 286.85-0.24096 31.66 8.3798 7.6774m-6.3557-38.075-0.14457 29.771 6.0923 5.4913m2.3884 10.163-13.878-13.823-0.0761-20.369-5.438-9.6103m18.819 40.378-11.57-10.976 0.14456-23.407-2.9632-5.1325" stroke-linejoin="bevel" stroke-width="1.058"/>
   <path d="m39.618 227.17 0.1706-15.136-4.8465-4.5852m2.8923 34.011 0.16565-28.771-9.9482-9.7973m15.401 22.091-0.25855-14.104-3.7916-3.6917v-6.3629l1.8396-1.8396m26.442 36.331v-2.3563l-2.7053-2.7053h-19.191l-4.2893-4.2893-0.0358-14.497-3.4545-3.2407v-10.398h-9.3685l-1.2596 1.4537v1.064" stroke-linejoin="bevel" stroke-width="1.058"/>
   <g stroke-linejoin="bevel" stroke-width="1.0583">
    <path d="m-17.667 293.48-2.8781-0.03m-3.3772-17.538-4.2397-4.0969m5.7874 3.9652-4.3112-4.3112m7.637 4.1136-3.9369-4.3112m-2.5699 10.919v-6.0969m1.7158 5.988v-6.0969m1.6069 6.0424v-6.0969m1.7158 6.0969v-6.0969m1.4949 6.062v-6.0969m1.4393 17.574 0.0239-10.745-9.0395-0.0899-0.03 4.9674 5.9876 5.8677m-4.9279-17.393-5.9537-5.6115m10.893 5.2822-4.3112-4.3112v-2.8437l3.799-3.5927 57.423 0.10312"/>
    <path d="m132.88-96.564 2.8781 0.03m5.0612 17.374 2.319 2.0824m-4.0029-1.9177 4.3112 4.3112m-5.8588-4.1794 4.3112 4.3112m-6.0564-4.2782 4.3112 4.3112m0.615-10.755v6.0969m-1.7158-5.988v6.0969m-1.6069-6.0424v6.0969m-1.7158-6.0969v6.0969m-1.4949-6.062v13.01m-1.4393-24.487-0.0239 10.745 9.0395 0.0899 0.03-4.9674-5.9876-5.8677"/>
    <path d="m115.43 477.67-0.03-2.8781m0.019 2.9623-10.745 0.0239-0.0899-9.0395 4.9674-0.03 5.8677 5.9876"/>
    <path d="m152.22 421.74-0.03-2.8781m-17.868 1.4962-4.3112-4.3112m10.919-2.1956h-6.0969m5.988 1.7158h-6.0969m6.0424 1.6069h-6.0969m6.0969 1.7158h-6.0969m6.062 1.4949h-6.0969m17.574 1.4393-10.745 0.0239-0.0899-9.0395 4.9674-0.03 5.8677 5.9876m-17.393-4.9279-8.0038-8.1064v-4.5017l-3.0302-3.0302h-18.108l-0.71777 1.2432h-1.5388m31.234 16.041-11.222-11.222v-1.1578m11.058 15.673-8.0333-7.7674h-12.645m20.711 6.0222-14.492-14.18-2.2775 0.0157"/>
    <path d="m111.11 201.53 0.03 2.8781m17.374 5.0237 28.63 29.761m-28.465-31.407 30.728 31.567m-30.564-34.86 13.257-21.827m-19.7 26.753h6.0969m-5.988-1.7158h6.0969m-6.0424-1.6069h6.0969m-6.0969-1.7158h6.0969m-17.539-2.9342 10.745-0.0239 0.0899 9.0395-4.9674 0.03-5.8677-5.9876m11.477-1.6188h0.44144l15.996-27.706h35.787l6.8911 7.2304h14.6m-67.503 23.828 30.449 31.008h6.0821l6.9416-6.9416h3.6812"/>
    <path d="m1.8753 333.4v8.8132l6.209 3.5848v5.7626h3.352"/>
   </g>
   <path d="m71.896 309.62h-13.458m17.121 14.246a1.1713 1.1713 0 0 0-1.1713-1.1713 1.1713 1.1713 0 0 0-1.1713 1.1713 1.1713 1.1713 0 0 0 1.1713 1.1713 1.1713 1.1713 0 0 0 1.1713-1.1713zm0.0541-3.4485a1.1713 1.1713 0 0 0-1.1713-1.1713 1.1713 1.1713 0 0 0-1.1713 1.1713 1.1713 1.1713 0 0 0 1.1713 1.1713 1.1713 1.1713 0 0 0 1.1713-1.1713zm0.0765-3.5957a1.1713 1.1713 0 0 0-1.1713-1.1713 1.1713 1.1713 0 0 0-1.1713 1.1713 1.1713 1.1713 0 0 0 1.1713 1.1713 1.1713 1.1713 0 0 0 1.1713-1.1713zm0-3.5957a1.1713 1.1713 0 0 0-1.1713-1.1713 1.1713 1.1713 0 0 0-1.1713 1.1713 1.1713 1.1713 0 0 0 1.1713 1.1713 1.1713 1.1713 0 0 0 1.1713-1.1713zm-0.0922-3.6093a1.1713 1.1713 0 0 0-1.1713-1.1713 1.1713 1.1713 0 0 0-1.1713 1.1713 1.1713 1.1713 0 0 0 1.1713 1.1713 1.1713 1.1713 0 0 0 1.1713-1.1713zm-18.602 14.181a1.1713 1.1713 0 0 0-1.1713-1.1713 1.1713 1.1713 0 0 0-1.1713 1.1713 1.1713 1.1713 0 0 0 1.1713 1.1713 1.1713 1.1713 0 0 0 1.1713-1.1713zm0.0541-3.4485a1.1713 1.1713 0 0 0-1.1713-1.1713 1.1713 1.1713 0 0 0-1.1713 1.1713 1.1713 1.1713 0 0 0 1.1713 1.1713 1.1713 1.1713 0 0 0 1.1713-1.1713zm0.0765-3.5957a1.1713 1.1713 0 0 0-1.1713-1.1713 1.1713 1.1713 0 0 0-1.1713 1.1713 1.1713 1.1713 0 0 0 1.1713 1.1713 1.1713 1.1713 0 0 0 1.1713-1.1713zm0-3.5957a1.1713 1.1713 0 0 0-1.1713-1.1713 1.1713 1.1713 0 0 0-1.1713 1.1713 1.1713 1.1713 0 0 0 1.1713 1.1713 1.1713 1.1713 0 0 0 1.1713-1.1713zm-0.0922-3.6093a1.1713 1.1713 0 0 0-1.1713-1.1713 1.1713 1.1713 0 0 0-1.1713 1.1713 1.1713 1.1713 0 0 0 1.1713 1.1713 1.1713 1.1713 0 0 0 1.1713-1.1713zm14.846 0.1329v14.723l-13.489 0.11979v-14.696" stroke-linejoin="bevel" stroke-width="1.058"/>
   <g stroke-linejoin="bevel" stroke-width="1.0583">
    <path d="m11.438 351.69 0.0405 1.116"/>
    <path d="m3.3194 330.07h-2.0284"/>
    <path d="m3.256 326.14h-3.1693"/>
    <path d="m-0.42035 323.35h21.361l1.8065 1.8065"/>
    <path d="m37.942 369.98h-8.3718l-6.4546-6.4546v-21.473"/>
    <path d="m11.528 355.65 1.1571 1.1571h10.071"/>
    <path d="m21.814 345.27h1.1999"/>
   </g>
  </g>
  <g transform="translate(79.326 -49.485)" fill="none" stroke="#000" stroke-linecap="round">
   <g transform="translate(433.67 -63.856)" stroke-linejoin="bevel" stroke-width="1.0583">
    <path d="m-511.61 405.68v2.1824l0.83939 0.83939v4.197h1.343"/>
    <path d="m-514.29 405.76v1.9306l1.7627 1.7627v8.4779h3.075"/>
    <path d="m-515.97 405.51v3.1897l1.6368 1.6368v10.954l1.7837 1.7837h3.1267"/>
    <path d="m-517.82 405.51v22.664l4.9944 4.9944h3.3156"/>
    <path d="m-509.59 428.17h-2.9379l-3.4415-3.4415v-13.682l-1.7208-1.7208"/>
    <path d="m-402.95 405.37 7.4561-7.6666h-11.95m-110.3 7.6602h10.134l2.9709-2.9709h59.687l3.0218 3.0218h38.96"/>
   </g>
   <g stroke-linejoin="round" stroke-width=".87675">
    <circle transform="scale(1,-1)" cx="-74.472" cy="-369.28" r="1.1713"/>
    <circle transform="scale(1,-1)" cx="-74.472" cy="-359.52" r="1.1713"/>
    <circle transform="scale(1,-1)" cx="-74.729" cy="-364.14" r="1.1713"/>
    <circle transform="scale(1,-1)" cx="-74.472" cy="-354.13" r="1.1713"/>
    <circle transform="scale(1,-1)" cx="-74.472" cy="-349.25" r="1.1713"/>
   </g>
  </g>
  <g fill="none" stroke="#000" stroke-linecap="round">
   <g stroke-linejoin="bevel" stroke-width="1.0583">
    <path d="m28.961 363.75 2.8781-0.03m1.8296-17.67 4.3112-4.3112m-6.0564 4.2782 4.0757-4.1934m-5.6563 4.0288 3.958-4.0757m2.5487 10.684v-6.0969m-1.7158 5.988v-6.0969m-1.6069 6.0424v-6.0969m-1.7158 6.0969v-6.0969m-1.4949 6.062v-6.0969m-1.4393 17.574-0.0239-10.745 9.0395-0.0899 0.03 4.9674-5.9876 5.8677m4.9279-17.393 5.7237-5.3706h7.3929l2.816-2.6983m-17.579 7.9042 5.3706-5.2529v-2.1713l0.3664-0.63462"/>
    <path d="m50.379-92.299h5.2205v-1.6342h-6.5368v-1.6342h6.7184v-1.8158h-6.5368v-1.6342h6.5368v-1.8158h-6.7184v-1.4526h6.7184v-1.8158h-6.7184v-1.8158h6.7184v-1.6342h-6.7184v-1.6342h6.3552v-1.6342h-4.5072l-1.0644-1.0644 9.0374-9.0374h16.759"/>
    <path d="m86.439 385.28 1e-5 4.3654h1.6342v-6.5368l1.6342-1e-5 -1e-5 6.7184 1.8158-1e-5v-6.5368h1.6342v6.5368h1.8158l-1e-5 -6.7184 1.4526 1e-5v6.7184h1.8158l-1e-5 -6.7184 1.8158-1e-5 1e-5 6.7184h1.6342l1e-5 -6.7184 1.6342 1e-5v6.3552h1.6342l-1e-5 -2.9052"/>
    <path d="m132.82 61.756 2.3111 2.3111 1.1556-1.1556-4.6222-4.6222 1.1556-1.1556 4.7506 4.7506 1.284-1.284-4.6222-4.6222 1.1556-1.1556 4.6222 4.6222 1.284-1.284-4.7506-4.7506 1.0272-1.0272 4.7506 4.7506 1.284-1.284-4.7506-4.7506 1.2839-1.284 4.7506 4.7506 1.1556-1.1556-4.7506-4.7506 1.1556-1.1556 4.4938 4.4938 1.1555-1.1556-2.0543-2.0543"/>
    <path d="m-54.805-99.105-2.3111-2.3111-1.1556 1.1556 4.6222 4.6222-1.1556 1.1556-4.7506-4.7506-1.284 1.284 4.6222 4.6222-1.1556 1.1556-4.6222-4.6222-1.284 1.284 4.7506 4.7506-1.0272 1.0272-4.7506-4.7506-1.284 1.284 4.7506 4.7506-1.2839 1.284-4.7506-4.7506-1.1556 1.1556 4.7506 4.7506-1.1556 1.1556-4.4938-4.4938-1.1555 1.1556 2.0543 2.0543"/>
    <path d="m3.8503-4.3256v12.411l7.4622 7.4622h14.133l4.2343-4.2343v-7.7308h-1.6342v6.5368h-1.6342v-6.7184h-1.8158v6.5368h-1.6342v-6.5368h-1.8158v6.7184h-1.4526v-6.7184h-1.8158v6.7184h-1.8158v-6.7184h-1.6342v6.7184h-1.6342v-6.3552h-1.6342v7.0637l-4.5586-4.5587v-59.779l10.782-10.782h4.9532"/>
    <path d="m-29.559-74.814h12.9v-1.6342h-6.5368v-1.6342h6.7184v-1.8158h-6.5368v-1.6342h6.5368v-1.8158h-6.7184v-1.4526h6.7184v-1.8158h-6.7184v-1.8158h6.7184v-1.6342h-6.7184v-1.6342h6.3552v-1.6342h-2.9052"/>
    <path d="m-94.36-15.245-2.2638-2.3574-1.1787 1.1319 4.5276 4.7149-1.1787 1.1319-4.6534-4.8459-1.3097 1.2577 4.5277 4.7149-1.1787 1.1319-4.5276-4.7149-1.3097 1.2577 4.6534 4.8459-1.0478 1.0061-4.6534-4.8459-1.3097 1.2577 4.6534 4.8458-1.3097 1.2577-4.6534-4.8459-1.1787 1.1319 4.6534 4.8459-1.1787 1.1319-4.4019-4.5839-1.1787 1.1319 2.0123 2.0955"/>
   </g>
   <path d="m-105.04 0.28597-3.2334-3.2334" stroke-linejoin="bevel" stroke-width="1.058"/>
   <g stroke-linejoin="bevel" stroke-width="1.0583">
    <path d="m34.558 341.46v-16.245l-3.2372-3.2372"/>
    <path d="m36.089 341.58v-17.069l-2.4132-2.4132"/>
    <path d="m52.343 338.66 2.3111-2.3111-1.1556-1.1556-4.6222 4.6222-1.1556-1.1556 4.7506-4.7506-1.284-1.284-4.6222 4.6222-1.1556-1.1556 4.6222-4.6222-1.284-1.284-4.7506 4.7506-1.0272-1.0272 4.7506-4.7506-1.284-1.284-4.7506 4.7506-1.284-1.2839 4.7506-4.7506-1.1556-1.1556-4.7506 4.7506-1.1556-1.1556 4.4938-4.4938-1.1556-1.1555-2.0543 2.0543-3.5181-3.5181"/>
    <g>
     <path d="m37.972 341.46v-10.712l-1.5303-1.5303"/>
     <path d="m13.53 316.2-2.7811-2.7811v-6.4065l-2.4831-2.4831h-2.1852"/>
     <path d="m20.725 304.19-4.4751-4.4751h-10.191"/>
     <path d="m49.681 304.19h6.0921v3.7606"/>
     <path d="m-19.062 275.53 12.523 12.523"/>
     <path d="m79.476 290.13h-7.6674l-6.9486-6.9486h-6.9486l-10.263-10.263h-5.8704l-5.2913-5.2913v-5.1316l4.3229-4.3229h11.99l4.7872-4.7871h5.5958l5.1141 5.1141h6.0676l2.8327-4.9064-6.7891-6.7891v-12.582l3.7353-3.7353h3.5756l3.1456 3.1455v17.841l4.8966 4.8966-12.195 12.195v4.1532l6.0928 3.5177z"/>
     <path d="m-23.224 271v-1.9635l2.3946-2.3946h57.037"/>
     <path d="m-26.727 270.97v-2.6812l4.7952-4.7952h58.109"/>
    </g>
   </g>
   <path d="m101.67 270h-13.458m17.121 14.246a1.1713 1.1713 0 0 0-1.1713-1.1713 1.1713 1.1713 0 0 0-1.1713 1.1713 1.1713 1.1713 0 0 0 1.1713 1.1713 1.1713 1.1713 0 0 0 1.1713-1.1713zm0.0541-3.4485a1.1713 1.1713 0 0 0-1.1713-1.1713 1.1713 1.1713 0 0 0-1.1713 1.1713 1.1713 1.1713 0 0 0 1.1713 1.1713 1.1713 1.1713 0 0 0 1.1713-1.1713zm0.0765-3.5957a1.1713 1.1713 0 0 0-1.1713-1.1713 1.1713 1.1713 0 0 0-1.1713 1.1713 1.1713 1.1713 0 0 0 1.1713 1.1713 1.1713 1.1713 0 0 0 1.1713-1.1713zm0-3.5957a1.1713 1.1713 0 0 0-1.1713-1.1713 1.1713 1.1713 0 0 0-1.1713 1.1713 1.1713 1.1713 0 0 0 1.1713 1.1713 1.1713 1.1713 0 0 0 1.1713-1.1713zm-0.0922-3.6093a1.1713 1.1713 0 0 0-1.1713-1.1713 1.1713 1.1713 0 0 0-1.1713 1.1713 1.1713 1.1713 0 0 0 1.1713 1.1713 1.1713 1.1713 0 0 0 1.1713-1.1713zm-18.602 14.181a1.1713 1.1713 0 0 0-1.1713-1.1713 1.1713 1.1713 0 0 0-1.1713 1.1713 1.1713 1.1713 0 0 0 1.1713 1.1713 1.1713 1.1713 0 0 0 1.1713-1.1713zm0.0541-3.4485a1.1713 1.1713 0 0 0-1.1713-1.1713 1.1713 1.1713 0 0 0-1.1713 1.1713 1.1713 1.1713 0 0 0 1.1713 1.1713 1.1713 1.1713 0 0 0 1.1713-1.1713zm0.0765-3.5957a1.1713 1.1713 0 0 0-1.1713-1.1713 1.1713 1.1713 0 0 0-1.1713 1.1713 1.1713 1.1713 0 0 0 1.1713 1.1713 1.1713 1.1713 0 0 0 1.1713-1.1713zm0-3.5957a1.1713 1.1713 0 0 0-1.1713-1.1713 1.1713 1.1713 0 0 0-1.1713 1.1713 1.1713 1.1713 0 0 0 1.1713 1.1713 1.1713 1.1713 0 0 0 1.1713-1.1713zm-0.0922-3.6093a1.1713 1.1713 0 0 0-1.1713-1.1713 1.1713 1.1713 0 0 0-1.1713 1.1713 1.1713 1.1713 0 0 0 1.1713 1.1713 1.1713 1.1713 0 0 0 1.1713-1.1713zm14.846 0.1329v14.723l-13.489 0.11979v-14.696" stroke-linejoin="bevel" stroke-width="1.058"/>
   <path d="m65.228 236.82h-13.458m17.121 14.246a1.1713 1.1713 0 0 0-1.1713-1.1713 1.1713 1.1713 0 0 0-1.1713 1.1713 1.1713 1.1713 0 0 0 1.1713 1.1713 1.1713 1.1713 0 0 0 1.1713-1.1713zm0.0541-3.4485a1.1713 1.1713 0 0 0-1.1713-1.1713 1.1713 1.1713 0 0 0-1.1713 1.1713 1.1713 1.1713 0 0 0 1.1713 1.1713 1.1713 1.1713 0 0 0 1.1713-1.1713zm0.0765-3.5957a1.1713 1.1713 0 0 0-1.1713-1.1713 1.1713 1.1713 0 0 0-1.1713 1.1713 1.1713 1.1713 0 0 0 1.1713 1.1713 1.1713 1.1713 0 0 0 1.1713-1.1713zm0-3.5957a1.1713 1.1713 0 0 0-1.1713-1.1713 1.1713 1.1713 0 0 0-1.1713 1.1713 1.1713 1.1713 0 0 0 1.1713 1.1713 1.1713 1.1713 0 0 0 1.1713-1.1713zm-0.0922-3.6093a1.1713 1.1713 0 0 0-1.1713-1.1713 1.1713 1.1713 0 0 0-1.1713 1.1713 1.1713 1.1713 0 0 0 1.1713 1.1713 1.1713 1.1713 0 0 0 1.1713-1.1713zm-18.602 14.181a1.1713 1.1713 0 0 0-1.1713-1.1713 1.1713 1.1713 0 0 0-1.1713 1.1713 1.1713 1.1713 0 0 0 1.1713 1.1713 1.1713 1.1713 0 0 0 1.1713-1.1713zm0.0541-3.4485a1.1713 1.1713 0 0 0-1.1713-1.1713 1.1713 1.1713 0 0 0-1.1713 1.1713 1.1713 1.1713 0 0 0 1.1713 1.1713 1.1713 1.1713 0 0 0 1.1713-1.1713zm0.0765-3.5957a1.1713 1.1713 0 0 0-1.1713-1.1713 1.1713 1.1713 0 0 0-1.1713 1.1713 1.1713 1.1713 0 0 0 1.1713 1.1713 1.1713 1.1713 0 0 0 1.1713-1.1713zm0-3.5957a1.1713 1.1713 0 0 0-1.1713-1.1713 1.1713 1.1713 0 0 0-1.1713 1.1713 1.1713 1.1713 0 0 0 1.1713 1.1713 1.1713 1.1713 0 0 0 1.1713-1.1713zm-0.0922-3.6093a1.1713 1.1713 0 0 0-1.1713-1.1713 1.1713 1.1713 0 0 0-1.1713 1.1713 1.1713 1.1713 0 0 0 1.1713 1.1713 1.1713 1.1713 0 0 0 1.1713-1.1713zm14.846 0.1329v14.723l-13.489 0.11979v-14.696" stroke-linejoin="bevel" stroke-width="1.058"/>
   <g>
    <g stroke-linejoin="bevel" stroke-width="1.0583">
     <path d="m-88.646 284.34 4.3561-4.356h10.426l7.3553-7.3553v-3.5706l4.7131-4.7131h23.066l7.7481 0.0357 2.8564 2.8564v4.1775"/>
     <path d="m-49.995 264.06v-14.407l2.0888-2.0888v-14.532l-1.3211-1.3211h-23.188l-4.6031 4.6031"/>
     <path d="m86.296 268.73 1.5761-1.5761h9.9821v-10.624l7.1801-7.1801v-9.1065l-13.563-13.563h-43.83l-2.8251-2.8251v-36.066l3.7558-3.7558h13.238l7.277-7.277h16.373l3.6636 3.6636h8.434"/>
     <path d="m43.368 224.98 3.2459 3.2459h32.217l8.3569 8.3569v20.662l-12.027 12.027v2.9915l2.0931 1.2084h7.0026"/>
     <path d="m48.229 235.95-8.5786-8.5786"/>
     <path d="m6.271 219.81 2.8736-2.8736h7.4714l3.8076 3.8076v4.6696l-3.5561 3.5561h-10.453z"/>
     <path d="m36.013 223.69v15.949h-9.1956v-12.644l3.5202-3.3765z"/>
     <path d="m34.72 207.16v-3.8794"/>
    </g>
    <circle transform="scale(1,-1)" cx="34.72" cy="-201.42" r="1.1713" stroke-linejoin="round" stroke-width=".87675"/>
    <g stroke-linejoin="bevel" stroke-width="1.0583">
     <path d="m37.8 241.42 6.2381 6.2382h3.3864"/>
     <path d="m-51.359 264.06v-15.13l2.1614-2.1614v-10.641l1.0253-1.0253"/>
     <path d="m68.662 251.91 2.6059 2.6059"/>
    </g>
    <circle transform="scale(1,-1)" cx="72.254" cy="-255.43" r="1.1713" stroke-linejoin="round" stroke-width=".87675"/>
    <g stroke-linejoin="bevel" stroke-width="1.0583">
     <path d="m91.378 305.94h-3.0089v9.3275l-8.4381 4.8718h-3.8982"/>
     <path d="m-20.523 268.89 0.03 2.8781m17.374 5.0237 4.58 4.7144m-4.4153-6.3608 4.3112 4.3112m-4.1794-5.8588 4.3112 4.3112m-4.2782-6.0564 4.3112 4.3112m-4.1465-5.8918 4.3112 4.3112m-10.919 2.1956h6.0969m-5.988-1.7158h6.0969m-6.0424-1.6069h6.0969m-6.0969-1.7158h6.0969m-6.062-1.4949h6.0969m-17.574-1.4393 10.745-0.0239 0.0899 9.0395-4.9674 0.03-5.8677-5.9876"/>
     <path d="m1.6986 274.57h39.449l-3.9651-3.965h-18.481"/>
    </g>
    <g>
     <circle transform="scale(1,-1)" cx="17.357" cy="-270.67" r="1.1713" stroke-linejoin="round" stroke-width=".87675"/>
     <path d="m1.7658 276.18h43.011" stroke-linejoin="bevel" stroke-width="1.0583"/>
     <path d="m1.6314 278h43.078l2.0497 2.0497h2.7218" stroke-linejoin="bevel" stroke-width="1.0583"/>
     <circle transform="scale(1,-1)" cx="50.758" cy="-280.01" r="1.1713" stroke-linejoin="round" stroke-width=".87675"/>
     <circle transform="scale(1,-1)" cx="46.39" cy="-275.84" r="1.1713" stroke-linejoin="round" stroke-width=".87675"/>
     <path d="m1.6986 279.74h42.608l4.9395 4.9395h3.8643" stroke-linejoin="bevel" stroke-width="1.0583"/>
     <circle transform="scale(1,-1)" cx="54.32" cy="-284.38" r="1.1713" stroke-linejoin="round" stroke-width=".87675"/>
     <path d="m1.5642 281.56h42.473l3.9651 3.9651-2.0497 2.0497h-44.657" stroke-linejoin="bevel" stroke-width="1.0583"/>
     <circle transform="scale(1,-1)" cx="-.048721" cy="-287.67" r="1.1713" stroke-linejoin="round" stroke-width=".87675"/>
    </g>
    <g stroke-linejoin="bevel" stroke-width="1.0583">
     <path d="m92.691 254.31h3.2684v-1.6342h-6.5368v-1.6342h6.7184v-1.8158h-6.5368v-1.6342h6.5368v-1.8158h-6.7184v-1.4526h6.7184v-1.8158h-6.7184v-1.8158h6.7184v-1.6342h-6.7184v-1.6342h6.3552v-1.6342h-2.9052"/>
     <g>
      <path d="m79.215 267.77 13.314-13.424"/>
      <path d="m79.325 267.77v1.8783h4.751"/>
      <path d="m75.789 316.94h3.3146l6.5857-3.8023v-7.4674l3.944-3.944h8.0321v-5.1159"/>
      <path d="m74.464 307.77v-2.7622l-3.3699-3.3699h-49.774l-6.7121-6.7121h-7.9827"/>
     </g>
    </g>
    <g>
     <circle transform="scale(1,-1)" cx="4.9671" cy="-294.84" r="1.1713" stroke-linejoin="round" stroke-width=".87675"/>
     <path d="m76.121 313.18h2.0993l2.8593-1.6508v-7.0777l-4.5786-4.5785h-54.077l-6.8812-6.8812v-2.0197h51.739l3.0384 3.0384h8.7092l4.4331 4.17" stroke-linejoin="bevel" stroke-width="1.0583"/>
     <circle transform="scale(1,-1)" cx="83.524" cy="-302.13" r="1.1713" stroke-linejoin="round" stroke-width=".87675"/>
    </g>
    <g stroke-linejoin="bevel" stroke-width="1.0583">
     <path d="m22.645 294.07h2.5412l1.5468 1.5468h7.4026"/>
     <path d="m46.621 295.5h30.274l5.6348 5.6348"/>
     <path d="m83.495 298.47v1.9539"/>
     <path d="m74.266 325.36v10.736l-7.5649 4.3676v1.3453"/>
     <path d="m56.142 326.64 6.2054 6.2054h3.2504"/>
     <path d="m92.587 235.82v-6.0084l10.736 10.736v8.3724l-5.4174 5.4174v-7.3874l1.6745-1.6745"/>
    </g>
    <circle transform="scale(1,-1)" cx="100.47" cy="-244" r="1.1713" stroke-linejoin="round" stroke-width=".87675"/>
    <g stroke-linejoin="bevel" stroke-width="1.0583">
     <path d="m60.023 196.58-0.0477-8.3009h1.6697v8.7302h1.6697v-8.6825h1.7174v8.6825h1.7174v-8.6825h1.8128v8.6825h1.622v-8.6825h1.6697v8.6825h1.7174v-8.6825h1.7174v8.6825m-28.838-0.11927v-8.7302h1.6697v8.7302h1.6697v-8.6825h1.7174v8.6825h1.7174v-8.6825h1.8128v8.6825h1.622v-8.6825h1.6697v8.6825h1.7174v-8.6825h1.7174v8.6825"/>
     <path d="m75.546 197.01 3.2504-3.2504h10.145v-5.6144l1.6745-1.6745h5.2204l3.5952-3.5952v-1.1327"/>
     <path d="m46.391 196.82v6.9934l28.756 16.602v4.4762h-13.194l-6.1385-3.544v-3.7448"/>
    </g>
    <circle transform="scale(1,-1)" cx="55.748" cy="-215.93" r="1.1713" stroke-linejoin="round" stroke-width=".87675"/>
    <path d="m78.372 183.91h-14.273l-1.461 1.461h-14.61" stroke-linejoin="bevel" stroke-width="1.0583"/>
   </g>
   <path d="m-27.793 236.98 3.0983-2.871 20.504-0.0761 5.616-5.616v-12.408l1.6712-1.6712v-7.5063l5.3624-5.3624h3.13l6.0297 6.0297v6.1537l5.7906 5.7906h9.3872m-11.884 11.346-3.4947 3.4947h-14.962l-3.5838 3.5838-22.362-0.24096-18.056 18.88h-6.0222v-5.7725l3.4106-3.4106m54.434-37.268v1.9113l-6.7701 6.7701v10.892l-6.3594 6.3594-21.263-0.14456-10.85 11.253-5.7017 5.7017h-2.6841m-2.7284 8.0822h3.2484l19.969-21.374 35.663 0.14457 6.9206 6.9206v3.6669" stroke-linejoin="bevel" stroke-width="1.058"/>
   <g>
    <g stroke-linejoin="round" stroke-width=".87675">
     <circle transform="scale(1,-1)" cx="-47.32" cy="-260.66" r="1.1713"/>
     <circle transform="scale(1,-1)" cx="10.101" cy="-208.57" r="1.1713"/>
     <circle transform="scale(1,-1)" cx="34.533" cy="-219.48" r="1.1713"/>
     <circle transform="scale(1,-1)" cx="22.255" cy="-229.53" r="1.1713"/>
    </g>
    <g stroke-linejoin="bevel" stroke-width="1.0583">
     <path d="m-34.833 239.36-1.0999 1.0999 0.71139 0.71139-6.1784 6.1784-0.80303-0.80302-1.0489 1.0488-1.1964-1.1964 1.1144-1.1144-0.65554-0.65555 6.0637-6.0637 0.52443 0.52443 1.1472-1.1472z"/>
     <path d="m-35.29 238.34 1.0542-1.0542h6.139"/>
     <path d="m11.838 255.57v-5.0848l-9.3635-9.3635h-24.742l-4.9298 4.9298v16.34"/>
    </g>
    <circle transform="scale(1,-1)" cx="-27.105" cy="-263.76" r="1.1713" stroke-linejoin="round" stroke-width=".87675"/>
    <g stroke-linejoin="bevel" stroke-width="1.0583">
     <path d="m-5.0079 261.31-0.0477-8.3009h1.6697v8.7302h1.6697v-8.6825h1.7174v8.6825h1.7174v-8.6825h1.8128v8.6825h1.622v-8.6825h1.6697v8.6825h1.7174v-8.6825h1.7174v8.6825m-28.838-0.11927v-8.7302h1.6697v8.7302h1.6697v-8.6825h1.7174v8.6825h1.7174v-8.6825h1.8128v8.6825h1.622v-8.6825h1.6697v8.6825h1.7174v-8.6825h1.7174v8.6825"/>
     <g>
      <path d="m-18.919 261.53h-5.7049l-1.5995 0.92345"/>
      <path d="m12.086 261.65h-1.8603"/>
      <path d="m49.539 209.99v-4.0565"/>
      <path d="m49.539 222.16v3.8586"/>
      <path d="m68.535 215.93v-3.265l-15.209-8.7808v-4.18l1.4703-1.4703h9.5832v4.2405l2.6775 1.5458"/>
     </g>
    </g>
    <circle transform="scale(1,-1)" cx="68.634" cy="-205.04" r="1.1713" stroke-linejoin="round" stroke-width=".87675"/>
    <path d="m157.29 239.4v5.8817l-18.154 18.154h-3.676l-4.7223-4.7223v-8.9074l-7.2531-7.2531v-23.173l-2.3929-1.3816" stroke-linejoin="bevel" stroke-width="1.0583"/>
    <g stroke-linejoin="round" stroke-width=".87675">
     <circle transform="scale(1,-1)" cx="119.51" cy="-217.35" r="1.1713"/>
     <circle transform="scale(1,-1)" cx="198.38" cy="-182.61" r="1.1713"/>
     <circle transform="scale(1,-1)" cx="189.8" cy="-211.76" r="1.1713"/>
    </g>
   </g>
   <path d="m148.6 238.86-9.5164-9.5164m2.0335 22.18a1.1713 1.1713 0 0 0 0-1.6565 1.1713 1.1713 0 0 0-1.6565 1e-5 1.1713 1.1713 0 0 0 0 1.6565 1.1713 1.1713 0 0 0 1.6565 1e-5zm2.4767-2.4002a1.1713 1.1713 0 0 0-1e-5 -1.6565 1.1713 1.1713 0 0 0-1.6565 0 1.1713 1.1713 0 0 0 0 1.6565 1.1713 1.1713 0 0 0 1.6565 1e-5zm2.5967-2.4885a1.1713 1.1713 0 0 0 0-1.6565 1.1713 1.1713 0 0 0-1.6565 1e-5 1.1713 1.1713 0 0 0 0 1.6565 1.1713 1.1713 0 0 0 1.6565 1e-5zm2.5426-2.5426a1.1713 1.1713 0 0 0 0-1.6565 1.1713 1.1713 0 0 0-1.6565 0 1.1713 1.1713 0 0 0 0 1.6565 1.1713 1.1713 0 0 0 1.6565 0zm2.487-2.6174a1.1713 1.1713 0 0 0 0-1.6565 1.1713 1.1713 0 0 0-1.6565 0 1.1713 1.1713 0 0 0 0 1.6565 1.1713 1.1713 0 0 0 1.6565 0zm-23.181-3.1263a1.1713 1.1713 0 0 0 0-1.6565 1.1713 1.1713 0 0 0-1.6565 0 1.1713 1.1713 0 0 0-1e-5 1.6565 1.1713 1.1713 0 0 0 1.6565-1e-5zm2.4767-2.4002a1.1713 1.1713 0 0 0 1e-5 -1.6565 1.1713 1.1713 0 0 0-1.6565 1e-5 1.1713 1.1713 0 0 0 0 1.6565 1.1713 1.1713 0 0 0 1.6565 0zm2.5967-2.4885a1.1713 1.1713 0 0 0 0-1.6565 1.1713 1.1713 0 0 0-1.6565 0 1.1713 1.1713 0 0 0-1e-5 1.6565 1.1713 1.1713 0 0 0 1.6565-1e-5zm2.5426-2.5426a1.1713 1.1713 0 0 0 1e-5 -1.6565 1.1713 1.1713 0 0 0-1.6565 1e-5 1.1713 1.1713 0 0 0 0 1.6565 1.1713 1.1713 0 0 0 1.6565 0zm2.487-2.6174a1.1713 1.1713 0 0 0 0-1.6565 1.1713 1.1713 0 0 0-1.6565 0 1.1713 1.1713 0 0 0-1e-5 1.6565 1.1713 1.1713 0 0 0 1.6565-1e-5zm10.403 10.591-10.411 10.411-9.6226-9.4531 10.392-10.392" stroke-linejoin="bevel" stroke-width="1.058"/>
  </g>
  <g transform="matrix(0 -1 -1 0 516.88 144.37)" fill="none" stroke="#000" stroke-linecap="round">
   <g transform="translate(433.67 -63.856)" stroke-linejoin="bevel" stroke-width="1.0583">
    <path d="m-511.61 405.68v2.1824l0.83939 0.83939v4.197h39.921v-6.7286"/>
    <path d="m-514.29 405.76v1.9306l1.7627 1.7627v8.4779h38.077"/>
    <path d="m-515.97 405.51v3.1897l1.6368 1.6368v10.954l1.7837 1.7837h12.072l15.858 16.696"/>
    <path d="m-517.82 405.51v22.664l4.9944 4.9944h5.552l12.32 12.32v1.0745"/>
    <path d="m-517.69 409.33 1.7208 1.7208v13.682l3.4415 3.4415h8.6686l14.51 14.51"/>
    <path d="m-511.59 405.36h-6.1552"/>
   </g>
   <g>
    <g stroke-linejoin="round" stroke-width=".87675">
     <circle transform="scale(1,-1)" cx="-61.053" cy="-384.09" r="1.1713"/>
     <circle transform="scale(1,-1)" cx="-39.249" cy="-354.21" r="1.1713"/>
     <circle transform="scale(1,-1)" cx="-54.461" cy="-379.8" r="1.1713"/>
     <circle transform="scale(1,-1)" cx="-37.012" cy="-341.13" r="1.1713"/>
     <circle transform="scale(1,-1)" cx="-49.871" cy="-376.78" r="1.1713"/>
     <circle transform="rotate(-90)" cx="-374.04" cy="-36.775" r="1.1713"/>
    </g>
    <path d="m-40.62 384.22v18.43l-8.7066 5.0268v2.5322" stroke-linejoin="bevel" stroke-width="1.0583"/>
    <path d="m-57.607 395.09h6.2001l1.6285 2.8206" stroke-linejoin="bevel" stroke-width="1.0583"/>
   </g>
  </g>
  <g fill="none" stroke="#000" stroke-linecap="round">
   <path d="m179.18 185.2h18.031l-13.139 13.139v13.418h3.9137" stroke-linejoin="bevel" stroke-width="1.0583"/>
   <g stroke-linejoin="round" stroke-width=".87675">
    <circle transform="scale(1,-1)" cx="160.59" cy="-240.41" r="1.1713"/>
    <circle transform="scale(1,-1)" cx="177.78" cy="-230.21" r="1.1713"/>
    <circle transform="scale(1,-1)" cx="117.8" cy="-193.66" r="1.1713"/>
   </g>
   <path d="m111.17 202.74h-1.8685" stroke-linejoin="bevel" stroke-width="1.0583"/>
   <g stroke-linejoin="round" stroke-width=".87675">
    <circle transform="scale(1,-1)" cx="57.491" cy="-380.17" r="1.1713"/>
    <circle transform="scale(1,-1)" cx="106.32" cy="-482.73" r="1.1713"/>
    <circle transform="scale(1,-1)" cx="129.32" cy="-421.29" r="1.1713"/>
    <circle transform="scale(1,-1)" cx="126.55" cy="-457.26" r="1.1713"/>
    <circle transform="scale(1,-1)" cx="105.78" cy="-412.94" r="1.1713"/>
    <circle transform="scale(1,-1)" cx="112.35" cy="-411" r="1.1713"/>
    <circle transform="scale(1,-1)" cx="123.46" cy="-401.76" r="1.1713"/>
   </g>
  </g>
  <g transform="rotate(-90 67.014 283.16)" fill="none" stroke="#000" stroke-linecap="round">
   <g transform="translate(433.67 -63.856)" stroke-linejoin="bevel" stroke-width="1.0583">
    <path d="m-511.61 405.68v2.1824l0.83939 0.83939v4.197h1.343"/>
    <path d="m-514.29 405.76v1.9306l1.7627 1.7627v8.4779h3.2736"/>
    <path d="m-515.97 405.51v3.1897l1.6368 1.6368v10.954l1.7837 1.7837h3.1267"/>
    <path d="m-517.82 405.51v22.664l4.9944 4.9944h3.3156"/>
    <path d="m-509.59 428.17h-2.9379l-3.4415-3.4415v-13.682l-1.7208-1.7208"/>
    <path d="m-511.59 405.36h-6.1552"/>
   </g>
   <g stroke-linejoin="round" stroke-width=".87675">
    <circle transform="scale(1,-1)" cx="-74.472" cy="-369.28" r="1.1713"/>
    <circle transform="scale(1,-1)" cx="-74.472" cy="-359.52" r="1.1713"/>
    <circle transform="scale(1,-1)" cx="-74.729" cy="-364.14" r="1.1713"/>
    <circle transform="scale(1,-1)" cx="-74.472" cy="-354.13" r="1.1713"/>
    <circle transform="scale(1,-1)" cx="-74.472" cy="-349.25" r="1.1713"/>
   </g>
  </g>
  <g fill="none" stroke="#000" stroke-linecap="round">
   <g stroke-linejoin="bevel" stroke-width="1.0583">
    <path d="m93.861 499.96-8.3009-0.0477v1.6697h8.7302v1.6697h-8.6825v1.7174h8.6825v1.7174h-8.6825v1.8128h8.6825v1.622h-8.6825v1.6697h8.6825v1.7174h-8.6825v1.7174h8.6825m-0.11927-28.838h-8.7302v1.6697h8.7302v1.6697h-8.6825v1.7174h8.6825v1.7174h-8.6825v1.8128h8.6825v1.622h-8.6825v1.6697h8.6825v1.7174h-8.6825v1.7174h8.6825"/>
    <g>
     <path d="m94.288 515.19 3.3336-3.3336v-17.796l7.6674-7.6674h5.2056l6.7314-6.7314v-5.8082l-3.1606-3.1605"/>
     <path d="m84.134 415.28h1.1283v5.1287h-1.1283"/>
     <path d="m86.8 425.33v-1.5386l-1.6925-1.6925v-1.6925"/>
     <path d="m102.92 441.98 3.0236 3.0236h6.0952l2.0877 2.0877v11.686l5.0513 5.0513v6.5631"/>
     <path d="m115.69 445.43h-1.1518l-1.9111-1.9801h-5.9598l-2.4175-2.4175v-5.2971l-5.4624-5.4624h-7.1901l-3.22-3.22v-10.419l-4.9171-4.9171"/>
    </g>
    <path d="m108.31 428.41-0.0477-8.3009h1.6697v8.7302h1.6697v-8.6825h1.7174v8.6825h1.7174v-8.6825h1.8128v8.6825h1.622v-8.6825h1.6697v8.6825h1.7174v-8.6825h1.7174v12.491m-28.838-3.9278v-8.7302h1.6697v8.7302h1.6697v-8.6825h1.7174v8.6825h1.7174v-8.6825h1.8128v8.6825h1.622v-8.6825h1.6697v8.6825h1.7174v-8.6825h1.7174v8.6825"/>
    <g>
     <path d="m94.761 428.73h-2.4957l-2.5436-2.5436v-10.607l2.2797-2.2797h8.6148l1.4339-0.82786v-0.92389"/>
     <path d="m130.08 416.06h-17.47l-5.8072-5.8072v-3.5035h-3.4075"/>
     <path d="m105.38 403.06h-2.0011"/>
     <path d="m116.68 453.8v1.7311l-1.2984 1.2984v1.1252l5.0636 5.0636v6.1889h4.5443l1.4715-1.4715v-9.0886"/>
     <path d="m132.96 422.81v-1.9043l-3.4623-3.4623h-20.947l-2.6833-2.6833"/>
     <path d="m123.43 432.68-2.4236 2.4236h-4.1548v1.3849"/>
     <path d="m136.76 438.13h4.2413l1.2984-1.2984h5.5397v9.8676l-4.3279 4.3279h-3.5143l-2.0774-2.0774h-1.1023"/>
     <path d="m125.18 427.98v-2.7072l3.0257-3.0257"/>
     <path d="m82.583 436.54v3.5489l2.8917 2.8917v41.404h8.6751v1.7087"/>
     <path d="m106.53 468.21v-2.5787l-7.281-7.281v-20.023l-2.8821-2.8821h-10.011v5.9158l1.1377 1.1377v39.363h6.5984l2.1995 2.1994v6.1434h2.6545l3.0338-3.0338v-20.43"/>
     <path d="m113.97 477.92v1.9719l-2.8062 2.8062h-3.413"/>
    </g>
   </g>
   <g stroke-linejoin="round" stroke-width=".87675">
    <circle transform="scale(1,-1)" cx="101.93" cy="-465.5" r="1.1713"/>
    <circle transform="scale(1,-1)" cx="13.278" cy="-82.954" r="1.1713"/>
    <circle transform="scale(1,-1)" cx="92.02" cy="-439.7" r="1.1713"/>
    <circle transform="scale(1,-1)" cx="107.97" cy="-391.93" r="1.1713"/>
   </g>
   <g>
    <g stroke-linejoin="bevel" stroke-width="1.0583">
     <path d="m104.82 386.31v-2.3312l6.5136 6.5136v3.9082l-1.4056 1.4056h-6.8908"/>
     <path d="m81.783 406.33-2.0336-1.1741h-3.5887l-0.61306-1.0618 4.6737-4.6737h1.6988"/>
     <path d="m82.057 395.9h-1.2342v-8.6392l-3.7711-3.7711h-13.233l-2.9826-2.9825"/>
     <path d="m60.528 380.27h-1.7827"/>
     <path d="m86.445 386.03"/>
     <path d="m86.445 384.8-1.7612-1.9534h-5.2324l3.3765 3.3765v3.7879l1.9457 1.9457h21.829"/>
     <path d="m92.821 476.14v2.2029l6.3082 6.3082h2.5033"/>
     <path d="m92.621 463.33v-5.0065l5.0065-5.0065v-8.8115l-4.3056-3.7048"/>
     <path d="m72.854 364.61 4.0466-3.5184h6.7087l9.3622 9.3622-4.0553 4.0553-8.411-8.411h-9.3121z"/>
     <path d="m206.22 71.757-4.9508-4.9508h-8.4388l-6.8995-6.8995h-15.104v-2.0541"/>
     <path d="m185.5 59.75h4.7179l6.7231 6.7231"/>
     <path d="m-96.043-68.32 1.2178-1.2178h6.0891l3.5573-3.5573v-7.403l-1.8748-1.8748h-2.9003"/>
     <path d="m46.292-147.83h-5.8109l-15.375 15.375"/>
    </g>
    <circle cx="22.807" cy="-129.92" r="1.1713" stroke-linejoin="round" stroke-width=".87675"/>
    <g stroke-linejoin="bevel" stroke-width="1.0583">
     <path d="m185.21-20.747 2.0502-2.0502v-9.1718l7.9309-7.9309h6.7439l17.237-17.238v-5.584"/>
     <path d="m167.29-12.762v-2.1581l2.5622-1.4793v-1.1104"/>
     <path d="m140.12-74.27v16.017"/>
     <path d="m141.93-74.593v13.369l6.9429 6.9429h19.989l6.5715 6.5716h7.6372l3.6571-3.6572v-11.316"/>
     <path d="m143.44-74.416v11.924l3.6436 3.6436h4.5268v-2.5394"/>
     <path d="m151.61-74.637v-2.429h-8.3202"/>
    </g>
    <circle cx="140.07" cy="-56.744" r="1.1713" stroke-linejoin="round" stroke-width=".87675"/>
    <circle cx="186.64" cy="-64.018" r="1.1713" stroke-linejoin="round" stroke-width=".87675"/>
    <g stroke-linejoin="bevel" stroke-width="1.0583">
     <path d="m52.79-62.674-2.6889-2.6889h-2.6889"/>
     <path d="m165.1-76.137h-2.008l-1.7152 1.7152v1.3805"/>
     <path d="m157.74-58.651v1.255l0.74592 0.43064h1.1785"/>
     <path d="m117.8 1.8313h-5.8586l-7.1235-7.1235v-7.7892l21.47-21.47h2.9626v10.286"/>
     <path d="m13.088 83.905v3.8034l-4.3509 2.512v9.2784"/>
    </g>
    <circle transform="scale(1,-1)" cx="8.7143" cy="-100.64" r="1.1713" stroke-linejoin="round" stroke-width=".87675"/>
    <path d="m50.37-92.384-1.8012 1.8012v18.372l1.4901 1.4901h3.848" stroke-linejoin="bevel" stroke-width="1.0583"/>
   </g>
  </g>
 </g>
</svg>
