<svg xmlns="http://www.w3.org/2000/svg" width="40.147" height="40.151" viewBox="0 0 40.147 40.151">
  <path id="Caminho_259" data-name="Caminho 259" d="M5465.124,7966.314l0,0-15.563-15.562a3.512,3.512,0,0,0-4.967,0l-15.554,15.554-.016.016a3.51,3.51,0,0,0,2.337,5.983.9.9,0,0,0,.109.006h.62v11.452a4.116,4.116,0,0,0,4.11,4.111h6.089a1.119,1.119,0,0,0,1.118-1.118v-8.979a1.877,1.877,0,0,1,1.875-1.875h3.591a1.878,1.878,0,0,1,1.876,1.875v8.979a1.118,1.118,0,0,0,1.117,1.118h6.089a4.115,4.115,0,0,0,4.111-4.111v-11.452h.575a3.513,3.513,0,0,0,2.486-5.994Zm-1.583,3.384" transform="translate(-5427.001 -7948.72)" fill="none" stroke="#21ffb5" stroke-miterlimit="10" stroke-width="2"/>
</svg>
