<svg xmlns="http://www.w3.org/2000/svg" width="39.879" height="36.69" viewBox="0 0 39.879 36.69">
  <g id="Grupo_700" data-name="Grupo 700" transform="translate(-5782.125 -7942.909)" opacity="0.65">
    <path id="Caminho_262" data-name="Caminho 262" d="M5816.521,7942.909h-28.914a5.489,5.489,0,0,0-5.482,5.483v17.695a5.488,5.488,0,0,0,5.463,5.482v8.03l11.539-8.03h17.394a5.489,5.489,0,0,0,5.483-5.482v-17.695a5.49,5.49,0,0,0-5.483-5.483Zm3.146,23.178a3.15,3.15,0,0,1-3.146,3.146h-18.127l-8.47,5.894v-5.894h-2.317a3.151,3.151,0,0,1-3.146-3.146v-17.695a3.15,3.15,0,0,1,3.146-3.146h28.914a3.149,3.149,0,0,1,3.146,3.146Zm0,0" fill="#fff"/>
    <rect id="Retângulo_367" data-name="Retângulo 367" width="18.532" height="2.337" transform="translate(5792.875 7951.166)" fill="#fff"/>
    <rect id="Retângulo_368" data-name="Retângulo 368" width="18.532" height="2.337" transform="translate(5792.875 7956.151)" fill="#fff"/>
    <rect id="Retângulo_369" data-name="Retângulo 369" width="18.532" height="2.337" transform="translate(5792.875 7961.136)" fill="#fff"/>
  </g>
</svg>
