<svg xmlns="http://www.w3.org/2000/svg" width="37.516" height="32.973" viewBox="0 0 37.516 32.973">
  <g id="Grupo_701" data-name="Grupo 701" transform="translate(-5240.526 -7946.267)" opacity="0.65">
    <path id="Caminho_263" data-name="Caminho 263" d="M5276.95,7950.664h-9.972v-1.1a3.3,3.3,0,0,0-3.3-3.3h-8.792a3.3,3.3,0,0,0-3.3,3.3v1.1h-9.965a1.1,1.1,0,0,0-1.1,1.1v24.18a3.3,3.3,0,0,0,3.3,3.3h30.921a3.3,3.3,0,0,0,3.3-3.3v-24.162a1.067,1.067,0,0,0-1.092-1.117Zm-23.161-1.1a1.1,1.1,0,0,1,1.1-1.1h8.792a1.1,1.1,0,0,1,1.1,1.1v1.1h-10.991Zm21.629,3.3L5272,7963.1a1.1,1.1,0,0,1-1.042.752h-6.182v-1.1a1.1,1.1,0,0,0-1.1-1.1h-8.792a1.1,1.1,0,0,0-1.1,1.1v1.1h-6.183a1.1,1.1,0,0,1-1.042-.752l-3.414-10.239Zm-12.837,10.991v2.2h-6.594v-2.2Zm13.263,12.09a1.1,1.1,0,0,1-1.1,1.1h-30.921a1.1,1.1,0,0,1-1.1-1.1v-17.408l1.753,5.261a3.294,3.294,0,0,0,3.128,2.255h6.183v1.1a1.1,1.1,0,0,0,1.1,1.1h8.792a1.1,1.1,0,0,0,1.1-1.1v-1.1h6.182a3.293,3.293,0,0,0,3.128-2.255l1.754-5.261Zm0,0" fill="#fff"/>
  </g>
</svg>
