<svg xmlns="http://www.w3.org/2000/svg" width="41.998" height="42.001" viewBox="0 0 41.998 42.001">
  <g id="Grupo_699" data-name="Grupo 699" transform="translate(-5588.505 -7941.753)" opacity="0.65">
    <path id="Caminho_260" data-name="Caminho 260" d="M5630.324,7943.019a1.229,1.229,0,0,0-1.087-1.087c-9.738-1.082-18.039,2.813-24.81,9.783a50.992,50.992,0,0,0-5.053,6.144,9.77,9.77,0,0,0-7.028,2.909l-3.481,3.48a1.231,1.231,0,0,0,1.189,2.059,17.063,17.063,0,0,1,3.38-.527,9.5,9.5,0,0,1,1.162.009c-.768,1.477-1.357,2.715-1.552,3.025a1.229,1.229,0,0,0,.172,1.525l2.014,2.014c-2.931,4-2.98,6.045-2.97,6.335a1.237,1.237,0,0,0,1.294,1.19c.687,0,2.658-.291,6.245-2.955l2.118,2.118a1.232,1.232,0,0,0,1.536.165c.331-.213,1.5-.777,2.893-1.507a30.017,30.017,0,0,1-.425,4.642,1.231,1.231,0,0,0,2.087,1.051l3.481-3.481a9.715,9.715,0,0,0,2.759-6.961,50.912,50.912,0,0,0,6.465-5.314c6.9-6.771,10.679-15.009,9.611-24.617Zm-2.354,1.266a24.579,24.579,0,0,1-.623,7.714,11.779,11.779,0,0,1-7.1-7.106,24.789,24.789,0,0,1,7.719-.608Zm-34.7,19.035.812-.812a7.768,7.768,0,0,1,3.529-2.007c-.663,1.053-1.255,2.059-1.777,2.988a9.9,9.9,0,0,0-2.564-.169Zm2.328,5.926c.267-.526.589-1.185,1.18-2.3l1.62,1.621q-.9.969-1.637,1.843Zm6.018-.471a3.639,3.639,0,0,1,2.824-1.083,3.676,3.676,0,0,1-1.084,2.823c-3.82,3.821-6.439,5.527-8,6.288.773-1.6,2.483-4.246,6.265-8.028Zm1.384,7.872-1.269-1.269q.869-.738,1.838-1.643l1.724,1.725c-1.134.6-1.607.833-2.293,1.187Zm6.744,1.524-.985.985a12.022,12.022,0,0,0-.06-2.734c.9-.51,1.887-1.087,2.917-1.734a7.255,7.255,0,0,1-1.872,3.483Zm-2.211-3.952-2.206-2.206c1.633-1.8,1.572-3.528,1.572-5.55a1.23,1.23,0,0,0-1.231-1.23c-1.889,0-3.707-.1-5.549,1.572l-2.107-2.107c5.753-10.089,12.4-16.476,19.875-19.106a14.218,14.218,0,0,0,8.749,8.765c-2.646,7.431-9.031,14.077-19.1,19.862Zm0,0" fill="#fff"/>
    <path id="Caminho_261" data-name="Caminho 261" d="M5619.53,7952.726a6.153,6.153,0,1,0,0,8.7,6.16,6.16,0,0,0,0-8.7Zm-1.741,6.962a3.692,3.692,0,1,1,0-5.222,3.7,3.7,0,0,1,0,5.222Zm0,0" fill="#fff"/>
  </g>
</svg>
