<svg xmlns="http://www.w3.org/2000/svg" width="37" height="37" viewBox="0 0 37 37">
  <path id="Caminho_264" data-name="Caminho 264" d="M5082.533,7961.761l-1.584-1.677a10.79,10.79,0,0,1-2.951-7.124l-.065-2.306a1.447,1.447,0,0,0-1.4-1.4l-2.307-.065a10.792,10.792,0,0,1-7.124-2.951l-1.676-1.584a1.445,1.445,0,0,0-1.986,0l-1.677,1.585a10.8,10.8,0,0,1-7.124,2.951l-2.306.064a1.447,1.447,0,0,0-1.405,1.4l-.064,2.306a10.8,10.8,0,0,1-2.951,7.124l-1.585,1.677a1.444,1.444,0,0,0,0,1.986l1.585,1.676a10.8,10.8,0,0,1,2.951,7.124l.064,2.307a1.446,1.446,0,0,0,1.405,1.4l2.306.065a10.787,10.787,0,0,1,7.124,2.951l1.677,1.585a1.447,1.447,0,0,0,1.986,0l1.676-1.585a10.79,10.79,0,0,1,7.124-2.951l2.307-.065a1.446,1.446,0,0,0,1.4-1.4l.065-2.307a10.791,10.791,0,0,1,2.951-7.124l1.585-1.676a1.446,1.446,0,0,0,0-1.986Zm-3.685,1.676a13.684,13.684,0,0,0-3.74,9.029l-.027.94-.94.027a13.679,13.679,0,0,0-9.029,3.74l-.683.646-.684-.646a13.679,13.679,0,0,0-9.029-3.74l-.94-.027-.027-.94a13.68,13.68,0,0,0-3.74-9.029l-.646-.683.646-.684a13.676,13.676,0,0,0,3.74-9.029l.027-.94.94-.027a13.682,13.682,0,0,0,9.029-3.74l.684-.646.683.646a13.682,13.682,0,0,0,9.029,3.74l.94.027.027.94a13.68,13.68,0,0,0,3.74,9.029l.646.684Zm-7.138-4.335-3.831-1.13-2.258-3.294a1.445,1.445,0,0,0-2.385,0l-2.258,3.294-3.831,1.13a1.445,1.445,0,0,0-.737,2.267l2.436,3.166-.11,3.993a1.445,1.445,0,0,0,1.929,1.4l3.764-1.338,3.763,1.338a1.445,1.445,0,0,0,1.929-1.4l-.11-3.993,2.436-3.166a1.445,1.445,0,0,0-.737-2.267Zm-4.3,4.078a1.443,1.443,0,0,0-.3.921l.066,2.4-2.26-.8a1.454,1.454,0,0,0-.969,0l-2.26.8.066-2.4a1.445,1.445,0,0,0-.3-.921l-1.463-1.9,2.3-.679a1.448,1.448,0,0,0,.783-.569l1.357-1.979,1.356,1.979a1.446,1.446,0,0,0,.784.569l2.3.679Zm0,0" transform="translate(-5045.929 -7944.254)" fill="#fff" opacity="0.65"/>
</svg>
