<?xml version="1.0" encoding="UTF-8"?><svg id="Camada_2" xmlns="http://www.w3.org/2000/svg" viewBox="0 0 833.11 423.37"><defs><style>.cls-1{fill:#bc020c;}.cls-2{fill:#005744;}.cls-3{fill:none; stroke:#fff;stroke-miterlimit:10;stroke-width:7px;}</style></defs><g id="Camada_1-2"><g><path d="M540.21,171.34v-9.75c2.15-.11,4.09-.29,6.03-.29,82.62-.01,165.23-.01,247.85,0,5.61,0,7.56,2.66,5.75,8.09-.27,.82-1.48,1.57-2.41,1.85-1.07,.33-2.31,.11-3.47,.11-82.62,0-165.23,0-247.85,0-1.8,0-3.59,0-5.9,0Z"/><path class="cls-1" d="M529.28,143.64c0,8.49,0,16.08,0,23.67,0,1.17,0,2.33,0,3.5,0,8.04-.24,8.22-8.94,6.61V82.09c3.02,.6,6.9,.25,8.36,1.96,1.53,1.8,.72,5.58,1,9.47,10.32-8.79,21.3-12.64,33.89-9.81,8.39,1.89,15.33,6.32,20.58,13.23,10.45,13.75,9.45,33.29-2.36,45.89-13.4,14.3-30.85,14.84-52.53,.83Zm26.5,1.55c14.94-.03,27.1-12.21,26.93-26.97-.16-14.61-12.22-26.56-26.89-26.64-15.01-.09-26.56,11.7-26.54,27.09,.02,15.11,11.45,26.56,26.5,26.53Z"/><path class="cls-1" d="M674.06,121.01c-.95,9.79-5.77,17.49-13.21,23.54-12.89,10.48-31.14,10.65-44.55,.73-13.15-9.73-18.19-27.27-12.19-42.42,5.94-14.99,21.42-24.81,36.65-23.25,17.47,1.79,30.67,13.95,33.37,30.73,.11,.66,.25,1.31,.34,1.97,.86,6.16,.43,6.62-5.72,6.58-17.49-.09-34.98-.15-52.47-.2-1.62,0-3.24,.19-5.58,.34,.5,2.51,.65,4.62,1.34,6.55,3.83,10.84,14.65,18.37,26.13,18.35,11.78-.03,22.19-7.5,26.26-18.85,2.01-5.59,2.85-5.98,9.63-4.07Zm-9.72-11.85c-1.96-12.66-15.13-22.11-28.26-20.94-12.45,1.11-24.04,11.16-23.8,20.94h52.06Z"/><path class="cls-1" d="M439.29,145.16c13.24,0,26.2,0,39.17,0,2.5,0,5,.06,7.5-.02,7.71-.25,12.3-4.79,12.31-12.13,.02-7.77-4.44-12.15-12.56-12.21-9.17-.06-18.33,.01-27.5-.03-11.53-.06-19.2-8.09-19.39-20.23-.18-11.24,7.89-20.81,18.49-20.99,15.16-.25,30.33,.15,45.49,.14,3.21,0,3.9,1.46,3.89,4.29,0,2.82-.66,4.31-3.89,4.28-14-.11-28-.06-42-.02-8.73,.03-13.78,4.86-13.66,12.93,.11,7.39,5.59,12.22,13.98,12.26,8.17,.03,16.33-.02,24.5,.03,13.09,.08,20.68,7.64,20.61,20.47-.06,11.61-7.95,18.99-20.43,19.03-13.5,.04-27,.02-40.5,0q-6.93,0-6.02-7.8Z"/><path d="M326.85,170.99c-.22-.86-.42-1.33-.45-1.8q-.49-7.9,7.55-7.9c55.8,0,111.61,0,167.41,0,8.94,0,9.19,.31,7.4,9.71h-181.91Z"/><path class="cls-1" d="M369.23,152.05c-7.55,1.55-7.94,1.26-7.93-5.33,.04-20.81,.09-41.61,.11-62.42,0-2.64-.13-5,3.75-4.89,2.94,.08,4.33,.92,4.08,4.03-.18,2.29-.04,4.61-.04,8.23,2.34-1.74,3.9-2.72,5.25-3.93,15.16-13.59,51.9-11.48,59.02,18.52,.19,.81,.51,1.62,.51,2.43,.03,14.29,.02,28.57,.02,42.78-6.14,1.97-7.04,1.41-7.06-4.43-.04-10.32,.19-20.65-.07-30.96-.4-15.94-10.02-25.89-26.04-27.4-15.94-1.5-27.82,6.61-30.96,21.81-1.03,4.97-.58,10.26-.63,15.4-.08,8.77-.02,17.54-.02,26.16Z"/><path class="cls-1" d="M344.09,78.42c0,13.03-.08,25.32,.05,37.61,.04,3.63,.41,7.32,1.15,10.87,.78,3.73,2.67,6.72,6.99,7.53,1.04,.19,2.57,1.71,2.62,2.68,.27,4.93,.12,9.89,.12,15.2-9.42,1.04-17.4-1.53-22.28-8.86-3.63-5.45-6.63-12.28-7.08-18.7-1.03-14.56-.32-29.24-.29-43.87,0-.64,.21-1.27,.42-2.46h18.3Z"/><path class="cls-1" d="M729.42,152.26c-4.83,0-9.67,.24-14.48-.04-19.91-1.15-34.32-16.64-34.15-36.52,.17-19.6,14.67-34.83,34.4-35.68,9.8-.42,19.64-.04,29.46-.24,3.37-.07,4.21,1.31,4.25,4.43,.04,3.43-1.46,4.2-4.53,4.2-9.32,0-18.66-.22-27.94,.43-15.33,1.07-25.57,11.81-25.98,26.44-.42,15.1,9.16,26.35,24.78,27.93,9.07,.92,18.28,.46,27.43,.65,3,.06,6.39-1.03,6.3,4.33-.1,5.43-3.67,4.05-6.55,4.13-4.32,.13-8.66,.03-12.98,.03v-.09Z"/><path class="cls-1" d="M798.76,143.45v8.69c-16.83,3.47-34.98-9.3-38.72-27.13-.68-3.23-.93-6.61-.95-9.92-.09-17.83-.06-35.66-.05-53.5,0-7.27,.08-7.32,8.55-5.94,0,4.82-.04,9.78,0,14.74,.09,10.06-1.03,8.87,8.71,8.94,5.83,.05,11.67,.15,17.5-.05,3.17-.11,4.07,1.21,3.99,4.13-.07,2.72-.07,4.95-3.83,4.88-7.33-.15-14.67,.07-22-.05-3.21-.05-4.48,1.16-4.41,4.4,.16,7.33-.17,14.68,.17,21.99,.86,17.94,10.88,27.76,28.73,28.53,.64,.03,1.28,.15,2.31,.28Z"/><path d="M454.49,300.27c-14.52,.04-22.48-8.64-22.48-24.49,0-15.88,7.83-24.2,22.71-24.15,14.69,.05,23.14,8.87,23.11,24.11-.03,15.48-8.6,24.49-23.33,24.54Zm14-24.2c-.12-1.56-.25-4.22-.58-6.86-.17-1.3-.61-2.6-1.12-3.82-2.56-6.05-8.07-8.67-15.72-7.55-7.02,1.03-8.66,2.63-9.36,10.53-.39,4.44-.43,8.99,.09,13.41,1.06,9.01,5.63,12.74,14.32,12.35,8.69-.39,11.49-3.38,12.12-12.97,.09-1.33,.13-2.66,.25-5.09Z"/><path d="M497.42,299.15c.8-3.22,1.34-5.43,1.59-6.43,6.24-.45,12.03-.03,17.18-1.64,2.1-.66,2.83-5.72,4.7-9.93-3.3,.77-4.99,1.23-6.71,1.55-8.8,1.67-15.63-2.09-17.63-9.7-2.38-9.03,1.69-17.68,9.63-20.45,8.44-2.94,16.8,.21,20,8.13,3.76,9.3,3.84,18.88,.05,28.21-2.98,7.35-8.79,11.13-16.72,11.2-3.76,.03-7.53-.57-12.09-.96Zm22.51-28.27c-.29-9.31-3.01-13.74-8.13-13.62-4.89,.11-7.23,3.61-7.05,10.54,.16,6.32,2.46,8.74,8.36,8.43,3.62-.18,7.93,.13,6.82-5.35Z"/><path d="M566.82,276.26c-.88,4.47-1.36,9.49-2.91,14.14-2.26,6.78-7.67,9.91-15.14,9.79-7-.11-12.29-3.57-14.41-10.2-2.96-9.26-2.99-18.72,0-27.98,2.29-7.1,7.69-10.52,15.26-10.43,7.61,.09,12.78,3.6,14.86,10.89,1.22,4.26,1.53,8.79,2.34,13.79Zm-9.24,1.42l.51-.15c-.94-5.35-1.45-10.84-3.07-15.98-.59-1.87-3.79-3.91-5.9-4.03-2.14-.11-5.96,1.67-6.36,3.29-2.46,9.94-2.95,20.13,.9,29.82,.75,1.9,4.66,3.19,7.27,3.52,3.08,.39,5.29-1.78,5.66-5.08,.43-3.79,.66-7.6,.98-11.4Z"/><path d="M568.4,275.22c.99-4.57,1.55-9.75,3.28-14.5,2.4-6.59,7.61-9.35,15.04-9.13,7.01,.2,11.89,3.36,14.06,9.89,3.13,9.41,3.12,19.02,.03,28.43-2.33,7.09-7.68,10.4-15.33,10.28-7.27-.11-12.41-3.56-14.54-10.64-1.32-4.4-1.65-9.1-2.53-14.33Zm25.84,2.63l.39-.08c-.7-4.91-1.11-9.88-2.18-14.71-.81-3.67-3.14-6.18-7.49-5.8-4.46,.39-6.47,3.01-6.7,7.2-.23,4.15-.54,8.32-.32,12.45,.23,4.28,.68,8.62,1.72,12.75,.92,3.64,3.89,5.17,7.74,4.74,3.69-.42,5.72-2.49,6.08-6.11,.34-3.47,.51-6.95,.76-10.43Z"/><path d="M693.18,275.62c.96-4.78,1.49-9.78,3.03-14.45,2.11-6.42,7.25-9.51,14.25-9.59,7.38-.09,12.54,2.86,14.9,9.42,3.55,9.87,3.57,19.96-.15,29.78-2.54,6.7-7.89,9.65-15.43,9.41-6.82-.22-11.74-3.46-13.84-10.16-1.42-4.54-1.84-9.39-2.76-14.41Zm8.94,.22c.64,3.77,1.08,9.11,2.65,14.1,.61,1.92,3.71,4.03,5.84,4.22,2.17,.2,6.17-1.44,6.56-2.99,2.58-10.25,3.32-20.75-1.25-30.64-.82-1.77-4.83-3.27-7-2.87-2.11,.39-4.66,3.07-5.37,5.28-1.14,3.55-.92,7.53-1.42,12.9Z"/><path d="M591.81,406.74v-26.44c-2.11,.83-3.42,1.33-4.72,1.85-9.07,3.57-17.75-.84-20.19-10.24-4.07-15.7,4.53-26.42,20.7-25.8q11.25,.43,11.25,11.55c0,14.16-.22,28.32,.11,42.47,.12,5.09-1.72,6.96-7.16,6.61Zm-.23-42.95c0-3.32,.12-6.65-.06-9.96-.06-1.16-.94-3.31-1.31-3.28-4.47,.37-9.71-.2-13.18,1.98-4.8,3.02-4.32,19.11-.2,23.28,3.68,3.73,8.39,3.29,12.51,1.56,1.43-.6,1.81-4.28,2.17-6.62,.35-2.27,.08-4.64,.06-6.96Z"/><path d="M425.78,251.81c-1.02,4-1.58,6.18-2.16,8.43-4.17-.68-7.91-1.72-11.64-1.72-1.83,0-4.97,1.74-5.18,3.05-.3,1.94,.93,4.94,2.53,6.16,2.71,2.07,6.26,3,9.37,4.58,6.44,3.27,9.37,8.12,8.54,14.39-.87,6.6-4.67,11.01-11.05,12.78-6.72,1.87-13.1,.72-19.44-3.22,.97-2.44,1.87-4.69,2.81-7.07,3.7,1.38,6.99,3.06,10.48,3.78,3.56,.74,7.66,.98,9.19-3.62,1.55-4.64-1.3-7.16-5.1-8.91-2.42-1.11-4.93-2.01-7.31-3.2-6.43-3.22-9.13-8.18-8.07-14.5,.94-5.58,5.71-10.16,12.16-10.84,4.54-.48,9.17-.09,14.86-.09Z"/><path d="M777.29,267.96c2.84,.47,5.8,.79,8.67,1.48,7.85,1.88,12.94,7.27,13.17,13.72,.25,6.98-5.01,14.32-12.38,16.33-6.41,1.75-12.74,1.06-19.03-2.62,1.16-2.55,2.17-4.76,3.16-6.93,3.68,1.32,6.96,2.99,10.43,3.6,4.1,.72,8.13,.07,9.52-4.96,1.32-4.78-.55-9.2-5.49-10.83-4.34-1.43-9.03-1.79-14.15-2.72,0-3.3-.09-7.04,.03-10.76,.12-3.81,.45-7.62,.72-11.94h24.78q-.72,7.18-7.59,7.19c-1.66,0-3.33,0-4.99,0-7.92,.01-7.99,.09-6.86,8.45Z"/><path d="M669.46,292.01h20.92c-.17,7.37-.54,7.77-7.14,7.77-6.83,0-13.67,.06-20.5-.06-1.35-.02-3.74-.6-3.82-1.18-.2-1.43,.25-3.34,1.15-4.49,4.14-5.22,8.88-10,12.69-15.44,2.49-3.56,4.48-7.82,5.38-12.05,1.04-4.91-1.7-7.64-6.76-7.59-3.78,.04-7.55,.86-11.33,1.33-.96-5.98,0-7.6,5.66-8.26,3.28-.38,6.68-.53,9.95-.14,9.39,1.11,14.25,8.7,10.32,17.32-2.57,5.63-6.95,10.46-10.62,15.57-1.52,2.12-3.3,4.05-5.9,7.21Z"/><path d="M753.68,347.56c4.82-2.57,8.48-1.84,10.83,3.29,3.05,6.64,5.57,13.53,8.3,20.31,.59,1.46,1.14,2.94,2.01,5.2,4.96-8.16,6.84-16.32,6.32-24.88-.28-4.53,1.28-5.65,6.13-4.9-.26,3.64,.03,7.34-.85,10.74-4.46,17.1-13.38,31.79-25.34,44.65-1.86,2-4.43,3.71-7,4.56-2.32,.76-5.09,.16-7.83-.71,9.68-3.39,15.71-10.55,21.64-17.9,2.08-2.58,2.71-4.96,1.3-8.19-3.12-7.16-5.66-14.58-8.88-21.7-1.64-3.62-4.25-6.8-6.63-10.48Z"/><path d="M611.22,347.27c6.88-1.14,7.13-.96,7.16,4.9,.04,6.49-.12,12.99,.11,19.47,.19,5.69,2.31,7.31,7.99,6.75,8.02-.8,9.51-2.44,9.51-10.49,0-5.16-.01-10.32,0-15.48,.02-6.25,.31-6.46,6.85-5.1v36.12c-2.92-1.15-5.27-2.07-8.88-3.49-2.08,.7-5.74,2.38-9.57,3.12-8.03,1.54-13-2.6-13.14-10.7-.15-8.3-.03-16.6-.03-25.11Z"/><path d="M673.57,362.28c.14-1.09,.31-1.9,.33-2.71,.26-8.38-2.39-10.36-10.62-8.29-1.9,.48-4.03,.05-6.05,.04,1.72-1.23,3.42-2.49,5.17-3.68,.39-.27,.95-.29,1.43-.43,13.07-3.69,17.15-.61,17.16,12.94,0,3.66-.02,7.32,.01,10.97,.03,4.26-.27,8.8,6.6,7.63-4.02,5.56-8.66,5.63-13.22,.87-3.29,1.2-6.44,2.85-9.78,3.46-6.06,1.1-10.1-1.73-11.19-7.13-1.22-5.99,1.48-10.79,7.39-12.12,4.15-.93,8.47-1.05,12.78-1.55Zm.39,3.12c-3.19,.28-5.64,.35-8.04,.74-4.71,.77-6.13,3.18-5.34,8.23,.69,4.43,3.73,4.41,7.08,4.06,4.34-.45,7.25-2.06,6.35-7.21-.28-1.59-.04-3.27-.04-5.82Z"/><path d="M621.93,299v-37.55c-4.23,2.91-7.7,5.29-11.49,7.89-1.06-1.35-2.04-2.61-3.57-4.57,7.9-4.36,13.27-12.21,23.66-13.02,.12,2.38,.29,4.13,.29,5.88,.02,11.82,.02,23.65,.01,35.47,0,7.35-.36,7.61-8.9,5.88Z"/><path d="M746.39,261.49c-4.37,3.09-7.6,5.37-11.12,7.86-1.19-1.47-2.19-2.7-3.74-4.62,8.03-4.15,13.3-12.2,23.5-12.96v47.26c-7.68,1.81-8.31,1.35-8.32-5.97,0-8.65,0-17.31-.02-25.96,0-1.58-.17-3.16-.3-5.61Z"/><path d="M701.4,322.47c.1,1.68,.28,3.28,.28,4.87,.02,16.61,.02,33.22,0,49.83,0,6-.03,6-6.67,5.04-.09-1.5-.28-3.1-.28-4.7-.02-16.28,.18-32.56-.13-48.83-.1-5.03,2.02-6.36,6.8-6.21Z"/><path d="M730.5,348.25c3.23-2.64,6.46-5.27,10.26-8.37,.59,2.78,.96,4.51,1.33,6.27,3.12,.38,6.07,.74,9.01,1.11,.04,.6,.09,1.2,.13,1.81-2.98,.73-5.95,1.45-9.38,2.29,0,7.68-.2,15.49,.19,23.26,.07,1.34,2.4,3.01,4.04,3.7,1.63,.69,3.7,.33,6.13,.46-3.28,3.73-10.02,5.49-13.63,4.02-4.06-1.65-4.11-5.26-4.12-8.82-.03-6,.19-12-.11-17.98-.12-2.36-1.38-4.65-2.12-6.98-.58-.26-1.15-.51-1.73-.77Z"/><path d="M391.1,252.34v46.5c-7.22,2.29-8.37,1.52-8.37-5.55,0-11.32,0-22.65,0-33.97q0-7.73,8.37-6.98Z"/><path class="cls-1" d="M333.52,77.86l-8.86-15.32c3.47-4.95,5.69-4.83,11.61,1.44,1.13-1.43,2.1-2.91,3.31-4.16,5.88-6.05,11.76-12.11,17.83-17.97,.92-.89,2.85-.74,4.31-1.07-.43,1.42-.42,3.34-1.36,4.2-8.46,7.72-15.02,16.8-20.49,26.83-1.31,2.4-4.11,3.99-6.34,6.06Z"/><path d="M721.66,382.52h-7.05c0-3.98,0-7.86,0-11.74,0-6.96,.06-13.92-.02-20.88-.03-2.7,1.39-3.82,3.67-3.16,1.31,.38,3.23,1.92,3.25,2.97,.24,10.73,.15,21.48,.15,32.81Z"/><path d="M642.65,271.82c1.79-2.11,3.46-4.08,5.77-6.8,2.2,2.75,3.89,4.86,5.88,7.34-1.84,1.8-3.77,3.7-6.1,5.99-1.93-2.27-3.69-4.34-5.55-6.53Z"/><path d="M648.79,289.13c1.78,1.85,3.65,3.8,5.82,6.06-2.14,2.16-4.03,4.07-6.38,6.45-2-2.42-3.73-4.52-5.77-6.99,1.82-1.59,3.87-3.37,6.33-5.51Z"/><path d="M713.18,332.77c1.67-1.51,2.98-2.7,4.74-4.29,1.57,1.43,2.96,2.7,4.79,4.36-1.46,1.58-2.74,2.98-4.42,4.8-1.66-1.58-3.13-2.98-5.11-4.86Z"/><g><path class="cls-2" d="M54.15,260.84h4.7l8.65,31.5h-3.7l-2.27-8.9h-10.12l-2.23,8.9h-3.7l8.65-31.5Zm-1.89,19.45h8.44l-4.16-16.76h-.08l-4.2,16.76Z"/><path class="cls-2" d="M87.71,281c-.03,.76-.08,1.58-.17,2.46s-.25,1.76-.48,2.65c-.24,.88-.57,1.74-1.01,2.58-.43,.84-.99,1.57-1.66,2.2-.67,.63-1.49,1.14-2.46,1.53-.97,.39-2.12,.59-3.47,.59-1.46,0-2.79-.22-3.99-.67-1.2-.45-2.23-1.27-3.09-2.46-.85-1.19-1.52-2.81-2-4.87-.48-2.06-.71-4.68-.71-7.88,0-2.94,.18-5.47,.55-7.6,.36-2.13,.94-3.88,1.74-5.27,.8-1.39,1.83-2.42,3.11-3.09,1.27-.67,2.82-1.01,4.64-1.01s3.31,.32,4.47,.95c1.16,.63,2.06,1.43,2.71,2.42s1.09,2.07,1.34,3.25c.25,1.19,.39,2.35,.42,3.46h-3.61c-.08-.76-.2-1.54-.34-2.35s-.4-1.55-.78-2.23-.9-1.23-1.57-1.68c-.67-.45-1.57-.67-2.69-.67-1.43,0-2.55,.36-3.36,1.09-.81,.73-1.42,1.72-1.83,2.98-.41,1.26-.67,2.72-.78,4.37-.11,1.65-.17,3.4-.17,5.25,0,2.07,.1,3.91,.29,5.5,.2,1.6,.52,2.94,.97,4.03,.45,1.09,1.05,1.92,1.81,2.48,.76,.56,1.71,.84,2.86,.84,1.29,0,2.3-.31,3.02-.92,.73-.62,1.27-1.37,1.62-2.27,.35-.9,.58-1.85,.69-2.88,.11-1.02,.21-1.95,.29-2.79h3.61Z"/><path class="cls-2" d="M110.35,281c-.03,.76-.08,1.58-.17,2.46s-.25,1.76-.48,2.65c-.24,.88-.57,1.74-1.01,2.58-.43,.84-.99,1.57-1.66,2.2-.67,.63-1.49,1.14-2.46,1.53-.97,.39-2.12,.59-3.47,.59-1.46,0-2.79-.22-3.99-.67-1.2-.45-2.23-1.27-3.09-2.46-.85-1.19-1.52-2.81-2-4.87-.48-2.06-.71-4.68-.71-7.88,0-2.94,.18-5.47,.55-7.6,.36-2.13,.94-3.88,1.74-5.27,.8-1.39,1.83-2.42,3.11-3.09,1.27-.67,2.82-1.01,4.64-1.01s3.31,.32,4.47,.95c1.16,.63,2.06,1.43,2.71,2.42s1.09,2.07,1.34,3.25c.25,1.19,.39,2.35,.42,3.46h-3.61c-.08-.76-.2-1.54-.34-2.35s-.4-1.55-.78-2.23-.9-1.23-1.57-1.68c-.67-.45-1.57-.67-2.69-.67-1.43,0-2.55,.36-3.36,1.09-.81,.73-1.42,1.72-1.83,2.98-.41,1.26-.67,2.72-.78,4.37-.11,1.65-.17,3.4-.17,5.25,0,2.07,.1,3.91,.29,5.5,.2,1.6,.52,2.94,.97,4.03,.45,1.09,1.05,1.92,1.81,2.48,.76,.56,1.71,.84,2.86,.84,1.29,0,2.3-.31,3.02-.92,.73-.62,1.27-1.37,1.62-2.27,.35-.9,.58-1.85,.69-2.88,.11-1.02,.21-1.95,.29-2.79h3.61Z"/><path class="cls-2" d="M115.3,260.84h9.91c1.26,0,2.43,.14,3.51,.42,1.08,.28,2.02,.74,2.81,1.37,.8,.63,1.43,1.47,1.89,2.52,.46,1.05,.69,2.33,.69,3.84,0,1.34-.17,2.45-.52,3.32-.35,.87-.78,1.58-1.3,2.14-.52,.56-1.08,1-1.68,1.32-.6,.32-1.15,.59-1.66,.82v.08c.98,.25,1.75,.56,2.31,.92,.56,.36,1.02,.78,1.39,1.26,.34,.45,.59,1.12,.76,2.02,.17,.9,.29,1.87,.36,2.92,.07,1.05,.13,2.11,.17,3.19s.13,2.02,.27,2.83c.06,.42,.22,.8,.5,1.13,.28,.34,.5,.59,.67,.76v.63h-4.16c-.2-.2-.36-.57-.48-1.11-.13-.55-.24-1.18-.34-1.91-.1-.73-.18-1.5-.23-2.33-.06-.83-.11-1.61-.17-2.35-.06-.74-.11-1.41-.17-2.02-.06-.6-.14-1.03-.25-1.28-.45-1.18-1.13-1.97-2.06-2.37-.92-.41-2.09-.61-3.49-.61h-5.12v13.99h-3.61v-31.5Zm3.61,14.36h5.67c.7,0,1.39-.1,2.08-.29,.69-.2,1.29-.53,1.83-.99,.53-.46,.96-1.06,1.28-1.81,.32-.74,.48-1.66,.48-2.75,0-1.93-.52-3.31-1.58-4.14-1.05-.83-2.58-1.24-4.6-1.24h-5.17v11.21Z"/><path class="cls-2" d="M139.37,260.84h15.75v3.15h-12.14v10.33h11.34v3.15h-11.34v11.72h12.14v3.15h-15.75v-31.5Z"/><path class="cls-2" d="M160.2,260.84h9.16c2.21,0,3.99,.39,5.33,1.16,1.34,.77,2.39,1.87,3.13,3.3,.74,1.43,1.24,3.15,1.49,5.17s.38,4.26,.38,6.72c0,1.06-.06,2.18-.17,3.34-.11,1.16-.3,2.3-.57,3.42s-.63,2.18-1.09,3.19-1.04,1.9-1.72,2.67c-.69,.77-1.51,1.39-2.46,1.85-.95,.46-2.07,.69-3.36,.69h-10.12v-31.5Zm3.61,28.35h5.08c1.34,0,2.46-.33,3.36-.99,.9-.66,1.6-1.54,2.12-2.65,.52-1.11,.89-2.38,1.11-3.82,.22-1.44,.34-2.93,.34-4.47,0-2.04-.08-3.88-.23-5.52-.15-1.64-.47-3.03-.94-4.18-.48-1.15-1.17-2.03-2.08-2.65-.91-.62-2.14-.92-3.68-.92h-5.08v25.2Z"/><path class="cls-2" d="M184.68,260.84h3.61v31.5h-3.61v-31.5Z"/><path class="cls-2" d="M200.35,263.99h-7.81v-3.15h19.24v3.15h-7.81v28.35h-3.61v-28.35Z"/><path class="cls-2" d="M215.93,260.84h15.75v3.15h-12.14v10.33h11.34v3.15h-11.34v11.72h12.14v3.15h-15.75v-31.5Z"/><path class="cls-2" d="M236.77,260.84h9.16c2.21,0,3.99,.39,5.33,1.16,1.34,.77,2.39,1.87,3.13,3.3,.74,1.43,1.24,3.15,1.49,5.17s.38,4.26,.38,6.72c0,1.06-.06,2.18-.17,3.34-.11,1.16-.3,2.3-.57,3.42s-.63,2.18-1.09,3.19-1.04,1.9-1.72,2.67c-.69,.77-1.51,1.39-2.46,1.85-.95,.46-2.07,.69-3.36,.69h-10.12v-31.5Zm3.61,28.35h5.08c1.34,0,2.46-.33,3.36-.99,.9-.66,1.6-1.54,2.12-2.65,.52-1.11,.89-2.38,1.11-3.82,.22-1.44,.34-2.93,.34-4.47,0-2.04-.08-3.88-.23-5.52-.15-1.64-.47-3.03-.94-4.18-.48-1.15-1.17-2.03-2.08-2.65-.91-.62-2.14-.92-3.68-.92h-5.08v25.2Z"/></g><g><path d="M46.52,303.32h3.72l4.19,16.56h.05l4.19-16.56h3.72v19.5h-2.24v-18.07h-.05l-4.52,18.07h-2.24l-4.52-18.07h-.05v18.07h-2.24v-19.5Z"/><path d="M75.22,322.82c-.19,.09-.37,.14-.55,.17-.17,.03-.32,.04-.44,.04-.4,0-.72-.06-.97-.17-.25-.11-.46-.25-.61-.42-.16-.17-.27-.34-.35-.53-.08-.19-.13-.36-.17-.52-.14,.23-.29,.45-.44,.66-.16,.22-.36,.41-.61,.58-.25,.17-.56,.32-.92,.43-.36,.11-.83,.17-1.4,.17-1.16,0-2.02-.36-2.56-1.07-.55-.71-.82-1.71-.82-2.99,0-.62,.06-1.17,.19-1.64,.13-.47,.33-.87,.58-1.21,.26-.34,.59-.63,.99-.87,.4-.24,.87-.46,1.4-.65l2.03-.7c.33-.1,.59-.21,.78-.31,.19-.1,.33-.22,.43-.36,.09-.14,.16-.32,.18-.56,.03-.23,.04-.53,.04-.9,0-.31-.03-.61-.09-.88-.06-.28-.17-.52-.33-.71-.16-.2-.36-.36-.62-.48-.26-.12-.59-.18-.99-.18-.81,0-1.4,.24-1.74,.71-.35,.48-.52,1.08-.52,1.81h-1.95c0-.45,.05-.93,.14-1.44,.1-.51,.29-.98,.59-1.4,.29-.42,.72-.78,1.27-1.07,.55-.29,1.3-.43,2.24-.43,1.47,0,2.51,.33,3.12,1,.61,.67,.91,1.58,.91,2.74v8.27c0,.33,.02,.59,.05,.78,.03,.19,.09,.34,.16,.44,.07,.1,.16,.17,.29,.2,.12,.03,.26,.04,.42,.04,.12,0,.22,0,.29-.03v1.48Zm-4.26-7.15c-.55,.24-1.05,.44-1.48,.58-.43,.15-.79,.33-1.08,.55-.29,.22-.5,.5-.65,.86-.15,.36-.22,.85-.22,1.5,0,.78,.17,1.35,.52,1.72s.8,.55,1.35,.55c.33,0,.65-.08,.98-.25,.32-.16,.6-.39,.83-.69s.42-.66,.57-1.09c.15-.43,.22-.93,.22-1.48v-2.65l-1.04,.42Z"/><path d="M77.4,308.31h1.82v1.61h.05c.07-.16,.19-.35,.38-.58,.18-.23,.42-.46,.71-.68s.66-.4,1.1-.55c.44-.15,.97-.22,1.57-.22,1.14,0,2.01,.32,2.6,.95,.59,.63,.88,1.54,.88,2.72v11.26h-2.03v-10.22c0-.97-.14-1.69-.43-2.17-.29-.48-.84-.71-1.68-.71-.56,0-1.02,.11-1.39,.33-.37,.22-.68,.47-.91,.75-.23,.29-.4,.56-.51,.82s-.16,.44-.16,.55v10.66h-2.03v-14.51Z"/><path d="M99.37,322.82c-.19,.09-.37,.14-.55,.17-.17,.03-.32,.04-.44,.04-.4,0-.72-.06-.97-.17-.25-.11-.46-.25-.61-.42-.16-.17-.27-.34-.35-.53-.08-.19-.13-.36-.17-.52-.14,.23-.29,.45-.44,.66-.16,.22-.36,.41-.61,.58-.25,.17-.56,.32-.92,.43-.36,.11-.83,.17-1.4,.17-1.16,0-2.02-.36-2.56-1.07-.55-.71-.82-1.71-.82-2.99,0-.62,.06-1.17,.19-1.64,.13-.47,.33-.87,.58-1.21,.26-.34,.59-.63,.99-.87,.4-.24,.87-.46,1.4-.65l2.03-.7c.33-.1,.59-.21,.78-.31,.19-.1,.33-.22,.43-.36,.09-.14,.16-.32,.18-.56,.03-.23,.04-.53,.04-.9,0-.31-.03-.61-.09-.88-.06-.28-.17-.52-.33-.71-.16-.2-.36-.36-.62-.48-.26-.12-.59-.18-.99-.18-.81,0-1.4,.24-1.74,.71-.35,.48-.52,1.08-.52,1.81h-1.95c0-.45,.05-.93,.14-1.44,.1-.51,.29-.98,.59-1.4,.29-.42,.72-.78,1.27-1.07,.55-.29,1.3-.43,2.24-.43,1.47,0,2.51,.33,3.12,1,.61,.67,.91,1.58,.91,2.74v8.27c0,.33,.02,.59,.05,.78,.03,.19,.09,.34,.16,.44,.07,.1,.16,.17,.29,.2,.12,.03,.26,.04,.42,.04,.12,0,.22,0,.29-.03v1.48Zm-4.26-7.15c-.55,.24-1.05,.44-1.48,.58-.43,.15-.79,.33-1.08,.55-.29,.22-.5,.5-.65,.86-.15,.36-.22,.85-.22,1.5,0,.78,.17,1.35,.52,1.72s.8,.55,1.35,.55c.33,0,.65-.08,.98-.25,.32-.16,.6-.39,.83-.69s.42-.66,.57-1.09c.15-.43,.22-.93,.22-1.48v-2.65l-1.04,.42Z"/><path d="M111,321.13c0,.75-.04,1.51-.12,2.3-.08,.79-.28,1.51-.61,2.16-.33,.65-.82,1.18-1.48,1.6s-1.57,.62-2.73,.62c-.8,0-1.46-.11-2-.34-.54-.22-.98-.51-1.31-.84s-.59-.71-.75-1.13c-.17-.42-.26-.81-.3-1.17h2.03c.1,.45,.32,.84,.66,1.17,.34,.33,.89,.49,1.65,.49s1.29-.17,1.69-.51c.4-.34,.69-.75,.87-1.25,.18-.49,.29-1.01,.32-1.56s.05-1.02,.05-1.42h-.05c-.16,.23-.31,.46-.47,.69-.16,.23-.35,.45-.57,.64-.23,.19-.5,.35-.82,.47s-.71,.18-1.18,.18c-1.61,0-2.78-.65-3.5-1.94-.72-1.29-1.08-3.18-1.08-5.65,0-1.18,.08-2.25,.25-3.2s.43-1.77,.79-2.44c.36-.68,.84-1.2,1.42-1.56,.58-.36,1.28-.55,2.09-.55,.54,0,1,.08,1.38,.23s.7,.35,.95,.57c.25,.23,.45,.46,.6,.71,.15,.25,.26,.47,.35,.66h.05v-1.77h1.82v12.82Zm-7.54-5.69c0,.87,.03,1.67,.09,2.4,.06,.74,.18,1.37,.36,1.9s.45,.94,.81,1.23c.35,.29,.82,.44,1.39,.44,1.07,0,1.82-.51,2.24-1.53,.42-1.02,.62-2.46,.62-4.32,0-.71-.03-1.41-.09-2.11s-.19-1.32-.4-1.87-.5-1-.87-1.35-.87-.52-1.49-.52c-.56,0-1.01,.17-1.35,.51-.35,.34-.62,.78-.81,1.33-.19,.55-.32,1.16-.39,1.85s-.1,1.36-.1,2.04Z"/><path d="M122.72,318.09c0,.55-.06,1.14-.19,1.74s-.36,1.16-.7,1.66-.79,.92-1.35,1.25c-.56,.33-1.27,.49-2.12,.49-1.02,0-1.84-.2-2.46-.61-.62-.41-1.09-.96-1.43-1.65-.34-.69-.56-1.51-.68-2.44-.11-.94-.17-1.94-.17-3.02s.07-2.08,.21-3c.14-.93,.39-1.73,.74-2.42,.35-.68,.84-1.22,1.44-1.61,.61-.39,1.39-.58,2.34-.58,1.09,0,1.94,.25,2.53,.75,.6,.5,1.04,1.14,1.31,1.91s.44,1.62,.49,2.55c.05,.93,.08,1.82,.08,2.67h-6.99c0,.76,.03,1.49,.08,2.17,.05,.68,.16,1.28,.34,1.79,.17,.51,.43,.92,.78,1.22,.35,.3,.81,.46,1.38,.46,.54,0,.96-.14,1.27-.42s.55-.6,.7-.97c.16-.37,.26-.74,.3-1.11,.04-.36,.06-.64,.06-.83h2.03Zm-2.11-4.13c0-.36-.02-.79-.05-1.27-.04-.48-.12-.95-.26-1.39s-.36-.81-.68-1.12c-.31-.3-.74-.46-1.27-.46s-1,.14-1.34,.42c-.34,.28-.6,.63-.78,1.05s-.3,.88-.36,1.38c-.06,.49-.09,.96-.09,1.39h4.84Z"/><path d="M125.76,308.31h1.82v1.79h.05c.1-.17,.25-.39,.44-.64,.19-.25,.44-.49,.74-.73,.3-.23,.66-.43,1.08-.6,.42-.17,.91-.25,1.48-.25s1.07,.07,1.46,.22c.38,.15,.69,.33,.92,.55,.23,.22,.41,.46,.53,.71,.12,.26,.23,.49,.31,.7,.14-.24,.32-.49,.53-.75,.22-.26,.48-.49,.79-.7s.68-.38,1.09-.52,.89-.21,1.43-.21c1.26,0,2.17,.36,2.72,1.08,.55,.72,.82,1.66,.82,2.82v11.02h-2.03v-10.56c0-.76-.14-1.38-.43-1.85-.29-.47-.84-.7-1.65-.7-.43,0-.83,.08-1.2,.25-.36,.17-.68,.39-.95,.66-.27,.28-.48,.61-.62,.99-.15,.38-.22,.79-.22,1.22v9.98h-2.03v-10.17c0-.43-.03-.83-.08-1.2-.05-.36-.15-.68-.3-.94-.15-.26-.36-.46-.62-.6-.27-.14-.62-.21-1.05-.21-.56,0-1.02,.11-1.4,.34-.38,.23-.69,.48-.92,.77s-.41,.56-.52,.82c-.11,.26-.17,.42-.17,.47v10.71h-2.03v-14.51Z"/><path d="M154.1,318.09c0,.55-.06,1.14-.19,1.74s-.36,1.16-.7,1.66-.79,.92-1.35,1.25c-.56,.33-1.27,.49-2.12,.49-1.02,0-1.84-.2-2.46-.61-.62-.41-1.09-.96-1.43-1.65-.34-.69-.56-1.51-.68-2.44-.11-.94-.17-1.94-.17-3.02s.07-2.08,.21-3c.14-.93,.39-1.73,.74-2.42,.35-.68,.84-1.22,1.44-1.61,.61-.39,1.39-.58,2.34-.58,1.09,0,1.94,.25,2.53,.75,.6,.5,1.04,1.14,1.31,1.91s.44,1.62,.49,2.55c.05,.93,.08,1.82,.08,2.67h-6.99c0,.76,.03,1.49,.08,2.17,.05,.68,.16,1.28,.34,1.79,.17,.51,.43,.92,.78,1.22,.35,.3,.81,.46,1.38,.46,.54,0,.96-.14,1.27-.42s.55-.6,.7-.97c.16-.37,.26-.74,.3-1.11,.04-.36,.06-.64,.06-.83h2.03Zm-2.11-4.13c0-.36-.02-.79-.05-1.27-.04-.48-.12-.95-.26-1.39s-.36-.81-.68-1.12c-.31-.3-.74-.46-1.27-.46s-1,.14-1.34,.42c-.34,.28-.6,.63-.78,1.05s-.3,.88-.36,1.38c-.06,.49-.09,.96-.09,1.39h4.84Z"/><path d="M157.09,308.31h1.82v1.61h.05c.07-.16,.19-.35,.38-.58,.18-.23,.42-.46,.71-.68s.66-.4,1.1-.55c.44-.15,.97-.22,1.57-.22,1.14,0,2.01,.32,2.6,.95,.59,.63,.88,1.54,.88,2.72v11.26h-2.03v-10.22c0-.97-.14-1.69-.43-2.17-.29-.48-.84-.71-1.68-.71-.56,0-1.02,.11-1.39,.33-.37,.22-.68,.47-.91,.75-.23,.29-.4,.56-.51,.82s-.16,.44-.16,.55v10.66h-2.03v-14.51Z"/><path d="M174.25,323.13c-.29,.02-.58,.04-.85,.07-.27,.03-.54,.04-.82,.04-.66,0-1.17-.09-1.53-.26-.36-.17-.63-.41-.81-.71-.17-.3-.28-.66-.31-1.08-.04-.42-.05-.87-.05-1.35v-9.7h-2v-1.82h2v-3.54h2.03v3.54h2.34v1.82h-2.34v9.62c0,.52,.07,.93,.22,1.22,.15,.29,.56,.44,1.23,.44,.14,0,.29,0,.44-.01,.16,0,.3-.01,.44-.01v1.74Z"/><path d="M191.31,312.11c.62,.21,1.19,.44,1.7,.69,.51,.25,.96,.57,1.34,.96,.38,.39,.68,.88,.88,1.48s.31,1.36,.31,2.27-.14,1.71-.43,2.42c-.29,.71-.69,1.31-1.21,1.79s-1.14,.86-1.86,1.12c-.72,.26-1.52,.39-2.41,.39-1.18,0-2.16-.17-2.94-.49-.78-.33-1.4-.76-1.85-1.29-.45-.53-.77-1.13-.95-1.79s-.27-1.34-.27-2.01v-.99h2.24v.94c0,.45,.06,.89,.18,1.33,.12,.43,.33,.83,.61,1.18,.29,.36,.66,.64,1.13,.86,.47,.22,1.05,.33,1.74,.33,1.18,0,2.08-.31,2.69-.94s.92-1.49,.92-2.6c0-.71-.09-1.27-.27-1.69-.18-.42-.44-.75-.77-1.01-.33-.26-.73-.48-1.2-.65-.47-.17-1-.36-1.59-.57l-2.03-.73c-1.14-.4-1.98-.97-2.51-1.72-.53-.75-.79-1.77-.79-3.07,0-1.66,.49-2.98,1.47-3.95,.98-.97,2.38-1.46,4.2-1.46,1.14,0,2.07,.18,2.77,.55,.7,.36,1.24,.82,1.62,1.37s.64,1.14,.77,1.79c.13,.65,.2,1.26,.2,1.83h-2.24c0-.31-.03-.67-.08-1.08-.05-.41-.19-.8-.4-1.17s-.54-.69-.96-.95c-.42-.26-1-.39-1.73-.39-1.01,0-1.79,.27-2.37,.82-.57,.55-.86,1.37-.86,2.46,0,.5,.06,.92,.18,1.26,.12,.34,.3,.62,.53,.86,.23,.23,.52,.43,.84,.58,.33,.16,.7,.31,1.12,.47l2.24,.81Z"/><path d="M203.29,323.39c-.12,.38-.27,.83-.46,1.34-.18,.51-.43,.99-.74,1.44s-.71,.84-1.18,1.16c-.48,.32-1.08,.48-1.81,.48-.26,0-.53-.03-.81-.08-.28-.05-.53-.11-.75-.16v-1.79c.17,.03,.37,.08,.6,.13,.23,.05,.46,.08,.7,.08,.45,0,.81-.1,1.08-.29,.27-.19,.49-.43,.65-.73s.3-.62,.42-.97c.11-.36,.24-.7,.38-1.03l-4.26-14.67h2.21l3.02,11.88h.05l3.33-11.88h2.21l-4.63,15.08Z"/><path d="M214.97,312.16c0-.17-.01-.4-.04-.68s-.11-.55-.25-.81c-.14-.26-.36-.48-.66-.68-.3-.19-.73-.29-1.29-.29-.64,0-1.16,.17-1.56,.52s-.6,.88-.6,1.59c0,.62,.17,1.1,.51,1.44,.34,.34,.76,.61,1.26,.82,.5,.21,1.05,.4,1.64,.57s1.14,.42,1.64,.73c.5,.31,.92,.73,1.26,1.25,.34,.52,.51,1.23,.51,2.13,0,1.39-.41,2.48-1.22,3.28-.81,.8-1.96,1.2-3.43,1.2-1.07,0-1.92-.16-2.52-.47-.61-.31-1.06-.7-1.36-1.17-.3-.47-.49-.97-.57-1.51-.08-.54-.12-1.03-.12-1.48h2.03c0,.36,.03,.71,.09,1.05s.18,.64,.36,.9c.18,.26,.44,.47,.78,.62,.34,.16,.79,.23,1.37,.23,.73,0,1.32-.21,1.77-.64,.45-.42,.68-1,.68-1.73,0-.68-.17-1.19-.51-1.53-.34-.35-.76-.62-1.26-.83-.5-.21-1.05-.39-1.64-.56-.59-.16-1.14-.4-1.64-.7-.5-.3-.92-.73-1.26-1.29-.34-.55-.51-1.33-.51-2.31,0-.55,.1-1.07,.3-1.55,.2-.48,.48-.89,.84-1.25,.36-.36,.81-.63,1.35-.83,.54-.2,1.14-.3,1.82-.3,.92,0,1.66,.13,2.22,.38,.56,.25,1,.58,1.3,.99,.3,.41,.5,.87,.6,1.38,.1,.51,.14,1.02,.14,1.52h-2.03Z"/><path d="M225.05,323.13c-.29,.02-.58,.04-.85,.07-.27,.03-.54,.04-.82,.04-.66,0-1.17-.09-1.53-.26-.36-.17-.63-.41-.81-.71-.17-.3-.28-.66-.31-1.08-.04-.42-.05-.87-.05-1.35v-9.7h-2v-1.82h2v-3.54h2.03v3.54h2.34v1.82h-2.34v9.62c0,.52,.07,.93,.22,1.22,.15,.29,.56,.44,1.23,.44,.14,0,.29,0,.44-.01,.16,0,.3-.01,.44-.01v1.74Z"/><path d="M235.84,318.09c0,.55-.06,1.14-.19,1.74s-.36,1.16-.7,1.66-.79,.92-1.35,1.25c-.56,.33-1.27,.49-2.12,.49-1.02,0-1.84-.2-2.46-.61-.62-.41-1.09-.96-1.43-1.65-.34-.69-.56-1.51-.68-2.44-.11-.94-.17-1.94-.17-3.02s.07-2.08,.21-3c.14-.93,.39-1.73,.74-2.42,.35-.68,.84-1.22,1.44-1.61,.61-.39,1.39-.58,2.34-.58,1.09,0,1.94,.25,2.53,.75,.6,.5,1.04,1.14,1.31,1.91s.44,1.62,.49,2.55c.05,.93,.08,1.82,.08,2.67h-6.99c0,.76,.03,1.49,.08,2.17,.05,.68,.16,1.28,.34,1.79,.17,.51,.43,.92,.78,1.22,.35,.3,.81,.46,1.38,.46,.54,0,.96-.14,1.27-.42s.55-.6,.7-.97c.16-.37,.26-.74,.3-1.11,.04-.36,.06-.64,.06-.83h2.03Zm-2.11-4.13c0-.36-.02-.79-.05-1.27-.04-.48-.12-.95-.26-1.39s-.36-.81-.68-1.12c-.31-.3-.74-.46-1.27-.46s-1,.14-1.34,.42c-.34,.28-.6,.63-.78,1.05s-.3,.88-.36,1.38c-.06,.49-.09,.96-.09,1.39h4.84Z"/><path d="M238.89,308.31h1.82v1.79h.05c.1-.17,.25-.39,.44-.64,.19-.25,.44-.49,.74-.73,.3-.23,.66-.43,1.08-.6,.42-.17,.91-.25,1.48-.25s1.07,.07,1.46,.22c.38,.15,.69,.33,.92,.55,.23,.22,.41,.46,.53,.71,.12,.26,.23,.49,.31,.7,.14-.24,.32-.49,.53-.75,.22-.26,.48-.49,.79-.7s.68-.38,1.09-.52,.89-.21,1.43-.21c1.26,0,2.17,.36,2.72,1.08,.55,.72,.82,1.66,.82,2.82v11.02h-2.03v-10.56c0-.76-.14-1.38-.43-1.85-.29-.47-.84-.7-1.65-.7-.43,0-.83,.08-1.2,.25-.36,.17-.68,.39-.95,.66-.27,.28-.48,.61-.62,.99-.15,.38-.22,.79-.22,1.22v9.98h-2.03v-10.17c0-.43-.03-.83-.08-1.2-.05-.36-.15-.68-.3-.94-.15-.26-.36-.46-.62-.6-.27-.14-.62-.21-1.05-.21-.56,0-1.02,.11-1.4,.34-.38,.23-.69,.48-.92,.77s-.41,.56-.52,.82c-.11,.26-.17,.42-.17,.47v10.71h-2.03v-14.51Z"/><path d="M73.32,347c-.02,.47-.05,.98-.1,1.52-.05,.55-.15,1.09-.3,1.64-.15,.55-.36,1.08-.62,1.6-.27,.52-.61,.98-1.03,1.37-.42,.39-.92,.71-1.52,.95-.6,.24-1.31,.36-2.15,.36-.9,0-1.72-.14-2.47-.42-.75-.28-1.38-.78-1.91-1.52-.53-.74-.94-1.74-1.23-3.02-.29-1.27-.44-2.9-.44-4.88,0-1.82,.11-3.39,.34-4.71,.23-1.32,.58-2.41,1.08-3.26,.49-.86,1.13-1.5,1.92-1.91,.79-.42,1.75-.62,2.87-.62s2.05,.19,2.77,.58c.72,.39,1.28,.89,1.68,1.5s.68,1.28,.83,2.01c.16,.74,.24,1.45,.26,2.15h-2.24c-.05-.47-.12-.95-.21-1.46s-.25-.96-.48-1.38c-.23-.42-.56-.76-.97-1.04s-.97-.42-1.66-.42c-.88,0-1.58,.22-2.08,.68-.5,.45-.88,1.07-1.13,1.85-.25,.78-.41,1.68-.48,2.7s-.1,2.11-.1,3.25c0,1.28,.06,2.42,.18,3.41,.12,.99,.32,1.82,.6,2.5,.28,.68,.65,1.19,1.12,1.53,.47,.35,1.06,.52,1.77,.52,.8,0,1.42-.19,1.87-.57,.45-.38,.78-.85,1-1.4s.36-1.15,.43-1.78c.07-.63,.13-1.21,.18-1.73h2.24Z"/><path d="M84.76,349.29c0,.55-.06,1.14-.19,1.74s-.36,1.16-.7,1.66-.79,.92-1.35,1.25c-.56,.33-1.27,.49-2.12,.49-1.02,0-1.84-.2-2.46-.61-.62-.41-1.09-.96-1.43-1.65-.34-.69-.56-1.51-.68-2.44-.11-.94-.17-1.94-.17-3.02s.07-2.08,.21-3c.14-.93,.39-1.73,.74-2.42,.35-.68,.84-1.22,1.44-1.61,.61-.39,1.39-.58,2.34-.58,1.09,0,1.94,.25,2.53,.75,.6,.5,1.04,1.14,1.31,1.91s.44,1.62,.49,2.55c.05,.93,.08,1.82,.08,2.67h-6.99c0,.76,.03,1.49,.08,2.17,.05,.68,.16,1.28,.34,1.79,.17,.51,.43,.92,.78,1.22,.35,.3,.81,.46,1.38,.46,.54,0,.96-.14,1.27-.42s.55-.6,.7-.97c.16-.37,.26-.74,.3-1.11,.04-.36,.06-.64,.06-.83h2.03Zm-2.11-4.13c0-.36-.02-.79-.05-1.27-.04-.48-.12-.95-.26-1.39s-.36-.81-.68-1.12c-.31-.3-.74-.46-1.27-.46s-1,.14-1.34,.42c-.34,.28-.6,.63-.78,1.05s-.3,.88-.36,1.38c-.06,.49-.09,.96-.09,1.39h4.84Z"/><path d="M88.17,339.51h1.82v2.55h.05c.03-.31,.14-.65,.32-1,.18-.36,.44-.68,.77-.96,.33-.29,.73-.52,1.2-.72,.47-.19,1-.29,1.61-.29,.16,0,.29,.02,.39,.05v2.08c-.14,0-.27,0-.4-.01-.13,0-.26-.01-.4-.01-.52,0-.99,.11-1.4,.34-.42,.23-.77,.53-1.05,.91-.29,.38-.5,.83-.65,1.35-.15,.52-.22,1.07-.22,1.64v8.58h-2.03v-14.51Z"/><path d="M101.35,354.33c-.29,.02-.58,.04-.85,.07-.27,.03-.54,.04-.82,.04-.66,0-1.17-.09-1.53-.26-.36-.17-.63-.41-.81-.71-.17-.3-.28-.66-.31-1.08-.04-.42-.05-.87-.05-1.35v-9.7h-2v-1.82h2v-3.54h2.03v3.54h2.34v1.82h-2.34v9.62c0,.52,.07,.93,.22,1.22,.15,.29,.56,.44,1.23,.44,.14,0,.29,0,.44-.01,.16,0,.3-.01,.44-.01v1.74Z"/><path d="M103.61,334.52h2.03v2.65h-2.03v-2.65Zm0,4.99h2.03v14.51h-2.03v-14.51Z"/><path d="M109.93,341.33h-2.08v-1.82h2.08v-1.72c0-.95,.24-1.74,.71-2.35,.48-.62,1.2-.92,2.17-.92h.73c.24,0,.48,.02,.73,.05v1.82c-.07,0-.16,0-.27-.03-.11-.02-.28-.03-.51-.03-.36,0-.65,.05-.85,.16-.2,.1-.35,.24-.46,.42-.1,.17-.17,.37-.19,.58s-.04,.44-.04,.66v1.35h2.29v1.82h-2.29v12.69h-2.03v-12.69Zm6.24-6.81h2.03v2.65h-2.03v-2.65Zm0,4.99h2.03v14.51h-2.03v-14.51Z"/><path d="M130.83,349.05c-.05,.42-.13,.93-.22,1.55s-.29,1.21-.58,1.77c-.29,.56-.73,1.05-1.3,1.46-.57,.41-1.37,.61-2.39,.61s-1.91-.21-2.55-.62c-.64-.42-1.14-.98-1.5-1.68-.36-.7-.59-1.51-.71-2.42-.12-.91-.18-1.86-.18-2.85,0-2.51,.38-4.44,1.14-5.77,.76-1.33,2.03-2,3.8-2,.92,0,1.67,.16,2.25,.49,.58,.33,1.04,.74,1.36,1.24s.56,1.04,.69,1.62c.13,.59,.19,1.14,.19,1.64h-2.16c-.05-.36-.12-.73-.21-1.1s-.21-.71-.38-1.03c-.17-.31-.39-.56-.66-.75-.28-.19-.64-.29-1.09-.29-.57,0-1.04,.17-1.4,.52-.36,.35-.65,.8-.85,1.36-.2,.56-.34,1.2-.42,1.91-.08,.71-.12,1.43-.12,2.16,0,1.89,.19,3.32,.57,4.29,.38,.97,1.12,1.46,2.21,1.46,.42,0,.77-.09,1.05-.26,.29-.17,.52-.42,.7-.74,.18-.32,.32-.7,.4-1.13,.09-.43,.15-.91,.18-1.43h2.16Z"/><path d="M142.97,354.02c-.19,.09-.37,.14-.55,.17-.17,.03-.32,.04-.44,.04-.4,0-.72-.06-.97-.17-.25-.11-.46-.25-.61-.42-.16-.17-.27-.34-.35-.53-.08-.19-.13-.36-.17-.52-.14,.23-.29,.45-.44,.66-.16,.22-.36,.41-.61,.58-.25,.17-.56,.32-.92,.43-.36,.11-.83,.17-1.4,.17-1.16,0-2.02-.36-2.56-1.07-.55-.71-.82-1.71-.82-2.99,0-.62,.06-1.17,.19-1.64,.13-.47,.33-.87,.58-1.21,.26-.34,.59-.63,.99-.87,.4-.24,.87-.46,1.4-.65l2.03-.7c.33-.1,.59-.21,.78-.31,.19-.1,.33-.22,.43-.36,.09-.14,.16-.32,.18-.56,.03-.23,.04-.53,.04-.9,0-.31-.03-.61-.09-.88-.06-.28-.17-.52-.33-.71-.16-.2-.36-.36-.62-.48-.26-.12-.59-.18-.99-.18-.81,0-1.4,.24-1.74,.71-.35,.48-.52,1.08-.52,1.81h-1.95c0-.45,.05-.93,.14-1.44,.1-.51,.29-.98,.59-1.4,.29-.42,.72-.78,1.27-1.07,.55-.29,1.3-.43,2.24-.43,1.47,0,2.51,.33,3.12,1,.61,.67,.91,1.58,.91,2.74v8.27c0,.33,.02,.59,.05,.78,.03,.19,.09,.34,.16,.44,.07,.1,.16,.17,.29,.2,.12,.03,.26,.04,.42,.04,.12,0,.22,0,.29-.03v1.48Zm-4.26-7.15c-.55,.24-1.05,.44-1.48,.58-.43,.15-.79,.33-1.08,.55-.29,.22-.5,.5-.65,.86-.15,.36-.22,.85-.22,1.5,0,.78,.17,1.35,.52,1.72s.8,.55,1.35,.55c.33,0,.65-.08,.98-.25,.32-.16,.6-.39,.83-.69s.42-.66,.57-1.09c.15-.43,.22-.93,.22-1.48v-2.65l-1.04,.42Z"/><path d="M149.89,354.33c-.29,.02-.58,.04-.85,.07-.27,.03-.54,.04-.82,.04-.66,0-1.17-.09-1.53-.26-.36-.17-.63-.41-.81-.71-.17-.3-.28-.66-.31-1.08-.04-.42-.05-.87-.05-1.35v-9.7h-2v-1.82h2v-3.54h2.03v3.54h2.34v1.82h-2.34v9.62c0,.52,.07,.93,.22,1.22,.15,.29,.56,.44,1.23,.44,.14,0,.29,0,.44-.01,.16,0,.3-.01,.44-.01v1.74Z"/><path d="M152.15,334.52h2.03v2.65h-2.03v-2.65Zm0,4.99h2.03v14.51h-2.03v-14.51Z"/><path d="M162.19,354.44c-.94,0-1.73-.17-2.37-.52s-1.16-.85-1.55-1.52-.67-1.49-.84-2.46c-.17-.97-.26-2.07-.26-3.3s.09-2.29,.27-3.22c.18-.94,.47-1.72,.87-2.37,.4-.64,.92-1.13,1.57-1.46,.65-.33,1.43-.49,2.35-.49s1.72,.16,2.37,.49c.64,.33,1.17,.81,1.57,1.43,.41,.62,.7,1.38,.88,2.27,.18,.89,.27,1.91,.27,3.06,0,1.25-.09,2.37-.26,3.37-.17,1-.46,1.85-.86,2.55-.4,.7-.93,1.24-1.59,1.61-.66,.37-1.47,.56-2.44,.56Zm-2.86-7.57c0,.92,.04,1.73,.13,2.44,.09,.71,.24,1.31,.46,1.79,.22,.49,.51,.86,.87,1.12,.36,.26,.83,.39,1.4,.39,.62,0,1.13-.14,1.52-.42s.69-.68,.91-1.21c.22-.53,.36-1.18,.44-1.95,.08-.77,.12-1.65,.12-2.64,0-.85-.04-1.61-.13-2.29s-.24-1.25-.46-1.73-.51-.84-.87-1.09c-.36-.25-.81-.38-1.35-.38-.62,0-1.14,.14-1.53,.42-.4,.28-.71,.67-.94,1.18-.23,.51-.38,1.13-.46,1.87-.08,.74-.12,1.56-.12,2.48Z"/><path d="M170.38,339.51h1.82v1.61h.05c.07-.16,.19-.35,.38-.58,.18-.23,.42-.46,.71-.68s.66-.4,1.1-.55c.44-.15,.97-.22,1.57-.22,1.14,0,2.01,.32,2.6,.95,.59,.63,.88,1.54,.88,2.72v11.26h-2.03v-10.22c0-.97-.14-1.69-.43-2.17-.29-.48-.84-.71-1.68-.71-.56,0-1.02,.11-1.39,.33-.37,.22-.68,.47-.91,.75-.23,.29-.4,.56-.51,.82s-.16,.44-.16,.55v10.66h-2.03v-14.51Z"/><path d="M191.18,334.52h5.41c.76,0,1.46,.08,2.08,.25s1.16,.44,1.61,.82c.45,.38,.8,.88,1.04,1.51s.36,1.39,.36,2.29c0,.83-.1,1.51-.3,2.04-.2,.53-.44,.95-.71,1.26-.28,.31-.57,.54-.88,.68s-.57,.23-.78,.29v.05c.33,.09,.68,.22,1.05,.39,.37,.17,.72,.43,1.05,.77,.33,.34,.6,.78,.82,1.34s.33,1.25,.33,2.08c0,1.82-.49,3.23-1.46,4.24-.97,1-2.41,1.51-4.32,1.51h-5.3v-19.5Zm2.24,8.4h2.44c.59,0,1.1-.06,1.53-.17,.43-.11,.79-.3,1.07-.56,.28-.26,.48-.61,.62-1.05,.14-.44,.21-.99,.21-1.65,0-.88-.23-1.61-.69-2.17-.46-.56-1.24-.84-2.35-.84h-2.83v6.45Zm0,9.15h2.34c.69,0,1.3-.06,1.81-.17,.51-.11,.94-.31,1.27-.58s.59-.65,.77-1.12c.17-.47,.26-1.07,.26-1.79,0-1.25-.3-2.15-.9-2.7s-1.5-.83-2.69-.83h-2.86v7.2Z"/><path d="M209.58,354.44c-.94,0-1.73-.17-2.37-.52s-1.16-.85-1.55-1.52-.67-1.49-.84-2.46c-.17-.97-.26-2.07-.26-3.3s.09-2.29,.27-3.22c.18-.94,.47-1.72,.87-2.37,.4-.64,.92-1.13,1.57-1.46,.65-.33,1.43-.49,2.35-.49s1.72,.16,2.37,.49c.64,.33,1.17,.81,1.57,1.43,.41,.62,.7,1.38,.88,2.27,.18,.89,.27,1.91,.27,3.06,0,1.25-.09,2.37-.26,3.37-.17,1-.46,1.85-.86,2.55-.4,.7-.93,1.24-1.59,1.61-.66,.37-1.47,.56-2.44,.56Zm-2.86-7.57c0,.92,.04,1.73,.13,2.44,.09,.71,.24,1.31,.46,1.79,.22,.49,.51,.86,.87,1.12,.36,.26,.83,.39,1.4,.39,.62,0,1.13-.14,1.52-.42s.69-.68,.91-1.21c.22-.53,.36-1.18,.44-1.95,.08-.77,.12-1.65,.12-2.64,0-.85-.04-1.61-.13-2.29s-.24-1.25-.46-1.73-.51-.84-.87-1.09c-.36-.25-.81-.38-1.35-.38-.62,0-1.14,.14-1.53,.42-.4,.28-.71,.67-.94,1.18-.23,.51-.38,1.13-.46,1.87-.08,.74-.12,1.56-.12,2.48Z"/><path d="M225.13,352.2h-.05c-.12,.26-.25,.52-.38,.79-.13,.27-.31,.51-.55,.71-.23,.21-.54,.38-.92,.52-.38,.14-.88,.21-1.48,.21-.92,0-1.67-.22-2.25-.65-.58-.43-1.04-1-1.36-1.72-.33-.71-.56-1.53-.69-2.47-.13-.94-.2-1.91-.2-2.91,0-1.16,.09-2.21,.27-3.15,.18-.94,.47-1.73,.86-2.39,.39-.66,.88-1.17,1.46-1.52,.58-.35,1.28-.53,2.09-.53,.71,0,1.3,.17,1.78,.51s.86,.75,1.16,1.23h.05v-6.32h2.03v19.5h-1.82v-1.82Zm-5.72-5.51c0,1.21,.07,2.2,.21,2.96,.14,.76,.33,1.37,.57,1.81,.24,.44,.52,.75,.83,.91,.31,.17,.64,.25,.99,.25,.47,0,.88-.09,1.25-.29,.36-.19,.68-.52,.94-.97,.26-.46,.46-1.07,.6-1.83s.21-1.72,.21-2.86-.06-2.09-.19-2.83c-.13-.75-.32-1.33-.57-1.75-.25-.42-.55-.72-.9-.9-.35-.17-.73-.26-1.14-.26-.99,0-1.7,.47-2.13,1.42-.43,.95-.65,2.4-.65,4.36Z"/><path d="M235.56,354.59c-.12,.38-.27,.83-.46,1.34-.18,.51-.43,.99-.74,1.44s-.71,.84-1.18,1.16c-.48,.32-1.08,.48-1.81,.48-.26,0-.53-.03-.81-.08-.28-.05-.53-.11-.75-.16v-1.79c.17,.03,.37,.08,.6,.13,.23,.05,.46,.08,.7,.08,.45,0,.81-.1,1.08-.29,.27-.19,.49-.43,.65-.73s.3-.62,.42-.97c.11-.36,.24-.7,.38-1.03l-4.26-14.67h2.21l3.02,11.88h.05l3.33-11.88h2.21l-4.63,15.08Z"/></g><g><path d="M81.1,368.66h4.86l5.47,21.66h.07l5.47-21.66h4.86v25.5h-2.92v-23.63h-.07l-5.92,23.63h-2.92l-5.92-23.63h-.07v23.63h-2.92v-25.5Z"/><path d="M118.12,380.15c.82,.27,1.56,.57,2.23,.9,.67,.33,1.25,.75,1.75,1.26,.5,.51,.88,1.16,1.16,1.94s.41,1.77,.41,2.98-.19,2.23-.56,3.16-.9,1.71-1.58,2.35c-.68,.63-1.49,1.12-2.43,1.46-.94,.34-1.99,.51-3.15,.51-1.54,0-2.82-.22-3.84-.65-1.02-.43-1.82-.99-2.41-1.68-.59-.69-1-1.47-1.24-2.35s-.36-1.75-.36-2.63v-1.29h2.92v1.22c0,.59,.08,1.17,.24,1.73,.16,.57,.42,1.08,.8,1.55s.87,.84,1.48,1.12c.61,.28,1.37,.43,2.28,.43,1.54,0,2.71-.41,3.52-1.22,.8-.82,1.21-1.95,1.21-3.4,0-.93-.12-1.67-.36-2.21s-.57-.99-1-1.33c-.43-.34-.95-.62-1.56-.85-.61-.23-1.3-.48-2.07-.75l-2.65-.95c-1.5-.52-2.59-1.27-3.28-2.24-.69-.97-1.04-2.31-1.04-4.01,0-2.18,.64-3.9,1.92-5.17,1.28-1.27,3.11-1.9,5.49-1.9,1.5,0,2.7,.24,3.62,.71s1.63,1.07,2.12,1.79,.83,1.5,1,2.35c.17,.85,.26,1.65,.26,2.4h-2.92c0-.41-.03-.88-.1-1.41-.07-.53-.24-1.04-.53-1.53-.28-.49-.7-.9-1.26-1.24-.56-.34-1.31-.51-2.26-.51-1.31,0-2.35,.36-3.09,1.07s-1.12,1.78-1.12,3.21c0,.66,.08,1.21,.24,1.65,.16,.44,.39,.82,.7,1.12,.31,.31,.67,.56,1.1,.77,.43,.2,.92,.41,1.46,.61l2.92,1.05Z"/><path d="M144.4,384.98c-.02,.61-.07,1.28-.14,1.99-.07,.71-.2,1.43-.39,2.14-.19,.71-.46,1.41-.82,2.09-.35,.68-.8,1.27-1.34,1.79-.54,.51-1.21,.92-1.99,1.24-.78,.32-1.72,.48-2.81,.48-1.18,0-2.26-.18-3.23-.54-.98-.36-1.81-1.03-2.5-1.99-.69-.96-1.23-2.28-1.62-3.95s-.58-3.79-.58-6.38c0-2.38,.15-4.43,.44-6.15,.29-1.72,.77-3.15,1.41-4.27,.65-1.12,1.48-1.96,2.52-2.5,1.03-.54,2.28-.82,3.76-.82s2.68,.25,3.62,.76c.94,.51,1.67,1.16,2.19,1.96,.52,.79,.88,1.67,1.09,2.63,.2,.96,.32,1.9,.34,2.81h-2.92c-.07-.61-.16-1.25-.27-1.9-.11-.66-.32-1.26-.63-1.8-.31-.54-.73-1-1.27-1.36-.54-.36-1.27-.54-2.18-.54-1.16,0-2.06,.29-2.72,.88-.66,.59-1.15,1.39-1.48,2.41-.33,1.02-.54,2.2-.63,3.54-.09,1.34-.14,2.75-.14,4.25,0,1.68,.08,3.16,.24,4.45,.16,1.29,.42,2.38,.78,3.26,.36,.88,.85,1.55,1.46,2.01s1.38,.68,2.31,.68c1.04,0,1.86-.25,2.45-.75s1.03-1.11,1.31-1.84c.28-.72,.47-1.5,.56-2.33,.09-.83,.17-1.58,.24-2.26h2.92Z"/><path d="M150.73,368.66h7.07c1,0,1.9,.11,2.72,.32s1.52,.57,2.11,1.07c.59,.5,1.04,1.16,1.36,1.97,.32,.82,.48,1.81,.48,2.99,0,1.09-.13,1.98-.39,2.67-.26,.69-.57,1.24-.94,1.65-.36,.41-.75,.7-1.16,.88s-.75,.31-1.02,.37v.07c.43,.11,.89,.28,1.38,.51,.49,.23,.95,.56,1.38,1,.43,.44,.79,1.03,1.07,1.75,.28,.73,.42,1.63,.42,2.72,0,2.38-.63,4.23-1.9,5.54-1.27,1.32-3.15,1.97-5.64,1.97h-6.94v-25.5Zm2.92,10.98h3.2c.77,0,1.44-.07,2.01-.22,.57-.15,1.03-.39,1.39-.73,.36-.34,.63-.8,.82-1.38,.18-.58,.27-1.3,.27-2.16,0-1.16-.3-2.1-.9-2.84-.6-.74-1.63-1.1-3.08-1.1h-3.71v8.43Zm0,11.97h3.06c.91,0,1.69-.07,2.36-.22,.67-.15,1.22-.4,1.67-.76,.44-.36,.78-.85,1-1.46,.23-.61,.34-1.39,.34-2.35,0-1.63-.39-2.81-1.17-3.54-.78-.73-1.96-1.09-3.52-1.09h-3.74v9.42Z"/><path d="M170.28,383.55h7.51v2.65h-7.51v-2.65Z"/><path d="M189.93,375.93h-5.37v-2.38c1.04,0,1.92-.09,2.64-.27,.71-.18,1.3-.46,1.75-.83,.45-.37,.8-.84,1.04-1.41,.24-.57,.4-1.25,.49-2.04h2.38v25.16h-2.92v-18.22Z"/><path d="M210.77,387.97h-9.32v-2.55l9.45-16.42h2.79v16.42h2.55v2.55h-2.55v6.19h-2.92v-6.19Zm-6.66-2.55h6.66v-11.53h-.07l-6.6,11.53Z"/><path d="M227.87,394.7c-1.16,0-2.17-.2-3.04-.59-.87-.4-1.6-.94-2.18-1.62s-1.01-1.48-1.31-2.4-.44-1.91-.44-2.98c0-1.18,.13-2.15,.39-2.91,.26-.76,.58-1.38,.97-1.87,.39-.49,.8-.87,1.26-1.14,.45-.27,.88-.51,1.29-.71-.36-.2-.73-.42-1.1-.66-.37-.24-.71-.55-1.02-.93-.31-.39-.56-.87-.77-1.46-.2-.59-.31-1.34-.31-2.24,0-2.06,.56-3.7,1.68-4.91s2.65-1.82,4.57-1.82,3.42,.58,4.56,1.73c1.13,1.16,1.7,2.74,1.7,4.76,0,.93-.12,1.71-.36,2.35-.24,.63-.53,1.16-.87,1.58-.34,.42-.69,.74-1.05,.97-.36,.23-.68,.41-.95,.54,.48,.18,.95,.41,1.41,.7,.46,.28,.88,.66,1.26,1.14,.37,.48,.68,1.07,.92,1.79,.24,.71,.36,1.61,.36,2.7s-.14,2.08-.41,3.06c-.27,.98-.7,1.83-1.27,2.55-.58,.73-1.3,1.3-2.18,1.73-.87,.43-1.91,.65-3.11,.65Zm-3.84-7.89c0,1.77,.35,3.1,1.05,3.99,.7,.9,1.64,1.34,2.82,1.34,1.09,0,1.99-.45,2.72-1.34,.73-.89,1.09-2.23,1.09-3.99,0-1.56-.37-2.78-1.1-3.64-.74-.86-1.65-1.29-2.74-1.29-1.16,0-2.09,.41-2.79,1.24-.7,.83-1.05,2.06-1.05,3.69Zm.71-11.63c0,1.18,.28,2.15,.85,2.91,.57,.76,1.33,1.14,2.28,1.14,.59,0,1.09-.12,1.5-.36,.41-.24,.73-.54,.97-.92s.41-.79,.51-1.26c.1-.46,.15-.92,.15-1.38,0-1.43-.28-2.5-.85-3.23-.57-.72-1.33-1.09-2.28-1.09s-1.74,.36-2.29,1.09c-.56,.73-.83,1.76-.83,3.09Z"/></g><g><polygon class="cls-2" points="112.55 157.84 137.28 157.84 124.8 116.94 112.55 157.84"/><path class="cls-2" d="M251.14,42.09H50.93c-3,0-5.44,2.43-5.44,5.44V245.1c0,3,2.43,5.44,5.44,5.44H251.14c3,0,5.44-2.43,5.44-5.44V47.53c0-3-2.43-5.44-5.44-5.44ZM73.36,201.46h-18.2V91.22h18.2v110.24Zm77.71,0l-7.92-24.96h-36.19l-7.47,24.96h-19.4l35.2-110.24h19.33l36.23,110.24h-19.78Zm87.84-7.89c-5.89,6.52-15.1,9.77-27.63,9.77-22.16,0-34.49-12.61-37-37.82l17.82-2.11c2,14.09,8.57,21.13,19.7,21.13,5.51,0,9.85-1.44,13.01-4.32s4.74-6.45,4.74-10.71c0-2.5-.55-4.63-1.65-6.39-1.1-1.75-2.78-3.19-5.04-4.32s-7.72-3.02-16.39-5.67c-7.77-2.35-13.46-4.9-17.07-7.66-3.61-2.75-6.48-6.37-8.61-10.86-2.13-4.48-3.2-9.3-3.2-14.46,0-6.01,1.37-11.42,4.1-16.23,2.73-4.81,6.5-8.44,11.32-10.89s10.75-3.68,17.82-3.68c10.63,0,18.92,2.88,24.89,8.65,5.97,5.77,9.12,14.01,9.47,24.74l-18.27,.98c-.8-5.91-2.53-10.05-5.19-12.41-2.66-2.36-6.44-3.53-11.35-3.53s-8.7,1.02-11.35,3.07c-2.66,2.05-3.99,4.6-3.99,7.65s1.21,5.52,3.62,7.57c2.41,2.05,7.95,4.3,16.62,6.76,9.17,2.66,15.8,5.45,19.88,8.39,4.08,2.93,7.2,6.72,9.36,11.35,2.15,4.64,3.23,10.26,3.23,16.88,0,9.57-2.95,17.62-8.84,24.13Z"/></g><path class="cls-3" d="M829.56,71.57c0-3.99-.11-8.02-.67-11.97-1.42-10.14-6.15-24.78-20.85-39.97-12.22-12.62-28.7-16.13-46.07-16.13-230.33,.08-460.65,.05-690.98,.1-5.15,0-10.39,.19-15.42,1.16C24.25,10.86,3.56,37.08,3.54,70.71c-.06,94-.07,187.99,.08,281.99,0,6.43,.76,13.04,2.33,19.26,6.18,24.48,28.92,47.97,65.68,47.91,226.99-.36,453.98-.18,680.98-.19,4.33,0,8.67,0,13-.02,13.56-.09,26.06-3.75,36.97-11.87,18.6-13.85,27.06-32.69,27.04-55.73-.07-93.5-.02-186.99-.05-280.49Z"/></g></g></svg>