<?xml version="1.0" encoding="UTF-8"?>
<!-- Created with Inkscape (http://www.inkscape.org/) -->
<svg width="86.321mm" height="72.224mm" version="1.1" viewBox="0 0 86.321 72.224" xmlns="http://www.w3.org/2000/svg">
 <g transform="translate(-77.653 -123.71)">
  <g transform="translate(-179.93 77.765)" fill="none" stroke="#000" stroke-linejoin="round">
   <path d="m343.16 46.653 0.0454 70.804h-26.592l-15.373-28.603-15.496 28.623-27.469-0.0957 1.0003-70.41" stroke-linecap="round" stroke-width="1.3914"/>
   <g stroke-width="1.0583">
    <path d="m341.17 46.488-0.01 69.231h-22.545l-17.483-31.389-17.111 31.356-23.553-0.0392 0.64039-68.59 1.9454 0.0503-0.49219 66.592 19.672 0.0562 18.658-34.182 19.503 34.284h18.963l-0.11754-67.365-2.6605-7.9e-4" stroke-linecap="round"/>
    <path d="m336.58 46.5 0.54489 65.02-14.994-0.11359-21.583-36.123-19.879 36.35h-15.789l0.11358-64.521h3.7486l3.5214 4.6573"/>
    <path d="m343.07 46.478-1.7735 0.0126" stroke-linecap="round"/>
   </g>
  </g>
 </g>
</svg>
