<?xml version="1.0" encoding="UTF-8"?>
<!-- Created with Inkscape (http://www.inkscape.org/) -->
<svg width="126.33mm" height="129.88mm" version="1.1" viewBox="0 0 126.33 129.88" xmlns="http://www.w3.org/2000/svg">
 <g transform="translate(-48.837 -63.424)">
  <path d="m174.74 176.56c0 0.6469-0.52441 1.1713-1.1713 1.1713s-1.1713-0.52442-1.1713-1.1713 0.52441-1.1713 1.1713-1.1713 1.1713 0.52441 1.1713 1.1713zm-0.0771-4.0106c0 0.6469-0.52442 1.1713-1.1713 1.1713s-1.1713-0.52442-1.1713-1.1713 0.52441-1.1713 1.1713-1.1713 1.1713 0.52441 1.1713 1.1713zm0.11566-4.3192c0 0.6469-0.52441 1.1713-1.1713 1.1713s-1.1713-0.52441-1.1713-1.1713 0.52442-1.1713 1.1713-1.1713 1.1713 0.52441 1.1713 1.1713zm-40.452 8.4957c0 0.6469-0.52442 1.1713-1.1713 1.1713s-1.1713-0.52441-1.1713-1.1713 0.52441-1.1713 1.1713-1.1713 1.1713 0.52442 1.1713 1.1713zm-0.0891-4.2739c0 0.6469-0.52442 1.1713-1.1713 1.1713s-1.1713-0.52442-1.1713-1.1713 0.52441-1.1713 1.1713-1.1713 1.1713 0.52441 1.1713 1.1713zm6.6823 4.2194c0 0.6469-0.52442 1.1713-1.1713 1.1713s-1.1713-0.52441-1.1713-1.1713 0.52441-1.1713 1.1713-1.1713 1.1713 0.52441 1.1713 1.1713zm-0.0771-4.1649c0 0.6469-0.52441 1.1713-1.1713 1.1713s-1.1713-0.52442-1.1713-1.1713 0.52442-1.1713 1.1713-1.1713 1.1713 0.52441 1.1713 1.1713zm0-4.3577c0 0.6469-0.52441 1.1713-1.1713 1.1713s-1.1713-0.52441-1.1713-1.1713 0.52442-1.1713 1.1713-1.1713 1.1713 0.52442 1.1713 1.1713zm-6.4452 0.0817c0 0.6469-0.52441 1.1713-1.1713 1.1713s-1.1713-0.52442-1.1713-1.1713 0.52442-1.1713 1.1713-1.1713 1.1713 0.52441 1.1713 1.1713zm-85.12 23.399c0 0.6469 0.52441 1.1713 1.1713 1.1713s1.1713-0.52442 1.1713-1.1713-0.52442-1.1713-1.1713-1.1713-1.1713 0.52441-1.1713 1.1713zm0.0771-4.0106c0 0.6469 0.52441 1.1713 1.1713 1.1713s1.1713-0.52442 1.1713-1.1713-0.52441-1.1713-1.1713-1.1713-1.1713 0.52441-1.1713 1.1713zm-0.11567-4.3192c0 0.6469 0.52442 1.1713 1.1713 1.1713s1.1713-0.52441 1.1713-1.1713-0.52441-1.1713-1.1713-1.1713-1.1713 0.52441-1.1713 1.1713zm40.452 8.4957c0.17254 1.6698 2.3052 1.2329 2.3426 0 0-0.6469-0.52442-1.1713-1.1713-1.1713s-1.1713 0.52442-1.1713 1.1713zm0.089-4.2739c0 0.6469 0.52441 1.1713 1.1713 1.1713s1.1713-0.52441 1.1713-1.1713-0.52441-1.1713-1.1713-1.1713-1.1713 0.52442-1.1713 1.1713zm-6.6822 4.2193c0 0.6469 0.52441 1.1713 1.1713 1.1713s1.1713-0.52441 1.1713-1.1713-0.52441-1.1713-1.1713-1.1713-1.1713 0.52441-1.1713 1.1713zm0.077-4.1649c0 0.6469 0.52442 1.1713 1.1713 1.1713s1.1713-0.52442 1.1713-1.1713-0.52441-1.1713-1.1713-1.1713-1.1713 0.52441-1.1713 1.1713zm0-4.3577c0 0.6469 0.52442 1.1713 1.1713 1.1713s1.1713-0.52441 1.1713-1.1713-0.52441-1.1713-1.1713-1.1713-1.1713 0.52442-1.1713 1.1713zm6.4453 0.0817c0 0.6469 0.52442 1.1713 1.1713 1.1713s1.1713-0.52442 1.1713-1.1713-0.52441-1.1713-1.1713-1.1713-1.1713 0.52441-1.1713 1.1713zm82.7 8.1597c0 0.6469 0.52442 1.1713 1.1713 1.1713s1.1713-0.52442 1.1713-1.1713-0.52441-1.1713-1.1713-1.1713-1.1713 0.52441-1.1713 1.1713zm0-4.0958c0 0.6469 0.52442 1.1713 1.1713 1.1713s1.1713-0.52442 1.1713-1.1713-0.52441-1.1713-1.1713-1.1713-1.1713 0.52441-1.1713 1.1713zm0.089-4.2739c0 0.6469 0.52442 1.1713 1.1713 1.1713s1.1713-0.52442 1.1713-1.1713-0.52441-1.1713-1.1713-1.1713-1.1713 0.52441-1.1713 1.1713zm-0.59132 8.5984h-79.096m79.083-2.062h-79.398m-9.5577 2.1717h-31.12m31.44-2.0935h-31.189m30.969-2.0894h-31.184m31.464-2.1842h-31.454m31.224-2.0935h-31.207m119.97 4.1955h-79.193m79.133-2.0894h-79.341m79.52-2.1842h-79.185m-41-6.8691c0 0.6469-0.52441 1.1713-1.1713 1.1713s-1.1713-0.52442-1.1713-1.1713 0.52442-1.1713 1.1713-1.1713 1.1713 0.52441 1.1713 1.1713zm0-4.0958c0 0.6469-0.52441 1.1713-1.1713 1.1713s-1.1713-0.52442-1.1713-1.1713 0.52442-1.1713 1.1713-1.1713 1.1713 0.52441 1.1713 1.1713zm-0.089-4.2739c0 0.6469-0.52441 1.1713-1.1713 1.1713s-1.1713-0.52442-1.1713-1.1713 0.52442-1.1713 1.1713-1.1713 1.1713 0.52441 1.1713 1.1713zm60.237-22.045-61.405-80.955m61.536 84.557-61.531-81.278m61.506 84.733-61.514-81.11m61.504 84.737-61.513-81.437m61.353 84.928-61.316-81.409m61.424 84.582-61.432-80.7m123.91-1.4505-62.262 82.053m62.212-85.109-62.378 81.796m62.484-85.2-62.492 81.954m62.351-85.511-62.258 81.971m62.279-86.129-62.345 82.575m62.453-85.748-62.461 82.106m-51.43-7.9631 0.17108-41.598m-2.265 46.71 0.27554-49.249m-2.2829 54.002 0.11622-56.9m-2.4902 61.606 0.47256-64.409m-2.4866 69.678 0.52087-72.347m-2.4218 77.334 0.32762-97.343m61.883 37.21-18.971 18.476m-8.3914 8.115-34.855 33.645m62.319-63.186-20.629 19.897m-8.0285 7.669-31.392 30.202m59.964-60.648-21.879 21.015m-7.8204 7.616-28.678 27.441m58.497-59.13-22.984 22.232m-8.1197 7.7813-24.884 23.963m55.888-57.132-24.137 23.757m-8.202 7.6995-21.516 21.04m53.801-55.046-25.6 24.712m-8.2034 7.9352-17.884 17.272m103.7-0.072-0.17108-42.044m2.265 47.156-0.27554-49.935m2.2829 54.688-0.11622-57.689m2.4902 62.395-0.47256-65.541m2.4866 70.81-0.42192-73.357m2.3229 78.345-0.32762-98.643m-122.19 112.51h79.096m-79.083-2.062h79.398m9.5577 2.1717h31.12m-31.44-2.0935h31.189m-30.969-2.0894h31.184m-31.464-2.1842h31.454m-31.224-2.0935h31.207m-119.97 4.1955h79.193m-79.133-2.0894h79.341m-79.52-2.1842h79.185m-18.93-65.513 18.653 17.889m7.7448 7.5922 35.941 34.694m-62.319-63.186 19.81 19.134m8.1067 7.7224 32.132 30.912m-59.964-60.647 21.133 20.295m7.8878 7.5802 29.357 28.197m-58.254-58.948 22.454 21.463m7.8303 7.5735 25.461 24.757m-55.888-57.132 23.874 23.094m7.9281 7.9724 22.053 21.429m-53.801-55.046 25.019 24.155m7.833 7.3722 18.836 18.392" fill="none" stroke="#000" stroke-linecap="round" stroke-linejoin="round" stroke-width=".79375"/>
 </g>
</svg>
