<?xml version="1.0" encoding="UTF-8"?><svg id="Camada_2" xmlns="http://www.w3.org/2000/svg" viewBox="0 0 300.09 310"><defs><style>.cls-1{fill:#0ab580;}.cls-2{fill:#21ffb5;}</style></defs><g id="Camada_1-2"><g><g><path class="cls-2" d="M108.68,11.35l.23,3.02c1.92-2.35,4.51-3.52,7.77-3.52,3.48,0,5.87,1.37,7.17,4.12,1.9-2.75,4.61-4.12,8.12-4.12,2.93,0,5.11,.85,6.55,2.56,1.43,1.71,2.15,4.28,2.15,7.71v17.27h-7.25V21.14c0-1.53-.3-2.65-.9-3.36-.6-.71-1.66-1.06-3.17-1.06-2.17,0-3.67,1.03-4.5,3.1l.02,18.57h-7.22V21.17c0-1.57-.31-2.7-.92-3.4-.62-.7-1.67-1.05-3.15-1.05-2.05,0-3.53,.85-4.45,2.55v19.12h-7.22V11.35h6.77Z"/><path class="cls-2" d="M158.6,27.54l-2.6,2.6v8.25h-7.22V0h7.22V21.27l1.4-1.8,6.92-8.12h8.67l-9.77,11.27,10.62,15.77h-8.3l-6.95-10.85Z"/><path class="cls-2" d="M187.32,4.7v6.65h4.62v5.3h-4.62v13.5c0,1,.19,1.72,.57,2.15,.38,.43,1.12,.65,2.2,.65,.8,0,1.51-.06,2.12-.17v5.47c-1.42,.43-2.87,.65-4.37,.65-5.07,0-7.65-2.56-7.75-7.67v-14.57h-3.95v-5.3h3.95V4.7h7.22Z"/></g><g><path class="cls-2" d="M150.64,241.6l-10.23-13.02c-18.15-23.11-36.27-46.44-54.27-69.9L1.87,237.71,1.93,3.93l31.41,42.26c18.41,24.78,37.1,49.61,55.95,74.36l62.52-58.63,59.74,57.71L300.08,3.74V240.83l-85.65-82.73-63.8,83.5Zm-45.69-100.56c15.07,19.65,30.23,39.23,45.42,58.65l45.49-59.54-44.32-42.81-46.59,43.7Zm125.17-3.47l44.3,42.79V79.59l-44.3,57.98ZM27.57,81.39l-.02,97.07,42.93-40.26c-14.41-18.9-28.73-37.86-42.9-56.81Z"/><rect class="cls-2" x="90.55" y="160.76" width="23.13" height="203.24" transform="translate(-160.46 363.98) rotate(-89.89)"/><rect class="cls-2" x="212.05" y="251.33" width="87.73" height="23.13"/><rect class="cls-1" x="97.34" y="286.79" width="202.45" height="23.13" transform="translate(396.89 596.87) rotate(-179.95)"/><rect class="cls-1" x=".03" y="286.04" width="88.91" height="23.13" transform="translate(88.16 595.32) rotate(-179.84)"/><polyline class="cls-1" points="27.59 81.38 1.82 46.83 1.99 98.16 27.2 98.16 27.59 98.23 27.59 81.38"/><path class="cls-1" d="M274.41,79.62c8.55-11.48,17.11-22.95,25.66-34.43,0,17.12,.02,34.25,.02,51.37-8.49-.01-16.99-.03-25.48-.04l-.2-15.98"/><path class="cls-1" d="M63.69,179.67c-5.79-6.31-11.59-12.63-17.38-18.94l24.19-22.71c5.25,6.83,10.5,13.67,15.74,20.5-7.52,7.05-15.03,14.1-22.55,21.16Z"/><path class="cls-1" d="M236.74,179.42c5.58-6.4,11.15-12.79,16.73-19.19l-23.25-22.51c-5.29,6.81-10.58,13.61-15.87,20.42,7.46,7.09,14.92,14.19,22.38,21.28Z"/></g><polygon class="cls-1" points="203.39 38.19 199.22 30.98 209.03 25.31 199.76 16.23 205.59 10.28 222.68 27.03 203.39 38.19"/><polygon class="cls-1" points="90.64 38.17 70.97 24.53 88.11 10.29 93.43 16.7 84.72 23.93 95.38 31.33 90.64 38.17"/></g></g></svg>