<?xml version="1.0" encoding="UTF-8"?><svg id="Camada_2" xmlns="http://www.w3.org/2000/svg" viewBox="0 0 1396.14 277.66"><defs><style>.cls-1{fill:#fff;}.cls-2{fill:#0ab580;}.cls-3{fill:#21ffb5;}</style></defs><g id="Camada_1-2"><g><rect class="cls-3" x="1310.84" y="200.69" width="85.3" height="31.62"/><g><path class="cls-1" d="M400.91,189.46l56.05-76.93v117.21h-23.02v-47.45l-33.03,45.61-33.1-45.61v47.45h-23.02V112.53l56.12,76.93Z"/><path class="cls-1" d="M504.95,231.24c-11.65,0-20.77-3.53-27.38-10.58-6.6-7.05-9.91-15.98-9.91-26.78v-2.7c0-11.74,3.11-21.31,9.34-28.69,6.23-7.39,15.23-11.06,27.02-11.01,10.37,0,18.41,3.1,24.11,9.3,5.7,6.2,8.56,14.7,8.56,25.5v12.57h-44.03l-.14,.43c.38,4.02,1.87,7.28,4.47,9.77,2.6,2.49,6.34,3.73,11.22,3.73,4.59,0,8.42-.38,11.47-1.14,3.05-.76,6.55-1.96,10.48-3.62l5.75,14.63c-3.32,2.42-7.77,4.45-13.35,6.11-5.59,1.66-11.46,2.49-17.61,2.49Zm-.92-61.29c-3.83,0-6.67,1.22-8.49,3.66-1.82,2.44-2.88,5.74-3.16,9.91l.14,.36h20.74v-1.85c0-3.98-.7-6.98-2.09-9.02-1.4-2.04-3.78-3.05-7.14-3.05Z"/><path class="cls-1" d="M586.91,208.15c0-1.89-1.08-3.59-3.23-5.08-2.16-1.49-6.07-2.83-11.75-4.01-8.95-1.75-15.7-4.46-20.24-8.13-4.55-3.67-6.82-8.72-6.82-15.16,0-6.77,2.84-12.51,8.52-17.22,5.68-4.71,13.38-7.07,23.08-7.07,10.23,0,18.37,2.29,24.43,6.85,6.06,4.57,8.95,10.48,8.67,17.72l-.14,.43h-23.3c0-3.03-.76-5.33-2.27-6.89-1.52-1.56-4-2.34-7.46-2.34-2.51,0-4.62,.69-6.32,2.06-1.7,1.37-2.56,3.13-2.56,5.26s.98,3.76,2.95,5.18,5.93,2.7,11.9,3.84c9.42,1.85,16.38,4.6,20.88,8.27,4.5,3.67,6.75,8.87,6.75,15.59s-3.07,12.61-9.2,17.08c-6.13,4.47-14.24,6.71-24.33,6.71s-18.74-2.65-24.82-7.95c-6.09-5.3-8.98-11.22-8.7-17.76l.14-.42h21.73c.09,3.65,1.2,6.27,3.3,7.88,2.11,1.61,5.1,2.41,8.98,2.41,3.22,0,5.66-.63,7.32-1.88,1.66-1.25,2.49-3.04,2.49-5.36Z"/><path class="cls-1" d="M648.84,133.79v19.11h12.15v16.62h-12.15v35.23c0,2.75,.56,4.72,1.67,5.93,1.11,1.21,2.62,1.81,4.51,1.81,1.23,0,2.21-.05,2.95-.14,.73-.09,1.67-.28,2.81-.57l1.63,17.76c-2.42,.61-4.59,1.05-6.53,1.31-1.94,.26-4.24,.39-6.89,.39-7.91,0-13.91-2.11-18-6.32-4.1-4.21-6.14-10.89-6.14-20.03v-35.37h-10.72v-16.62h10.72v-19.11h24.01Z"/><path class="cls-1" d="M715.11,173.35l-7.81-.07c-2.75,0-5,.51-6.75,1.53-1.75,1.02-3.05,2.45-3.91,4.3v50.64h-24.01v-76.85h22.59l.85,11.29c1.61-4.02,3.74-7.15,6.39-9.37,2.65-2.23,5.75-3.34,9.3-3.34,1.09,0,2.06,.07,2.91,.21s1.75,.36,2.7,.64l-2.27,21.02Z"/><path class="cls-1" d="M756.66,231.24c-11.65,0-20.77-3.53-27.38-10.58-6.6-7.05-9.91-15.98-9.91-26.78v-2.7c0-11.74,3.11-21.31,9.34-28.69,6.23-7.39,15.23-11.06,27.02-11.01,10.37,0,18.41,3.1,24.11,9.3,5.7,6.2,8.56,14.7,8.56,25.5v12.57h-44.03l-.14,.43c.38,4.02,1.87,7.28,4.47,9.77,2.6,2.49,6.34,3.73,11.22,3.73,4.59,0,8.42-.38,11.47-1.14,3.05-.76,6.55-1.96,10.48-3.62l5.75,14.63c-3.32,2.42-7.77,4.45-13.35,6.11-5.59,1.66-11.46,2.49-17.61,2.49Zm-.92-61.29c-3.83,0-6.67,1.22-8.49,3.66-1.82,2.44-2.88,5.74-3.16,9.91l.14,.36h20.74v-1.85c0-3.98-.7-6.98-2.09-9.02-1.4-2.04-3.78-3.05-7.14-3.05Z"/><path class="cls-1" d="M838.62,208.15c0-1.89-1.08-3.59-3.23-5.08-2.16-1.49-6.07-2.83-11.75-4.01-8.95-1.75-15.7-4.46-20.24-8.13-4.55-3.67-6.82-8.72-6.82-15.16,0-6.77,2.84-12.51,8.52-17.22,5.68-4.71,13.38-7.07,23.08-7.07,10.23,0,18.37,2.29,24.43,6.85,6.06,4.57,8.95,10.48,8.67,17.72l-.14,.43h-23.3c0-3.03-.76-5.33-2.27-6.89-1.52-1.56-4-2.34-7.46-2.34-2.51,0-4.62,.69-6.32,2.06-1.7,1.37-2.56,3.13-2.56,5.26s.98,3.76,2.95,5.18c1.96,1.42,5.93,2.7,11.9,3.84,9.42,1.85,16.38,4.6,20.88,8.27,4.5,3.67,6.75,8.87,6.75,15.59s-3.07,12.61-9.2,17.08c-6.13,4.47-14.24,6.71-24.33,6.71s-18.74-2.65-24.82-7.95c-6.09-5.3-8.98-11.22-8.7-17.76l.14-.42h21.73c.09,3.65,1.2,6.27,3.3,7.88,2.11,1.61,5.1,2.41,8.98,2.41,3.22,0,5.66-.63,7.32-1.88,1.66-1.25,2.49-3.04,2.49-5.36Z"/></g><g><path class="cls-1" d="M892.73,200.8c0-8.79,1.85-15.83,5.57-21.11,3.72-5.28,8.9-7.92,15.56-7.92,3.77,0,7.07,.8,9.9,2.4,2.84,1.6,5.19,3.85,7.06,6.77v-32.49h6.11v79.43h-4.99l-.86-7.99c-1.87,2.92-4.24,5.16-7.13,6.72-2.88,1.56-6.28,2.34-10.19,2.34-6.58,0-11.73-2.45-15.45-7.36-3.72-4.9-5.57-11.49-5.57-19.73v-1.07Zm6.11,1.07c0,6.66,1.33,11.95,4,15.89,2.67,3.93,6.68,5.9,12.04,5.9,3.94,0,7.21-.87,9.83-2.62,2.61-1.74,4.65-4.16,6.11-7.25v-26.13c-1.39-3.12-3.36-5.67-5.91-7.63-2.55-1.97-5.86-2.95-9.93-2.95-5.37,0-9.39,2.2-12.09,6.59-2.7,4.4-4.05,10.11-4.05,17.14v1.07Z"/><path class="cls-1" d="M988.05,227.89c-.37-1.93-.65-3.6-.84-4.99-.18-1.39-.28-2.81-.28-4.28-1.9,2.99-4.57,5.46-7.99,7.41-3.43,1.95-7.37,2.93-11.82,2.93-5.4,0-9.58-1.44-12.55-4.3-2.97-2.87-4.45-6.76-4.45-11.69s2.16-8.91,6.47-11.96c4.31-3.06,9.91-4.59,16.8-4.59h13.54v-6.82c0-3.94-1.25-7.03-3.74-9.27-2.5-2.25-6.02-3.36-10.57-3.36-4.18,0-7.54,1.01-10.11,3.05-2.56,2.04-3.84,4.6-3.84,7.69h-5.65l-.1-.31c-.21-4.14,1.57-7.79,5.32-10.92,3.75-3.14,8.64-4.72,14.69-4.72s10.89,1.54,14.56,4.63c3.66,3.09,5.5,7.53,5.5,13.29v27.09c0,1.94,.11,3.82,.33,5.65,.22,1.83,.58,3.66,1.1,5.45h-6.37Zm-20.26-4.33c4.68,0,8.74-1.11,12.17-3.33,3.43-2.23,5.75-5.08,6.97-8.59v-10.54h-13.59c-4.96,0-9.05,1.18-12.27,3.54-3.22,2.36-4.84,5.2-4.84,8.53,0,3.12,1.02,5.63,3.08,7.54,2.05,1.9,4.88,2.85,8.48,2.85Z"/><path class="cls-1" d="M1035.99,141.93c3.76,13.81,7.51,27.63,11.27,41.44,8.39-13.81,16.79-27.63,25.18-41.44,7.96,13.3,15.91,26.6,23.87,39.91,4.15-13.3,8.3-26.6,12.45-39.91h21.37c-8,29.14-15.99,58.28-23.99,87.43-11.32-14.1-22.64-28.21-33.96-42.31-11.12,13.85-22.24,27.7-33.37,41.54-8.05-28.89-16.1-57.77-24.14-86.66h21.31Z"/><path class="cls-1" d="M1173.14,229.38c-11.64,0-20.77-3.53-27.38-10.58-6.61-7.06-9.91-15.98-9.91-26.77v-2.7c0-11.74,3.11-21.3,9.34-28.69,6.23-7.39,15.24-11.06,27.03-11.01,10.37,0,18.4,3.1,24.11,9.31,5.7,6.2,8.56,14.7,8.56,25.5v12.57h-44.04l-.14,.43c.38,4.02,1.87,7.28,4.47,9.76,2.6,2.49,6.35,3.73,11.22,3.73,4.59,0,8.42-.38,11.47-1.13,3.05-.76,6.55-1.97,10.48-3.63l5.75,14.63c-3.31,2.42-7.76,4.45-13.35,6.11-5.59,1.66-11.46,2.49-17.62,2.49Zm-.92-61.29c-3.84,0-6.66,1.22-8.49,3.66-1.82,2.44-2.88,5.74-3.16,9.91l.14,.36h20.74v-1.85c0-3.98-.7-6.98-2.1-9.02-1.4-2.04-3.78-3.05-7.14-3.05Z"/><path class="cls-1" d="M1286.21,191.1c0,11.69-2.51,21-7.53,27.92-5.02,6.91-12.46,10.36-22.3,10.36-4.17,0-7.81-.9-10.94-2.69-3.13-1.81-5.8-4.41-8.03-7.81l-1.42,9.02h-20.95V117.09h24.01v41.41c2.13-2.84,4.6-5.03,7.42-6.57,2.82-1.54,6.08-2.31,9.77-2.31,9.89,0,17.37,3.62,22.41,10.87,5.04,7.24,7.56,16.95,7.56,29.12v1.49Zm-23.94-1.49c0-6.82-.85-12.11-2.56-15.87-1.71-3.77-4.88-5.65-9.52-5.65-2.6,0-4.84,.49-6.71,1.46-1.87,.97-3.35,2.38-4.44,4.22v32.32c1.14,1.62,2.64,2.82,4.51,3.63,1.87,.8,4.13,1.2,6.78,1.2,4.73,0,7.91-1.64,9.52-4.93,1.61-3.3,2.41-8.25,2.41-14.88v-1.49Z"/></g><g><g><path class="cls-3" d="M97.34,10.16l.2,2.71c1.72-2.1,4.04-3.16,6.96-3.16,3.12,0,5.26,1.23,6.42,3.69,1.7-2.46,4.13-3.69,7.28-3.69,2.63,0,4.58,.76,5.86,2.29,1.28,1.53,1.93,3.83,1.93,6.91v15.47h-6.49v-15.45c0-1.37-.27-2.38-.81-3.01-.54-.63-1.49-.95-2.84-.95-1.94,0-3.28,.93-4.03,2.78l.02,16.63h-6.47v-15.42c0-1.4-.28-2.42-.83-3.04-.55-.63-1.49-.94-2.82-.94-1.84,0-3.16,.76-3.98,2.28v17.12h-6.47V10.16h6.07Z"/><path class="cls-3" d="M142.05,24.67l-2.33,2.33v7.39h-6.47V0h6.47V19.05l1.25-1.61,6.2-7.28h7.77l-8.75,10.1,9.51,14.12h-7.43l-6.22-9.72Z"/><path class="cls-3" d="M167.78,4.21v5.95h4.14v4.75h-4.14v12.09c0,.9,.17,1.54,.51,1.93,.34,.39,1,.58,1.97,.58,.72,0,1.35-.05,1.9-.16v4.9c-1.27,.39-2.57,.58-3.92,.58-4.54,0-6.85-2.29-6.94-6.87V14.91h-3.54v-4.75h3.54V4.21h6.47Z"/></g><g><path class="cls-3" d="M134.92,216.4l-9.16-11.67c-16.26-20.7-32.49-41.6-48.61-62.61L1.67,212.92,1.72,3.52,29.86,41.38c16.49,22.2,33.23,44.44,50.11,66.6l56-52.52,53.51,51.69L268.78,3.35V215.71l-76.71-74.1-57.15,74.79Zm-40.92-90.07c13.5,17.6,27.08,35.13,40.68,52.53l40.74-53.33-39.69-38.34-41.73,39.14Zm112.12-3.11l39.68,38.33V71.29l-39.68,51.93ZM24.69,72.9l-.02,86.94,38.45-36.06c-12.91-16.93-25.73-33.91-38.43-50.88Z"/><rect class="cls-3" x="81.1" y="143.99" width="20.72" height="182.04" transform="translate(-143.72 326.01) rotate(-89.89)"/><rect class="cls-3" x="189.93" y="225.11" width="78.58" height="20.72"/><rect class="cls-2" x="87.18" y="256.88" width="181.33" height="20.72" transform="translate(355.49 534.61) rotate(-179.95)"/><rect class="cls-2" x=".03" y="256.2" width="79.64" height="20.72" transform="translate(78.96 533.22) rotate(-179.84)"/><polyline class="cls-2" points="24.71 72.89 1.63 41.95 1.78 87.92 24.36 87.92 24.71 87.98 24.71 72.89"/><path class="cls-2" d="M245.78,71.31c7.66-10.28,15.32-20.56,22.98-30.84,0,15.34,.01,30.68,.02,46.02-7.61-.01-15.22-.02-22.82-.04l-.18-14.31"/><path class="cls-2" d="M57.05,160.93c-5.19-5.66-10.38-11.31-15.57-16.97l21.67-20.34c4.7,6.12,9.4,12.24,14.1,18.36-6.73,6.32-13.46,12.63-20.2,18.95Z"/><path class="cls-2" d="M212.05,160.71c4.99-5.73,9.99-11.46,14.98-17.19l-20.82-20.16c-4.74,6.1-9.47,12.19-14.21,18.29,6.68,6.35,13.37,12.71,20.05,19.06Z"/></g><polygon class="cls-2" points="182.18 34.2 178.44 27.75 187.23 22.67 178.92 14.53 184.14 9.21 199.45 24.21 182.18 34.2"/><polygon class="cls-2" points="81.18 34.19 63.57 21.97 78.92 9.22 83.68 14.96 75.88 21.44 85.43 28.07 81.18 34.19"/></g></g></g></svg>