<svg
   width="217.66389mm"
   height="471.4812mm"
   viewBox="0 0 217.66389 471.4812"
   version="1.1"
   id="svg5"
   xml:space="preserve"
   inkscape:version="1.2 (dc2aeda, 2022-05-15)"
   sodipodi:docname="desenho.svg"
   xmlns:inkscape="http://www.inkscape.org/namespaces/inkscape"
   xmlns:sodipodi="http://sodipodi.sourceforge.net/DTD/sodipodi-0.dtd"
   xmlns="http://www.w3.org/2000/svg"
   xmlns:svg="http://www.w3.org/2000/svg"><sodipodi:namedview
     id="namedview7"
     pagecolor="#000"
     bordercolor="#000000"
     borderopacity="0.25"
     inkscape:showpageshadow="2"
     inkscape:pageopacity="0.0"
     inkscape:pagecheckerboard="0"
     inkscape:deskcolor="#000"
     inkscape:document-units="mm"
     showgrid="false"
     inkscape:zoom="0.18399786"
     inkscape:cx="2157.6338"
     inkscape:cy="660.33376"
     inkscape:window-width="1799"
     inkscape:window-height="957"
     inkscape:window-x="110"
     inkscape:window-y="25"
     inkscape:window-maximized="0"
     inkscape:current-layer="g336" /><defs
     id="defs2" /><g
     inkscape:label="Camada 1"
     inkscape:groupmode="layer"
     id="layer1"
     transform="translate(644.29368,201.25292)"><g
       id="g336"
       transform="translate(653.62692,-26.436669)"><path
         style="fill:#000;stroke-width:0.352778"
         d="m -1275.5192,296.44751 c -10.4088,-1.04309 -19.302,-8.91427 -21.9174,-19.39868 -0.4075,-1.63358 -0.484,-35.81665 -0.484,-216.252778 0,-206.024762 0.025,-214.401172 0.6409,-216.605552 2.4927,-8.91912 9.0171,-15.44393 18.0563,-18.05759 2.7766,-0.80284 3.0987,-0.81603 19.932,-0.81603 h 17.1097 l 0.2135,4.58612 c 0.17,3.65304 0.3755,4.96128 1.0101,6.43009 0.9728,2.25186 3.1684,4.34559 5.4999,5.24481 1.6816,0.64856 3.3264,0.67232 46.5459,0.67232 h 44.8028 l 1.7639,-0.81266 c 2.25,-1.03661 3.5361,-2.26547 4.6876,-4.47901 0.8095,-1.55613 0.9407,-2.31252 1.1136,-6.42172 0.1154,-2.74026 0.3606,-4.82197 0.5959,-5.05652 0.2905,-0.28967 5.0657,-0.35695 17.4625,-0.24606 19.0182,0.17012 18.768,0.14178 24.1182,2.73148 6.5872,3.18844 11.6215,9.44439 13.4824,16.75393 0.5997,2.35538 0.6287,12.32783 0.6287,215.900002 0,177.158538 -0.08,213.820268 -0.4733,215.723608 -1.3045,6.31885 -5.2811,12.23638 -10.6925,15.9112 -2.4227,1.64518 -4.4976,2.59574 -7.8842,3.6117 l -2.4694,0.74083 -85.5487,0.0528 c -47.0517,0.0289 -86.7392,-0.0665 -88.1944,-0.2123 z"
         id="path350" /></g></g></svg>
