<?xml version="1.0" encoding="UTF-8"?>
<svg width="471.77mm" height="218.48mm" version="1.1" viewBox="0 0 471.77 218.48" xml:space="preserve" xmlns="http://www.w3.org/2000/svg"><g transform="translate(771.35 74.74)"><g transform="rotate(269.84 -875.44 -278.21)"><path d="m-1275.5 296.45c-10.409-1.0431-19.302-8.9143-21.917-19.399-0.4075-1.6336-0.484-35.817-0.484-216.25 0-206.02 0.025-214.4 0.6409-216.61 2.4927-8.9191 9.0171-15.444 18.056-18.058 2.7766-0.80284 3.0987-0.81603 19.932-0.81603h17.11l0.2135 4.5861c0.17 3.653 0.3755 4.9613 1.0101 6.4301 0.9728 2.2519 3.1684 4.3456 5.4999 5.2448 1.6816 0.64856 3.3264 0.67232 46.546 0.67232h44.803l1.7639-0.81266c2.25-1.0366 3.5361-2.2655 4.6876-4.479 0.8095-1.5561 0.9407-2.3125 1.1136-6.4217 0.1154-2.7403 0.3606-4.822 0.5959-5.0565 0.2905-0.28967 5.0657-0.35695 17.462-0.24606 19.018 0.17012 18.768 0.14178 24.118 2.7315 6.5872 3.1884 11.622 9.4444 13.482 16.754 0.5997 2.3554 0.6287 12.328 0.6287 215.9 0 177.16-0.08 213.82-0.4733 215.72-1.3045 6.3188-5.2811 12.236-10.692 15.911-2.4227 1.6452-4.4976 2.5957-7.8842 3.6117l-2.4694 0.74083-85.549 0.0528c-47.052 0.0289-86.739-0.0665-88.194-0.2123z" stroke-width=".35278"/></g></g></svg>
